<svg width="463" height="325" viewBox="0 0 463 325" fill="none" xmlns="http://www.w3.org/2000/svg">
<g clip-path="url(#clip0_1_2)">
<path d="M-4.20554 -59.0909V408.205H1131.06C1131.06 408.205 1073.73 401.92 1044.46 365.411C1015.19 328.903 976.573 338.232 912.211 333.364C847.85 328.496 840.812 300.507 850.168 272.518C859.525 244.53 903.439 197.374 829.697 184.901C755.955 172.428 712.947 187.334 694.517 197.374C676.088 207.414 624.294 204.007 606.299 211.643C588.304 219.279 585.67 238.75 525.981 246.203L493.498 245.594C493.498 245.594 547.027 239.765 549.958 225.819C552.889 211.873 531.226 200.72 571.025 196.87C610.824 193.021 648.873 194.435 659.991 174.557C671.11 154.679 671.104 146.766 716.171 142.108C761.238 137.45 833.795 119.187 850.183 89.1719C856.186 78.1585 853.153 66.251 848.269 54.1427C839.859 33.2354 825.974 11.733 843.757 -6.76395C871.835 -35.9693 952.591 -59.0909 952.591 -59.0909H-4.20554Z" fill="url(#paint0_linear_1_2)"/>
<path d="M477.806 306.592C481.905 320.202 492.55 330.577 514.312 333.365C552.314 338.232 575.114 328.903 592.388 365.41C609.661 401.918 643.518 408.205 643.518 408.205H-26.6892V306.592H477.806Z" fill="url(#paint1_linear_1_2)"/>
<path d="M-26.6892 306.592V288.339H475.758C475.434 294.448 476.12 300.561 477.806 306.592H-26.6892Z" fill="url(#paint2_linear_1_2)"/>
<path opacity="0.2" d="M643.325 399.396C643.325 399.396 626.4 335.902 429.906 349.007C233.413 362.112 180.981 280.477 20.1487 331.874C-140.684 383.271 84.8507 433.661 221.481 424.59C358.112 415.52 387.528 396.372 477.68 417.536C567.832 438.699 647.967 423.583 643.325 399.396Z" stroke="white" stroke-miterlimit="10"/>
<path opacity="0.2" d="M561.721 417.536C579.372 417.536 594.407 415.514 604.055 411.841C612.031 408.805 615.84 404.803 615.082 400.262C614.709 399.168 610.654 388.361 592.52 377.962C568.622 364.26 530.918 357.308 480.459 357.308C465.309 357.345 450.175 357.882 435.128 358.916C419.293 359.981 403.369 360.521 387.431 360.534C314.179 360.534 261.754 348.961 215.499 338.75C181.552 331.256 152.234 324.784 122.277 324.784C97.0223 324.784 69.8115 329.556 39.092 339.373C-1.82444 352.449 -15.6485 365.498 -2.00415 378.159C19.4814 398.091 108.038 415.579 187.507 415.581H187.524C197.13 415.598 206.73 415.3 216.28 414.688C258.854 411.861 290.107 408.062 317.682 404.707C347.854 401.04 373.913 397.869 402.038 397.869C431.975 397.869 460.119 401.343 493.293 409.127C516.728 414.628 540.391 417.536 561.721 417.536Z" stroke="white" stroke-miterlimit="10"/>
<path d="M128.99 174.557C128.99 174.557 115.216 160.156 128.99 149.408C142.764 138.659 146.432 135.21 146.838 108.437C147.244 81.6651 158.155 73.2488 171.099 70.0033C184.044 66.7579 189.04 75.4798 189.04 75.4798C189.04 75.4798 197.603 72.7419 197.603 83.6941C197.603 94.6463 194.952 130.175 201.07 144.457C207.187 158.738 128.99 174.557 128.99 174.557Z" fill="url(#paint3_linear_1_2)"/>
<path d="M128.334 224.421L129.508 225.82H147.655L147.362 226.463C146.133 229.274 141.465 240.873 142.353 253.046C143.374 267.041 146.022 274.142 145.004 280.226H214.939L207.599 235.401L214.119 222.623L219.832 226.882L228.144 198.491C229.494 193.896 229.216 188.979 227.355 184.563L213.879 152.582C212.561 149.457 210.528 146.682 207.941 144.477C205.354 142.273 202.285 140.699 198.98 139.883L187.652 137.09L184.674 136.354L182.924 135.922L163.046 138.051L162.728 138.173L160.618 139L146.336 144.592C141.988 146.294 138.183 149.134 135.325 152.811C132.466 156.488 130.66 160.865 130.097 165.48L124.489 211.467C124.207 213.773 124.403 216.112 125.065 218.339C125.726 220.567 126.838 222.637 128.334 224.421V224.421Z" fill="url(#paint4_linear_1_2)"/>
<path d="M129.51 225.82H147.657C147.657 225.82 148.954 220.581 150.605 212.683H150.599C132.446 207.098 129.51 225.82 129.51 225.82Z" fill="#A7BEC9"/>
<path d="M163.048 138.05V117.362C163.048 117.362 152.854 113.61 154.179 106.816C155.505 100.022 160.5 101.036 163.048 106.816C163.861 105.382 164.114 103.7 163.759 102.093C163.759 102.093 182.261 102.912 186.848 91.3494C186.848 91.3494 188.684 97.5863 193.27 98.9552C193.27 98.9552 193.117 122.229 191.18 127.502C189.243 132.776 182.923 131.964 182.923 131.964V135.919C182.923 135.919 184.452 141.598 179.049 143.728C173.647 145.858 165.291 143.12 163.048 138.05Z" fill="url(#paint5_linear_1_2)"/>
<path d="M146.208 225.821L144.11 224.653C144.11 224.653 153.976 200.315 156.423 176.992C157.035 171.138 157.457 165.888 157.823 161.209C154.227 165.259 152.084 170.383 151.731 175.775C151.12 186.119 150.508 190.178 146.636 195.246C142.765 200.315 148.759 206.849 143.009 211.699C139.926 214.29 138.556 220.558 137.945 225.821H146.208Z" fill="#C9E2F4"/>
<path d="M142.353 253.048C143.375 267.043 146.023 274.143 145.005 280.228H214.939L207.6 235.402C203.52 215.932 201.379 162.844 195.722 149.305C193.055 142.941 190.076 139.229 187.655 137.088C184.926 134.672 182.926 134.246 182.926 134.246C183.567 134.898 184.153 135.602 184.675 136.352C187.452 140.173 192.609 149.482 193.276 166.495C193.276 166.495 180.585 174.709 165.447 168.472C165.447 168.472 161.89 153.493 162.731 138.173C162.805 136.864 162.908 135.55 163.049 134.249C161.922 135.651 161.095 137.268 160.621 139.001C158.382 146.206 158.345 158.697 156.425 176.993C153.978 200.315 144.113 224.653 144.113 224.653L146.211 225.822H147.66L147.367 226.465C146.134 229.276 141.468 240.874 142.353 253.048Z" fill="url(#paint6_linear_1_2)"/>
<path d="M142.353 253.048C141.467 240.873 146.133 229.276 147.362 226.465L147.656 225.822H146.206L144.108 224.653C144.108 224.653 153.974 200.315 156.42 176.993C158.341 158.697 158.378 146.205 160.616 139.001C161.091 137.268 161.917 135.651 163.045 134.249C162.904 135.551 162.8 136.865 162.726 138.173C162.639 139.764 162.602 141.35 162.601 142.918C158.383 147.936 159.939 162.539 161.296 166.64C162.653 170.741 171.255 174.102 165.8 172.884C160.345 171.666 166.972 180.797 170.577 184.901C174.181 189.005 170.642 190.986 165.8 189.008C160.958 187.03 159.174 193.115 165.8 203.915C172.426 214.716 158.072 252.438 185.169 258.725C212.265 265.011 214.937 280.226 214.937 280.226H145.005C146.024 274.143 143.376 267.043 142.353 253.048Z" fill="url(#paint7_linear_1_2)"/>
<path d="M204.821 215.695C205.684 223.599 206.582 230.548 207.598 235.404L214.118 222.626L204.821 215.695Z" fill="url(#paint8_linear_1_2)"/>
<path d="M182.926 131.965V135.92C173.344 135.92 169.98 124.765 169.98 124.765C176.403 131.965 182.926 131.965 182.926 131.965Z" fill="url(#paint9_linear_1_2)"/>
<path d="M150.6 212.683H150.606C150.192 214.662 149.8 216.474 149.447 218.079C148.117 219.808 146.235 221.036 144.111 221.56L137.233 223.462L131.991 219.073C134.682 214.362 140.091 209.45 150.6 212.683Z" fill="url(#paint10_linear_1_2)"/>
<path d="M141.902 229.047C141.902 229.047 138.312 230.61 136.816 225.923C135.32 221.236 138.878 216.548 142.745 216.474C146.612 216.4 140.931 223.392 141.902 229.047Z" fill="#EAAD03"/>
<path d="M150.932 220.77C152.867 221.238 154.886 221.238 156.821 220.77C160.018 219.989 161.477 217.425 159.85 216.809C158.223 216.193 156.709 216.976 153.905 214.3C151.101 211.624 144.033 211.51 142.126 216.699C140.219 221.888 138.929 231.374 147.623 232.545C156.317 233.716 164.785 232.099 165.758 229.792C166.731 227.485 150.932 220.77 150.932 220.77Z" fill="#FED300"/>
<path d="M199.133 164.049C201.384 178.549 203.029 199.206 204.823 215.695C204.823 215.695 207.6 198.086 208.212 192.202C208.824 186.318 203.723 189.16 203.52 177.8C203.378 169.793 201.506 169.148 199.133 164.049Z" fill="#C9E2F4"/>
<path d="M177.686 237.586L173.912 238.515C171.522 236.101 169.008 233.814 166.379 231.662C161.45 227.538 156.177 223.84 150.617 220.608C150.496 220.54 150.396 220.44 150.327 220.32C150.257 220.2 150.222 220.064 150.223 219.925C150.225 219.787 150.264 219.652 150.336 219.533C150.408 219.415 150.51 219.317 150.633 219.252L151.596 218.731L151.605 218.742C151.615 218.742 151.633 218.756 151.654 218.759C153.737 219.559 155.98 219.863 158.203 219.644C159.026 219.563 159.396 219.136 160.039 218.868C172.684 225.142 177.686 237.586 177.686 237.586Z" fill="#1D164D"/>
<path d="M164.287 162.467C164.899 166.179 165.444 168.472 165.444 168.472C178.086 173.683 189.016 168.813 192.28 167.067C190.378 167.98 185.57 169.549 176.451 168.32C166.506 166.976 164.642 163.702 164.287 162.467Z" fill="#C9E2F4"/>
<path d="M145.94 241.553L148.557 245.893C149.583 247.595 150.963 249.06 152.603 250.189C154.244 251.317 156.108 252.084 158.071 252.438C166.019 253.871 180.146 255.547 193.279 252.69C196.851 251.916 199.98 249.788 202.002 246.758L205.477 241.54C205.626 241.317 205.721 241.062 205.754 240.796C205.787 240.53 205.757 240.259 205.666 240.007C205.576 239.754 205.428 239.526 205.233 239.34C205.038 239.154 204.803 239.017 204.545 238.937C197.489 236.772 174.152 230.982 146.945 239.002C146.69 239.076 146.455 239.208 146.259 239.386C146.063 239.565 145.91 239.786 145.813 240.032C145.717 240.279 145.678 240.544 145.7 240.807C145.722 241.071 145.804 241.326 145.94 241.553V241.553Z" fill="url(#paint11_linear_1_2)"/>
<path d="M145.957 239.772C146.173 240.13 146.515 240.395 146.917 240.514C151.924 242.013 157.049 243.084 162.239 243.714C165.157 244.086 168.367 244.371 171.823 244.499C176.212 244.657 180.606 244.539 184.979 244.146C186.863 243.975 188.784 243.747 190.741 243.465C195.399 242.786 200.002 241.778 204.515 240.447C204.932 240.324 205.287 240.051 205.512 239.68C205.293 239.323 204.949 239.059 204.546 238.938C201.279 237.952 197.956 237.159 194.595 236.565C191.726 236.042 188.424 235.573 184.765 235.263C172.035 234.155 159.209 235.424 146.948 239.005C146.532 239.127 146.178 239.401 145.957 239.772V239.772Z" fill="#4A4975"/>
<path d="M162.239 243.711C171.707 244.923 181.296 244.839 190.741 243.462C187.243 241.162 182.234 239.72 176.674 239.72C170.918 239.723 165.75 241.267 162.239 243.711Z" fill="#EAF5FF"/>
<path d="M176.49 242.596C179.755 242.596 182.402 241.692 182.402 240.577C182.402 239.462 179.755 238.558 176.49 238.558C173.225 238.558 170.578 239.462 170.578 240.577C170.578 241.692 173.225 242.596 176.49 242.596Z" fill="#FED300"/>
<path d="M171.823 244.499C176.212 244.657 180.606 244.539 184.979 244.146C188.641 242.252 191.904 239.679 194.594 236.565C202.148 227.858 203.921 216.924 208.258 211.643C214.531 204.007 232.572 207.414 238.992 197.374C239.956 195.862 241.01 194.41 242.148 193.024C239.243 183.002 232.949 173.832 228.215 167.935C227.827 169.979 227.426 172.18 226.961 174.555C223.09 194.433 209.836 193.009 195.976 196.867C182.116 200.725 189.652 211.872 188.636 225.816C188.349 229.284 186.998 232.58 184.765 235.259C180.949 240.039 175.236 243.027 171.823 244.499Z" fill="white"/>
<path d="M35.6993 189.885H-0.0300598V236.742H35.6993V189.885Z" fill="url(#paint12_linear_1_2)"/>
<path d="M11.2173 189.885H-0.0300598V236.742H11.2173V189.885Z" fill="url(#paint13_linear_1_2)"/>
<path d="M5.59267 189.885H11.2187L8.40698 184.956L5.59528 180.028L2.78358 184.956L-0.0281219 189.885H5.59267Z" fill="#4099F1"/>
<path d="M30.0604 180.028H5.59204L11.218 189.885H35.6851L30.0604 180.028Z" fill="url(#paint14_linear_1_2)"/>
<path d="M30.0604 176.374H5.59331V180.028H30.0604V176.374Z" fill="#ACD4F3"/>
<path opacity="0.3" d="M35.6993 196.674H16.238V224.754H35.6993V196.674Z" fill="white"/>
<path d="M43.8408 224.52C43.8815 224.147 39.4435 189.01 35.6993 179.273C31.9552 169.536 25.0236 169.385 24.9725 183.836C24.9214 198.288 30.8435 226.17 30.8435 226.17L43.8408 224.52Z" fill="url(#paint15_linear_1_2)"/>
<path d="M27.5521 181.782C27.5521 181.782 33.1379 183.526 34.0756 187.066C34.0737 187.066 35.3023 180.718 27.5521 181.782Z" fill="#EAA492"/>
<path d="M28.6559 193.419C28.6559 193.419 34.2417 195.162 35.1794 198.703C35.1807 198.701 36.4093 192.354 28.6559 193.419Z" fill="#EAA492"/>
<path d="M29.6595 205.655C29.6595 205.655 35.246 207.399 36.183 210.939C36.183 210.941 37.4136 204.593 29.6595 205.655Z" fill="#EAA492"/>
<path d="M47.3554 224.394C47.3114 223.992 52.0883 186.169 56.119 175.69C60.1496 165.212 67.6101 165.047 67.6651 180.603C67.7201 196.158 61.3459 226.17 61.3459 226.17L47.3554 224.394Z" fill="url(#paint16_linear_1_2)"/>
<path d="M64.889 178.392C64.889 178.392 58.875 180.268 57.8669 184.078C57.8669 184.078 56.5432 177.246 64.889 178.392Z" fill="#EAA492"/>
<path d="M63.7004 190.917C63.7004 190.917 57.6864 192.794 56.6783 196.604C56.6783 196.604 55.3546 189.771 63.7004 190.917Z" fill="#EAA492"/>
<path d="M62.6199 204.092C62.6199 204.092 56.6059 205.968 55.5978 209.778C55.5978 209.778 54.2741 202.946 62.6199 204.092Z" fill="#EAA492"/>
<path d="M53.0571 198.997C52.6211 198.2 52.0167 197.506 51.2854 196.963C50.5541 196.421 49.7132 196.042 48.8208 195.853C45.6127 195.042 41.9701 196.649 41.0518 202.57C40.1336 208.492 41.7243 227.189 41.7243 227.189H53.0571V198.997Z" fill="url(#paint17_linear_1_2)"/>
<path d="M46.5833 192.963C46.5833 192.963 46.6848 182.974 48.9274 183.228C51.17 183.482 48.9274 194.228 48.9274 194.228C48.9274 194.228 52.3935 188.089 53.5653 188.725C54.737 189.361 51.302 196.459 49.4778 197.525C47.6535 198.59 45.8183 198.133 44.7985 194.33C43.7788 190.527 43.3713 188.093 44.5948 187.84C45.8183 187.586 46.5833 192.963 46.5833 192.963Z" fill="url(#paint18_linear_1_2)"/>
<path d="M33.6694 207.359C33.6694 207.359 34.8547 204.289 37.2907 203.949C39.0473 203.756 40.82 203.756 42.5765 203.949C41.8803 205.573 40.7823 206.994 39.3846 208.081C37.1213 209.788 34.6051 209.442 33.9235 209C33.2419 208.558 33.6694 207.359 33.6694 207.359Z" fill="url(#paint19_linear_1_2)"/>
<path d="M42.5779 226.449C44.7987 223.566 45.8518 219.96 45.5292 216.343C45.0481 210.128 41.2044 209.411 39.3168 209.855C37.4292 210.299 34.8891 211.357 32.7616 210.64C30.6341 209.924 28.1619 208.353 25.5539 209.991C22.9459 211.63 22.3044 215.5 22.6711 218.869C23.0377 222.237 25.5086 226.449 27.0185 227.559L42.5779 226.449Z" fill="url(#paint20_linear_1_2)"/>
<path opacity="0.3" d="M25.5538 209.991C26.0875 209.653 26.6845 209.427 27.3087 209.325C27.933 209.224 28.5714 209.249 29.1855 209.4C27.9025 210.446 29.697 213.429 29.168 214.18C28.5278 215.09 27.1084 212.996 27.4867 215.044C27.865 217.093 28.253 217.959 27.0929 218.004C25.9328 218.049 26.5141 219.915 28.0105 223.376C29.1273 225.959 32.1802 226.816 33.6559 227.085L27.0179 227.559C25.508 226.449 23.0364 222.238 22.6704 218.869C22.3044 215.5 22.9452 211.63 25.5538 209.991Z" fill="url(#paint21_linear_1_2)"/>
<path d="M25.537 218.902H25.5739C25.6644 218.892 25.7472 218.847 25.8043 218.776C25.8614 218.706 25.888 218.615 25.8784 218.525C25.639 216.919 25.8263 215.277 26.4217 213.765C26.4574 213.684 26.4599 213.592 26.4288 213.509C26.3976 213.426 26.3353 213.358 26.2549 213.32C26.1744 213.282 26.0822 213.276 25.9978 213.304C25.9133 213.332 25.8432 213.392 25.8022 213.471C25.1524 215.098 24.9434 216.866 25.1962 218.599C25.2058 218.682 25.2457 218.759 25.3086 218.815C25.3714 218.871 25.4527 218.902 25.537 218.902V218.902Z" fill="white"/>
<path d="M37.5022 226.812C37.9762 226.32 38.1883 225.409 39.0542 225.608C40.2434 225.882 39.1913 224.652 39.8302 223.605C40.4691 222.558 41.2483 223.878 42.3923 223.104C43.5362 222.33 40.517 219.144 41.4773 218.562C42.4376 217.98 42.53 220.556 43.7192 219.598C44.5528 218.929 44.567 214.817 44.5004 212.415C45.1125 213.64 45.4622 214.977 45.5273 216.343C45.8497 219.961 44.7963 223.567 42.5753 226.45L37.5022 226.812Z" fill="#C7283A"/>
<path d="M27.0935 212.759C27.1583 212.76 27.2219 212.741 27.2766 212.707C27.4925 212.559 27.749 212.48 28.0112 212.482C28.0575 212.484 28.1036 212.477 28.147 212.461C28.1904 212.444 28.2301 212.42 28.2635 212.388C28.297 212.356 28.3236 212.317 28.3418 212.275C28.36 212.233 28.3694 212.187 28.3694 212.141C28.3694 212.095 28.36 212.049 28.3418 212.007C28.3236 211.964 28.297 211.926 28.2635 211.894C28.2301 211.862 28.1904 211.837 28.147 211.821C28.1036 211.805 28.0575 211.798 28.0112 211.8C27.6198 211.798 27.2369 211.913 26.9118 212.13C26.8488 212.169 26.8005 212.228 26.7741 212.297C26.7477 212.367 26.7446 212.442 26.7654 212.514C26.7861 212.585 26.8294 212.647 26.889 212.692C26.9485 212.736 27.021 212.76 27.0955 212.76L27.0935 212.759Z" fill="white"/>
<path d="M33.6766 211.015C34.6983 210.967 35.7121 210.813 36.7016 210.555C38.2536 210.137 38.5731 211.015 35.9644 211.698C33.3558 212.381 31.8516 212.108 30.513 211.34C29.1744 210.572 29.5353 210.23 30.376 210.182C31.2167 210.133 32.2099 211.159 33.6766 211.015Z" fill="#C7283A"/>
<path d="M33.3914 211.445C33.3914 211.445 33.6656 211.764 33.8829 211.445C34.0131 210.27 33.9822 209.083 33.7911 207.917C33.6734 207.17 33.4147 206.453 33.0286 205.802C32.9868 205.735 32.9316 205.678 32.8664 205.633C32.8012 205.589 32.7273 205.559 32.6496 205.544C32.5719 205.529 32.492 205.531 32.415 205.549C32.338 205.567 32.2656 205.6 32.2022 205.647L32.1841 205.661C32.1235 205.705 32.0725 205.761 32.034 205.826C31.9954 205.89 31.9701 205.962 31.9596 206.036C31.949 206.11 31.9533 206.186 31.9723 206.259C31.9913 206.331 32.0246 206.399 32.0703 206.459C32.4883 207.027 32.809 207.66 33.0195 208.332C33.3404 209.337 33.4666 210.393 33.3914 211.445V211.445Z" fill="url(#paint22_linear_1_2)"/>
<path d="M22.8999 217.361C22.954 216.634 23.127 215.92 23.412 215.248C23.7806 214.686 23.6985 214.424 23.4347 213.847C23.3076 213.583 23.156 213.33 22.9819 213.094C22.9396 213.035 22.8849 212.986 22.8217 212.951C22.7585 212.915 22.6882 212.894 22.6158 212.888C22.5435 212.883 22.4706 212.893 22.4025 212.918C22.3344 212.943 22.2726 212.982 22.2215 213.033L22.0068 213.247C21.8428 213.412 21.7192 213.611 21.6456 213.831C21.572 214.051 21.5505 214.285 21.5826 214.514C21.6557 214.901 21.6438 215.298 21.548 215.679C21.4521 216.06 21.2744 216.416 21.0271 216.723C19.9925 217.87 18.5246 218.842 18.4735 221.765C18.4224 224.688 19.9724 228.262 22.2396 231.116C24.5068 233.97 29.9064 237.364 33.9837 237.42C38.0609 237.477 38.877 236.954 39.534 236.29C40.191 235.626 40.6332 235.229 41.095 235.221C41.095 235.221 41.9136 234.633 41.6886 234.069C41.5982 233.835 41.459 233.622 41.2802 233.445C41.1013 233.267 40.8868 233.129 40.6507 233.04C40.2145 232.906 39.8032 232.701 39.4331 232.435C38.8905 232.053 35.6578 231.474 33.4436 230.8C31.2295 230.126 29.1033 229.269 28.0434 226.717C26.9835 224.164 25.6831 220.422 24.7817 219.131C24.3013 218.404 23.657 217.797 22.8999 217.361Z" fill="#FED300"/>
<path opacity="0.3" d="M25.3637 222.52C25.731 226.246 26.2943 227.708 27.4331 228.884C28.5718 230.06 28.0428 228.742 28.6572 228.85C29.2715 228.958 28.5149 230.295 29.3445 231.087C30.1742 231.879 29.8037 230.306 30.5667 230.418C31.3298 230.529 34.0064 233.129 35.0844 232.54C35.6492 232.195 36.2481 231.908 36.8717 231.684C35.762 231.419 34.4894 231.122 33.4444 230.803C31.2303 230.129 29.1034 229.272 28.0435 226.719C26.9836 224.167 25.6832 220.424 24.7818 219.134C24.3019 218.407 23.6582 217.801 22.9018 217.364C22.9018 217.364 24.9932 218.793 25.3637 222.52Z" fill="white"/>
<path d="M39.5321 236.289C40.1897 235.624 40.6314 235.227 41.0931 235.22C41.3727 235.02 41.5867 234.742 41.7081 234.421V234.421C41.5116 234.58 41.2725 234.678 41.0207 234.703C40.7688 234.727 40.5152 234.678 40.2912 234.561C39.9679 234.336 39.964 235.1 38.9333 235.493C37.9025 235.886 36.3421 234.518 34.3762 235.252C32.4104 235.987 32.4453 235.384 33.0073 234.432C33.5692 233.48 28.7109 233.107 26.4902 232.459C24.2696 231.811 24.071 228.313 21.1061 225.243C18.1411 222.172 19.5832 219.053 20.7879 218.274C21.3413 217.964 21.7901 217.498 22.0778 216.934C22.3655 216.371 22.4791 215.735 22.4045 215.107C22.3833 214.957 22.3936 214.803 22.4346 214.657C22.4756 214.51 22.5465 214.374 22.6429 214.256C22.7394 214.138 22.8592 214.041 22.995 213.971C23.1308 213.901 23.2796 213.86 23.4322 213.85V213.85C23.3051 213.585 23.1535 213.333 22.9794 213.096C22.9371 213.038 22.8824 212.989 22.8192 212.954C22.756 212.918 22.6857 212.897 22.6133 212.891C22.541 212.885 22.4681 212.895 22.4 212.92C22.3319 212.945 22.2701 212.985 22.219 213.036L22.0043 213.25C21.8403 213.414 21.7167 213.614 21.6431 213.834C21.5695 214.054 21.548 214.287 21.5801 214.517C21.6532 214.903 21.6413 215.3 21.5455 215.682C21.4496 216.063 21.2719 216.419 21.0246 216.725C19.99 217.872 18.5221 218.844 18.471 221.768C18.4199 224.691 19.9699 228.265 22.2365 231.119C24.503 233.972 29.9032 237.366 33.9804 237.423C38.0576 237.48 38.8744 236.953 39.5321 236.289Z" fill="#EAAD03"/>
<path d="M23.6106 214.864C23.6543 214.691 23.6612 214.512 23.6309 214.337C23.6006 214.162 23.5338 213.995 23.4347 213.847C23.3076 213.583 23.1561 213.331 22.9821 213.094C22.9236 213.012 22.8413 212.949 22.7462 212.915C22.6511 212.88 22.5478 212.876 22.4499 212.901C22.0522 213.4 22.6057 214.169 23.083 214.586C23.2193 214.739 23.4067 214.838 23.6106 214.864V214.864Z" fill="#1D164D"/>
<path d="M41.6842 234.068C41.6191 233.903 41.5305 233.748 41.421 233.608C41.2161 233.829 41.0864 234.108 41.0505 234.406L41.0906 235.22C41.0906 235.22 41.9118 234.632 41.6842 234.068Z" fill="#1D164D"/>
<path d="M16.873 215.677C16.9269 214.949 17.0999 214.236 17.3852 213.564C17.7538 213.002 17.6717 212.74 17.4078 212.164C17.2804 211.899 17.1288 211.647 16.9551 211.41C16.9127 211.351 16.8579 211.302 16.7947 211.267C16.7315 211.231 16.6613 211.21 16.5889 211.204C16.5166 211.199 16.4439 211.209 16.3758 211.234C16.3077 211.259 16.2459 211.298 16.1946 211.349L15.98 211.563C15.816 211.727 15.6924 211.927 15.6189 212.147C15.5455 212.367 15.5241 212.601 15.5564 212.831C15.6295 213.217 15.6176 213.614 15.5218 213.995C15.4259 214.376 15.2482 214.732 15.0009 215.038C13.9663 216.185 12.4984 217.161 12.4473 220.081C12.3962 223.001 13.9462 226.579 16.2128 229.432C18.4793 232.285 23.8796 235.68 27.9568 235.736C32.034 235.793 32.8495 235.27 33.5078 234.606C34.1661 233.942 34.607 233.544 35.0688 233.537C35.0688 233.537 35.8875 232.949 35.6625 232.386C35.572 232.151 35.4327 231.938 35.2539 231.761C35.075 231.584 34.8606 231.446 34.6245 231.357C34.1881 231.222 33.7767 231.018 33.4062 230.752C32.8643 230.37 29.6317 229.791 27.4175 229.117C25.2033 228.443 23.0771 227.586 22.0166 225.033C20.956 222.481 19.6569 218.738 18.7555 217.448C18.275 216.72 17.6305 216.113 16.873 215.677V215.677Z" fill="#FED300"/>
<path opacity="0.3" d="M19.3368 220.835C19.7041 224.561 20.2667 226.024 21.4062 227.2C22.5456 228.376 22.0166 227.058 22.6309 227.166C23.2452 227.273 22.4887 228.611 23.3184 229.404C24.148 230.196 23.7768 228.622 24.5405 228.733C25.3042 228.845 27.9801 231.445 29.0581 230.856C29.6229 230.511 30.2218 230.223 30.8454 229.999C29.7358 229.735 28.4632 229.437 27.4182 229.119C25.2047 228.444 23.0784 227.588 22.0172 225.035C20.9561 222.482 19.6576 218.74 18.7561 217.449C18.2763 216.722 17.6326 216.116 16.8763 215.679C16.8763 215.679 18.9689 217.109 19.3368 220.835Z" fill="white"/>
<path d="M33.5051 234.605C34.1628 233.941 34.6044 233.543 35.0661 233.536C35.3455 233.336 35.5594 233.058 35.6811 232.738C35.4846 232.896 35.2454 232.994 34.9934 233.019C34.7415 233.044 34.4877 232.995 34.2637 232.877C33.9436 232.652 33.9371 233.416 32.9095 233.809C31.882 234.202 30.3177 232.835 28.3525 233.569C26.3873 234.303 26.4215 233.701 26.9835 232.749C27.5454 231.797 22.6864 231.423 20.4664 230.776C18.2464 230.128 18.0473 226.629 15.0824 223.559C12.1174 220.489 13.5594 217.37 14.7642 216.59C15.3175 216.28 15.7663 215.814 16.054 215.25C16.3416 214.687 16.4553 214.051 16.3808 213.424C16.3595 213.273 16.3697 213.12 16.4107 212.973C16.4516 212.827 16.5226 212.69 16.619 212.572C16.7154 212.454 16.8353 212.357 16.9711 212.287C17.107 212.217 17.2559 212.176 17.4085 212.165V212.165C17.281 211.901 17.1294 211.649 16.9557 211.412C16.9133 211.353 16.8586 211.304 16.7953 211.269C16.7321 211.233 16.6619 211.212 16.5895 211.206C16.5172 211.201 16.4445 211.211 16.3764 211.236C16.3083 211.261 16.2465 211.3 16.1953 211.351L15.9806 211.565C15.8166 211.729 15.6929 211.929 15.6195 212.149C15.546 212.369 15.5247 212.603 15.557 212.833C15.6301 213.219 15.6183 213.616 15.5224 213.997C15.4265 214.378 15.2488 214.734 15.0015 215.04C13.9669 216.187 12.499 217.163 12.4479 220.083C12.3968 223.003 13.9469 226.581 16.2134 229.434C18.48 232.287 23.8802 235.681 27.9574 235.738C32.0346 235.795 32.8468 235.269 33.5051 234.605Z" fill="#EAAD03"/>
<path d="M17.5831 213.179C17.6268 213.007 17.6337 212.827 17.6034 212.652C17.5731 212.477 17.5063 212.31 17.4072 212.162C17.2798 211.898 17.1283 211.645 16.9546 211.408C16.896 211.326 16.8138 211.264 16.7187 211.229C16.6236 211.195 16.5203 211.19 16.4224 211.215C16.0247 211.714 16.5776 212.483 17.0554 212.901C17.1919 213.054 17.3792 213.153 17.5831 213.179V213.179Z" fill="#1D164D"/>
<path d="M35.6599 232.385C35.5947 232.22 35.5061 232.066 35.3967 231.926C35.1916 232.146 35.0619 232.426 35.0262 232.724L35.0662 233.537C35.0662 233.537 35.8849 232.948 35.6599 232.385Z" fill="#1D164D"/>
<path d="M11.0014 213.176C11.0555 212.449 11.2287 211.735 11.5142 211.064C11.8828 210.502 11.8006 210.24 11.5368 209.663C11.4094 209.399 11.2578 209.146 11.0841 208.909C11.0417 208.851 10.9869 208.802 10.9237 208.766C10.8605 208.731 10.7902 208.71 10.7179 208.704C10.6456 208.698 10.5729 208.708 10.5048 208.733C10.4367 208.758 10.3749 208.798 10.3236 208.849L10.109 209.062C9.94494 209.227 9.82131 209.427 9.74783 209.647C9.67436 209.867 9.65302 210.101 9.68539 210.33C9.7585 210.716 9.74671 211.114 9.65082 211.495C9.55493 211.876 9.37722 212.232 9.12991 212.538C8.09525 213.685 6.62734 214.661 6.57625 217.581C6.52517 220.501 8.07521 224.078 10.3418 226.931C12.6083 229.784 18.0086 233.179 22.0858 233.236C26.163 233.292 26.9784 232.769 27.6361 232.105C28.2938 231.441 28.7354 231.044 29.1971 231.037C29.1971 231.037 30.0158 230.448 29.7907 229.885C29.7002 229.651 29.5611 229.438 29.3822 229.26C29.2034 229.083 28.9889 228.945 28.7528 228.856C28.3165 228.722 27.905 228.517 27.5345 228.251C26.9926 227.869 23.76 227.291 21.5458 226.617C19.3316 225.943 17.2054 225.086 16.1449 222.533C15.0844 219.98 13.7853 216.238 12.8838 214.947C12.4034 214.219 11.7588 213.613 11.0014 213.176V213.176Z" fill="#FED300"/>
<path opacity="0.3" d="M13.4658 218.335C13.8331 222.061 14.3957 223.523 15.5351 224.699C16.6745 225.874 16.1456 224.557 16.7599 224.664C17.3742 224.772 16.6176 226.11 17.4473 226.902C18.277 227.695 17.9058 226.121 18.6695 226.232C19.4332 226.343 22.1091 228.944 23.1871 228.355C23.7518 228.009 24.3508 227.722 24.9745 227.498C23.8648 227.234 22.5921 226.936 21.5471 226.617C19.3336 225.943 17.2067 225.086 16.1462 222.534C15.0856 219.981 13.7865 216.238 12.8851 214.948C12.4049 214.221 11.7608 213.615 11.004 213.178C11.004 213.178 13.0979 214.61 13.4658 218.335Z" fill="white"/>
<path d="M27.6341 232.107C28.2918 231.443 28.7334 231.045 29.1951 231.038C29.4746 230.838 29.6884 230.56 29.8095 230.239V230.239C29.613 230.398 29.374 230.496 29.1221 230.52C28.8703 230.545 28.6166 230.496 28.3926 230.379C28.0725 230.154 28.0654 230.918 27.0385 231.311C26.0116 231.704 24.4474 230.336 22.4815 231.07C20.5157 231.805 20.5506 231.202 21.1126 230.25C21.6745 229.298 16.8148 228.925 14.5955 228.277C12.3762 227.629 12.1763 224.13 9.21073 221.061C6.24514 217.991 7.68851 214.871 8.89324 214.092C9.44658 213.781 9.89528 213.315 10.1829 212.752C10.4706 212.188 10.5844 211.553 10.5099 210.925C10.4886 210.775 10.4987 210.621 10.5397 210.475C10.5806 210.328 10.6515 210.191 10.748 210.073C10.8444 209.955 10.9643 209.858 11.1001 209.788C11.236 209.718 11.3848 209.677 11.5374 209.667V209.667C11.41 209.402 11.2585 209.15 11.0847 208.913C11.0423 208.854 10.9876 208.806 10.9244 208.77C10.8612 208.735 10.791 208.714 10.7186 208.708C10.6463 208.702 10.5735 208.712 10.5054 208.737C10.4373 208.762 10.3756 208.801 10.3243 208.853L10.1096 209.066C9.94557 209.231 9.82201 209.431 9.74854 209.651C9.67506 209.871 9.65364 210.105 9.68602 210.334C9.75909 210.72 9.74725 211.117 9.65137 211.499C9.55548 211.88 9.37781 212.236 9.13053 212.542C8.09587 213.689 6.62797 214.665 6.57688 217.585C6.52579 220.505 8.07584 224.082 10.3424 226.935C12.6089 229.788 18.0092 233.183 22.0864 233.24C26.1636 233.296 26.9758 232.769 27.6341 232.107Z" fill="#EAAD03"/>
<path d="M11.7121 210.68C11.7557 210.507 11.7626 210.328 11.7322 210.152C11.7018 209.977 11.6348 209.81 11.5356 209.663C11.4081 209.398 11.2566 209.146 11.0829 208.909C11.0244 208.827 10.9421 208.764 10.8471 208.73C10.752 208.695 10.6486 208.69 10.5507 208.716C10.153 209.214 10.7059 209.984 11.1838 210.401C11.3203 210.554 11.5079 210.653 11.7121 210.68Z" fill="#1D164D"/>
<path d="M29.7888 229.884C29.7239 229.719 29.6355 229.565 29.5263 229.425C29.3213 229.645 29.1916 229.924 29.1558 230.223L29.1959 231.036C29.1959 231.036 30.0139 230.448 29.7888 229.884Z" fill="#1D164D"/>
<path d="M65.3074 222.71H-4.4377V288.339H65.3074V222.71Z" fill="url(#paint23_linear_1_2)"/>
<path d="M14.2172 222.71H-4.4377V288.339H14.2172V222.71Z" fill="url(#paint24_linear_1_2)"/>
<path d="M37.2241 288.341L39.1641 284.302C40.0427 282.475 41.423 280.932 43.1456 279.852C44.8682 278.773 46.8628 278.199 48.899 278.199H217.308C219.345 278.199 221.339 278.772 223.062 279.852C224.785 280.932 226.165 282.475 227.043 284.302L228.983 288.341H37.2241Z" fill="url(#paint25_linear_1_2)"/>
<path d="M213.409 278.198H216.467C216.465 276.33 215.717 274.538 214.389 273.217C213.061 271.895 211.26 271.152 209.382 271.15H190.741V274.192H209.382C210.449 274.193 211.473 274.616 212.228 275.367C212.983 276.118 213.408 277.136 213.409 278.198V278.198Z" fill="#1D164D"/>
<path d="M146.098 278.198H149.156C149.157 277.136 149.582 276.118 150.337 275.367C151.091 274.616 152.115 274.194 153.182 274.193H171.822V271.15H153.182C151.303 271.152 149.503 271.896 148.175 273.217C146.847 274.538 146.1 276.33 146.098 278.198Z" fill="#1D164D"/>
<path d="M182.811 269.375H179.753V278.198H182.811V269.375Z" fill="#1D164D"/>
<path d="M118.991 278.198H122.049C122.047 276.33 121.3 274.538 119.971 273.217C118.643 271.895 116.842 271.152 114.964 271.15H96.3232V274.192H114.964C116.032 274.193 117.055 274.616 117.81 275.367C118.565 276.118 118.99 277.136 118.991 278.198V278.198Z" fill="#1D164D"/>
<path d="M51.6802 278.198H54.7382C54.7394 277.136 55.1641 276.118 55.9188 275.367C56.6736 274.616 57.697 274.194 58.7644 274.193H77.405V271.15H58.7644C56.8861 271.152 55.0854 271.896 53.7574 273.217C52.4293 274.538 51.6822 276.33 51.6802 278.198V278.198Z" fill="#1D164D"/>
<path d="M88.3938 269.375H85.3358V278.198H88.3938V269.375Z" fill="#1D164D"/>
<path d="M263.153 189.287C264.349 189.287 265.319 188.322 265.319 187.132C265.319 185.942 264.349 184.977 263.153 184.977C261.957 184.977 260.987 185.942 260.987 187.132C260.987 188.322 261.957 189.287 263.153 189.287Z" fill="url(#paint26_linear_1_2)"/>
<path d="M281.706 187.132H244.6C243.699 187.132 242.969 187.859 242.969 188.755C242.969 189.651 243.699 190.377 244.6 190.377H281.706C282.607 190.377 283.337 189.651 283.337 188.755C283.337 187.859 282.607 187.132 281.706 187.132Z" fill="url(#paint27_linear_1_2)"/>
<path opacity="0.5" d="M244.601 190.377L249.8 256.09H276.507L281.706 190.377H244.601Z" fill="url(#paint28_linear_1_2)"/>
<path d="M250.067 256.09H276.24C276.781 256.09 277.316 256.196 277.815 256.402C278.315 256.608 278.768 256.91 279.15 257.29C279.533 257.67 279.836 258.121 280.042 258.618C280.249 259.115 280.356 259.647 280.356 260.185V286.273C280.356 286.544 280.302 286.813 280.198 287.064C280.093 287.314 279.94 287.542 279.748 287.734C279.555 287.926 279.326 288.078 279.074 288.182C278.822 288.286 278.552 288.339 278.279 288.339H273.933L272.402 286.294C272.118 285.914 271.748 285.606 271.322 285.393C270.897 285.181 270.427 285.071 269.951 285.071H256.355C255.879 285.071 255.41 285.181 254.984 285.393C254.559 285.606 254.189 285.914 253.904 286.294L252.374 288.339H248.028C247.477 288.339 246.948 288.122 246.559 287.734C246.169 287.347 245.951 286.821 245.951 286.273V260.185C245.951 259.099 246.384 258.058 247.156 257.29C247.928 256.522 248.975 256.09 250.067 256.09Z" fill="url(#paint29_linear_1_2)"/>
<path d="M263.153 275.105C267.207 275.105 270.493 271.836 270.493 267.803C270.493 263.771 267.207 260.502 263.153 260.502C259.099 260.502 255.813 263.771 255.813 267.803C255.813 271.836 259.099 275.105 263.153 275.105Z" fill="url(#paint30_linear_1_2)"/>
<path d="M265.775 271.703C266.133 272.059 266.714 272.059 267.073 271.703C267.431 271.347 267.431 270.769 267.073 270.412L260.531 263.904C260.173 263.548 259.592 263.548 259.234 263.904C258.875 264.261 258.875 264.839 259.234 265.195L265.775 271.703Z" fill="url(#paint31_linear_1_2)"/>
<path d="M281.031 198.896H284.253C285.096 198.896 285.932 199.061 286.711 199.382C287.49 199.703 288.198 200.173 288.794 200.767C289.391 201.36 289.864 202.064 290.187 202.839C290.51 203.614 290.676 204.445 290.676 205.284V229.279C290.676 230.497 290.435 231.702 289.966 232.827C289.498 233.952 288.811 234.974 287.946 235.835L277.087 246.641L277.398 237.939L281.408 233.95C282.531 232.833 283.423 231.505 284.031 230.045C284.639 228.584 284.952 227.019 284.952 225.438V208.371C284.952 208.152 284.909 207.935 284.825 207.733C284.741 207.53 284.617 207.347 284.462 207.192C284.306 207.037 284.121 206.914 283.918 206.83C283.715 206.747 283.497 206.703 283.277 206.703H279.868L281.031 198.896Z" fill="url(#paint32_linear_1_2)"/>
<path d="M245.046 196.005L244.601 190.377H281.706L281.261 196.005H245.046Z" fill="url(#paint33_linear_1_2)"/>
<path d="M259.213 249.206V250.381L262.003 252.098V246.705H263.227V252.098L266.017 250.381V249.206H267.241V250.831L262.615 253.677L257.989 250.831V249.206H259.213Z" fill="#272256"/>
<path d="M276.759 252.896L276.507 256.091H249.799L249.547 252.896H276.759Z" fill="#C9E2F4"/>
<path d="M262.865 236.456C261.655 240.615 263.734 241.96 266.396 242.019C269.058 242.077 271.706 240.882 272.649 239.297C272.908 238.843 273.008 238.315 272.93 237.799C272.853 237.282 272.604 236.806 272.222 236.447C271.599 236.753 270.555 235.952 270.083 234.826C269.61 233.7 268.283 233.618 268.322 233.209C268.362 232.801 269.117 232.695 269.117 232.695C268.5 232.04 267.743 231.53 266.903 231.202C265.832 230.916 264.075 232.3 262.865 236.456Z" fill="url(#paint34_linear_1_2)"/>
<path d="M266.935 241.511C267.718 241.656 268.265 241.652 267.858 240.739C267.45 239.827 267.447 239.146 267.777 238.898C268.108 238.651 267.927 239.213 268.915 239.246C269.64 239.269 268.804 240.562 271.19 239.746C273.033 239.116 272.224 236.449 272.224 236.449C272.606 236.808 272.855 237.284 272.932 237.801C273.009 238.317 272.91 238.845 272.65 239.298C271.707 240.883 269.06 242.078 266.397 242.02C266.299 242.02 266.203 242.014 266.104 242.009C266.379 241.737 266.54 241.439 266.935 241.511Z" fill="#C7283A"/>
<path opacity="0.3" d="M262.865 236.456C262.065 239.209 262.704 240.728 264 241.459C263.824 241.154 263.717 240.814 263.686 240.463C263.655 240.113 263.701 239.759 263.82 239.428C264.492 237.387 266.752 238.318 266.116 236.369C265.48 234.419 265.579 234.302 266.439 234.123C267.3 233.945 266.261 233.528 266.286 232.624C266.285 232.609 266.285 232.593 266.286 232.578C266.307 232.266 266.459 232.32 266.664 232.482C266.987 232.739 267.44 233.272 267.724 233.095C268.2 232.802 268.08 233.847 269.245 233.89C268.765 233.582 268.295 233.456 268.319 233.21C268.359 232.801 269.114 232.695 269.114 232.695C268.497 232.04 267.74 231.53 266.9 231.203C265.832 230.916 264.075 232.3 262.865 236.456Z" fill="url(#paint35_linear_1_2)"/>
<path d="M270.732 233.833C270.981 233.624 271.158 233.344 271.238 233.031C271.418 232.452 271.532 232.421 271.696 232.573C271.86 232.725 271.863 233.577 271.029 234.269C271.029 234.269 272.289 235.179 272.222 236.446C271.599 236.752 270.555 235.95 270.083 234.825C269.611 233.7 268.283 233.617 268.322 233.208C268.362 232.8 269.118 232.693 269.118 232.693C269.118 232.693 269.874 232.692 270.732 233.833Z" fill="url(#paint36_linear_1_2)"/>
<path d="M270.725 239.503C270.694 239.538 270.679 239.584 270.681 239.631C270.684 239.678 270.705 239.722 270.739 239.753C270.774 239.785 270.819 239.802 270.866 239.801C270.913 239.8 270.958 239.781 270.991 239.747C271.097 239.565 271.191 239.375 271.271 239.18C271.082 239.275 270.9 239.383 270.725 239.503V239.503Z" fill="#FBDA91"/>
<path d="M269.208 238.312C269.192 238.329 269.18 238.35 269.172 238.372C269.163 238.394 269.16 238.418 269.161 238.441C269.161 238.465 269.167 238.488 269.177 238.509C269.187 238.531 269.201 238.55 269.218 238.566C269.236 238.582 269.256 238.594 269.278 238.603C269.301 238.611 269.324 238.614 269.348 238.613C269.372 238.613 269.395 238.607 269.417 238.597C269.438 238.587 269.457 238.573 269.473 238.556C269.579 238.374 269.673 238.184 269.753 237.989C269.564 238.084 269.382 238.192 269.208 238.312Z" fill="#FBDA91"/>
<path d="M266.849 238.741C266.817 238.776 266.8 238.823 266.801 238.87C266.803 238.918 266.824 238.963 266.859 238.995C266.894 239.027 266.941 239.045 266.989 239.043C267.037 239.041 267.082 239.02 267.114 238.985C267.22 238.803 267.314 238.613 267.394 238.418C267.205 238.513 267.023 238.621 266.849 238.741V238.741Z" fill="#FBDA91"/>
<path d="M264.516 234.347C264.494 234.361 264.476 234.38 264.462 234.402C264.447 234.423 264.438 234.448 264.434 234.474C264.43 234.499 264.432 234.525 264.439 234.55C264.446 234.575 264.459 234.598 264.475 234.618C264.492 234.638 264.513 234.654 264.536 234.665C264.56 234.676 264.586 234.682 264.612 234.683C264.638 234.683 264.663 234.678 264.687 234.668C264.711 234.658 264.733 234.643 264.75 234.623C264.9 234.437 265.038 234.243 265.164 234.04C264.942 234.129 264.726 234.232 264.516 234.347V234.347Z" fill="#F9E2B2"/>
<path d="M265.543 236.725C265.527 236.742 265.514 236.763 265.506 236.785C265.498 236.807 265.494 236.831 265.495 236.854C265.496 236.878 265.502 236.901 265.512 236.923C265.522 236.944 265.536 236.963 265.553 236.979C265.571 236.995 265.591 237.008 265.614 237.016C265.636 237.024 265.66 237.028 265.683 237.027C265.707 237.026 265.73 237.02 265.752 237.01C265.773 237 265.793 236.986 265.809 236.969C265.915 236.787 266.008 236.597 266.088 236.402C265.899 236.497 265.717 236.605 265.543 236.725V236.725Z" fill="#F9E2B2"/>
<path d="M266.524 234.779C266.508 234.796 266.495 234.817 266.487 234.839C266.479 234.861 266.475 234.885 266.476 234.908C266.477 234.932 266.483 234.955 266.493 234.977C266.503 234.998 266.517 235.017 266.534 235.033C266.552 235.049 266.572 235.062 266.595 235.07C266.617 235.078 266.641 235.082 266.664 235.081C266.688 235.08 266.711 235.074 266.733 235.064C266.754 235.054 266.774 235.04 266.79 235.023C266.896 234.841 266.989 234.651 267.069 234.456C266.88 234.551 266.698 234.659 266.524 234.779V234.779Z" fill="#FBDA91"/>
<path d="M266.289 232.578C266.374 232.563 266.534 232.52 266.667 232.482C266.462 232.319 266.311 232.266 266.289 232.578Z" fill="#FBDA91"/>
<path d="M266.05 232.452C266.05 232.528 266.141 232.587 266.244 232.581C266.258 232.58 266.272 232.578 266.285 232.576C266.307 232.264 266.458 232.318 266.663 232.48C266.774 232.45 266.866 232.421 266.879 232.416C266.666 232.366 266.45 232.328 266.232 232.302C266.131 232.309 266.05 232.375 266.05 232.452Z" fill="#F9E2B2"/>
<path d="M266.426 240.55C266.395 240.586 266.38 240.631 266.382 240.678C266.385 240.725 266.405 240.769 266.44 240.801C266.475 240.833 266.52 240.85 266.567 240.849C266.614 240.847 266.659 240.828 266.692 240.795C266.798 240.612 266.892 240.423 266.972 240.227C266.783 240.322 266.601 240.43 266.426 240.55V240.55Z" fill="#FBDA91"/>
<path d="M269.249 233.889C269.256 233.889 269.534 233.776 270.219 234.414C270.904 235.052 271.124 235.707 271.468 235.751C271.662 235.776 271.753 235.409 271.798 235.079C272.087 235.476 272.237 235.957 272.226 236.447C271.602 236.753 270.558 235.951 270.086 234.826C269.912 234.435 269.619 234.107 269.249 233.889Z" fill="#6BBC61"/>
<path d="M255.756 214.696C259.178 215.357 260.108 213.61 259.963 211.493C259.818 209.376 258.67 207.36 257.33 206.725C256.948 206.552 256.517 206.511 256.108 206.609C255.699 206.708 255.336 206.94 255.075 207.269C255.365 207.742 254.798 208.628 253.929 209.083C253.06 209.539 253.088 210.598 252.759 210.597C252.43 210.595 252.289 210.003 252.289 210.003C251.808 210.54 251.453 211.177 251.251 211.868C251.099 212.739 252.333 214.034 255.756 214.696Z" fill="url(#paint37_linear_1_2)"/>
<path d="M259.518 211.102C259.577 210.47 259.534 210.036 258.83 210.426C258.126 210.815 257.581 210.866 257.359 210.619C257.136 210.371 257.601 210.478 257.553 209.691C257.521 209.112 258.617 209.685 257.792 207.85C257.154 206.434 255.076 207.267 255.076 207.267C255.336 206.938 255.7 206.705 256.109 206.607C256.518 206.508 256.948 206.55 257.33 206.724C258.67 207.359 259.818 209.374 259.963 211.492C259.968 211.57 259.972 211.648 259.974 211.725C259.738 211.527 259.487 211.421 259.518 211.102Z" fill="#C7283A"/>
<path opacity="0.3" d="M255.756 214.696C258.019 215.133 259.193 214.516 259.686 213.436C259.454 213.597 259.189 213.707 258.91 213.756C258.631 213.806 258.344 213.795 258.07 213.724C256.384 213.338 256.97 211.477 255.451 212.122C253.932 212.767 253.835 212.697 253.627 212.026C253.419 211.355 253.163 212.211 252.435 212.256C252.422 212.256 252.41 212.256 252.398 212.256C252.147 212.262 252.178 212.139 252.294 211.964C252.477 211.69 252.871 211.292 252.709 211.078C252.44 210.721 253.287 210.741 253.238 209.814C253.026 210.216 252.958 210.599 252.759 210.597C252.428 210.597 252.288 210.004 252.288 210.004C251.807 210.541 251.453 211.178 251.251 211.869C251.099 212.739 252.333 214.031 255.756 214.696Z" fill="url(#paint38_linear_1_2)"/>
<path d="M253.087 208.64C252.902 208.458 252.664 208.337 252.407 208.296C251.931 208.195 251.898 208.107 252.008 207.965C252.118 207.823 252.801 207.76 253.415 208.373C253.593 208.078 253.834 207.826 254.121 207.636C254.408 207.445 254.734 207.319 255.076 207.269C255.365 207.742 254.798 208.628 253.929 209.084C253.06 209.539 253.088 210.599 252.76 210.597C252.431 210.595 252.29 210.003 252.29 210.003C252.29 210.003 252.232 209.403 253.087 208.64Z" fill="url(#paint39_linear_1_2)"/>
<path d="M257.634 208.238C257.649 208.25 257.666 208.258 257.685 208.263C257.703 208.268 257.722 208.269 257.741 208.267C257.76 208.264 257.778 208.258 257.795 208.249C257.811 208.239 257.826 208.227 257.837 208.212C257.849 208.197 257.857 208.179 257.862 208.161C257.867 208.143 257.868 208.124 257.866 208.105C257.863 208.086 257.857 208.068 257.848 208.052C257.838 208.035 257.825 208.021 257.81 208.009C257.656 207.938 257.498 207.878 257.336 207.828C257.426 207.971 257.525 208.108 257.634 208.238V208.238Z" fill="#FBDA91"/>
<path d="M256.789 209.528C256.804 209.54 256.821 209.549 256.84 209.555C256.858 209.56 256.878 209.562 256.897 209.559C256.916 209.557 256.935 209.551 256.951 209.542C256.968 209.532 256.983 209.519 256.995 209.504C257.007 209.489 257.015 209.471 257.02 209.453C257.025 209.434 257.026 209.415 257.023 209.396C257.021 209.377 257.014 209.358 257.004 209.342C256.994 209.325 256.981 209.311 256.965 209.3C256.812 209.229 256.653 209.168 256.491 209.118C256.581 209.262 256.68 209.398 256.789 209.528V209.528Z" fill="#FBDA91"/>
<path d="M257.302 211.37C257.317 211.382 257.334 211.391 257.353 211.396C257.372 211.402 257.391 211.403 257.41 211.401C257.43 211.399 257.448 211.393 257.465 211.383C257.482 211.374 257.497 211.361 257.508 211.346C257.52 211.331 257.529 211.313 257.534 211.295C257.539 211.276 257.54 211.257 257.537 211.238C257.534 211.218 257.528 211.2 257.518 211.184C257.508 211.167 257.494 211.153 257.479 211.142C257.325 211.07 257.167 211.01 257.005 210.96C257.094 211.103 257.194 211.24 257.302 211.37V211.37Z" fill="#FBDA91"/>
<path d="M253.946 213.537C253.959 213.554 253.975 213.567 253.993 213.576C254.012 213.586 254.032 213.592 254.053 213.593C254.074 213.594 254.094 213.591 254.114 213.583C254.133 213.576 254.151 213.565 254.166 213.55C254.18 213.535 254.192 213.518 254.199 213.498C254.206 213.479 254.209 213.458 254.208 213.437C254.206 213.417 254.201 213.396 254.191 213.378C254.181 213.36 254.167 213.344 254.151 213.331C253.991 213.226 253.825 213.13 253.653 213.044C253.74 213.214 253.838 213.379 253.946 213.537V213.537Z" fill="#F9E2B2"/>
<path d="M255.779 212.552C255.794 212.564 255.812 212.572 255.83 212.577C255.848 212.582 255.868 212.583 255.886 212.581C255.905 212.578 255.924 212.572 255.94 212.563C255.957 212.553 255.971 212.541 255.983 212.526C255.994 212.511 256.003 212.493 256.008 212.475C256.012 212.457 256.014 212.438 256.011 212.419C256.009 212.4 256.003 212.382 255.993 212.366C255.983 212.349 255.971 212.335 255.956 212.323C255.802 212.252 255.643 212.191 255.481 212.142C255.571 212.285 255.671 212.422 255.779 212.552V212.552Z" fill="#F9E2B2"/>
<path d="M254.145 211.913C254.176 211.936 254.214 211.946 254.252 211.941C254.29 211.936 254.325 211.917 254.348 211.886C254.372 211.856 254.382 211.817 254.377 211.78C254.372 211.742 254.352 211.707 254.322 211.684C254.168 211.613 254.009 211.552 253.847 211.503C253.937 211.646 254.037 211.783 254.145 211.913V211.913Z" fill="#FBDA91"/>
<path d="M252.398 212.257C252.381 212.193 252.334 212.064 252.294 211.964C252.179 212.139 252.148 212.262 252.398 212.257Z" fill="#FBDA91"/>
<path d="M252.315 212.455C252.376 212.447 252.416 212.373 252.405 212.29C252.405 212.283 252.402 212.272 252.399 212.258C252.148 212.263 252.179 212.14 252.295 211.965C252.262 211.879 252.23 211.809 252.23 211.798C252.206 211.971 252.191 212.145 252.186 212.319C252.195 212.402 252.253 212.464 252.315 212.455Z" fill="#F9E2B2"/>
<path d="M258.784 211.574C258.799 211.585 258.816 211.594 258.834 211.599C258.853 211.604 258.872 211.605 258.891 211.602C258.91 211.6 258.928 211.594 258.944 211.584C258.961 211.575 258.975 211.562 258.987 211.547C258.999 211.532 259.007 211.515 259.012 211.497C259.017 211.478 259.018 211.459 259.016 211.44C259.013 211.422 259.007 211.404 258.997 211.387C258.988 211.371 258.975 211.356 258.96 211.345C258.806 211.274 258.648 211.213 258.485 211.163C258.576 211.307 258.675 211.444 258.784 211.574V211.574Z" fill="#FBDA91"/>
<path d="M253.238 209.813C253.238 209.808 253.127 209.595 253.589 209.008C254.051 208.42 254.559 208.196 254.572 207.92C254.578 207.767 254.276 207.719 254.009 207.708C254.307 207.449 254.681 207.295 255.076 207.269C255.365 207.742 254.798 208.629 253.929 209.084C253.628 209.249 253.386 209.504 253.238 209.813V209.813Z" fill="#6BBC61"/>
<path d="M252.107 241.692C253.762 243.331 254.934 242.705 255.647 241.473C256.361 240.242 256.478 238.695 255.971 237.845C255.823 237.607 255.599 237.424 255.335 237.327C255.07 237.23 254.781 237.224 254.513 237.311C254.496 237.681 253.849 237.963 253.194 237.894C252.54 237.825 252.16 238.425 251.977 238.301C251.794 238.178 251.938 237.797 251.938 237.797C251.469 237.917 251.033 238.139 250.661 238.449C250.251 238.876 250.452 240.054 252.107 241.692Z" fill="url(#paint40_linear_1_2)"/>
<path d="M255.546 241.087C255.817 240.759 255.956 240.501 255.417 240.456C254.878 240.411 254.557 240.238 254.526 240.019C254.495 239.8 254.713 240.03 254.984 239.576C255.182 239.242 255.577 239.967 255.806 238.64C255.984 237.615 254.513 237.307 254.513 237.307C254.781 237.221 255.07 237.227 255.335 237.324C255.599 237.422 255.823 237.604 255.971 237.843C256.477 238.692 256.359 240.24 255.647 241.471C255.621 241.516 255.594 241.561 255.566 241.605C255.51 241.409 255.411 241.257 255.546 241.087Z" fill="#C7283A"/>
<path opacity="0.3" d="M252.107 241.691C253.202 242.775 254.086 242.868 254.765 242.45C254.575 242.454 254.387 242.416 254.213 242.34C254.039 242.264 253.884 242.152 253.758 242.01C252.966 241.17 253.989 240.352 252.903 240.145C251.818 239.938 251.788 239.864 251.926 239.415C252.063 238.966 251.599 239.345 251.176 239.1C251.169 239.096 251.162 239.091 251.156 239.086C251.014 238.996 251.077 238.939 251.207 238.885C251.412 238.8 251.78 238.726 251.771 238.546C251.754 238.248 252.218 238.574 252.539 238.039C252.27 238.185 252.086 238.372 251.979 238.297C251.796 238.173 251.94 237.792 251.94 237.792C251.471 237.912 251.034 238.135 250.663 238.444C250.252 238.875 250.453 240.054 252.107 241.691Z" fill="url(#paint41_linear_1_2)"/>
<path d="M252.894 237.332C252.86 237.162 252.773 237.007 252.645 236.888C252.418 236.655 252.433 236.594 252.548 236.556C252.662 236.518 253.065 236.737 253.177 237.305C253.386 237.207 253.615 237.156 253.846 237.156C254.077 237.156 254.306 237.207 254.515 237.305C254.499 237.676 253.851 237.958 253.196 237.889C252.542 237.819 252.162 238.42 251.979 238.296C251.796 238.173 251.94 237.792 251.94 237.792C251.94 237.792 252.133 237.441 252.894 237.332Z" fill="url(#paint42_linear_1_2)"/>
<path d="M255.572 238.798C255.581 238.823 255.599 238.843 255.622 238.854C255.633 238.859 255.646 238.862 255.658 238.863C255.671 238.864 255.684 238.862 255.696 238.858C255.708 238.853 255.719 238.847 255.729 238.838C255.738 238.83 255.746 238.82 255.751 238.808C255.757 238.797 255.76 238.784 255.761 238.772C255.761 238.759 255.759 238.746 255.755 238.734C255.697 238.638 255.633 238.545 255.562 238.457C255.557 238.571 255.561 238.685 255.572 238.798V238.798Z" fill="#FBDA91"/>
<path d="M254.619 239.202C254.623 239.214 254.63 239.225 254.638 239.234C254.647 239.244 254.657 239.252 254.669 239.257C254.68 239.263 254.693 239.266 254.706 239.267C254.719 239.267 254.731 239.266 254.743 239.261C254.756 239.257 254.767 239.251 254.776 239.242C254.786 239.234 254.794 239.223 254.799 239.212C254.805 239.2 254.808 239.188 254.809 239.175C254.809 239.162 254.808 239.15 254.803 239.137C254.826 239.107 254.839 239.071 254.839 239.033C254.84 238.995 254.828 238.958 254.805 238.927C254.783 238.896 254.751 238.874 254.715 238.863C254.679 238.851 254.639 238.852 254.604 238.864C254.568 238.877 254.537 238.901 254.515 238.932C254.494 238.964 254.483 239.001 254.485 239.039C254.487 239.077 254.501 239.113 254.525 239.142C254.549 239.172 254.582 239.193 254.619 239.202V239.202Z" fill="#FBDA91"/>
<path d="M254.214 240.416C254.218 240.428 254.225 240.439 254.234 240.449C254.242 240.458 254.252 240.466 254.264 240.472C254.276 240.477 254.288 240.48 254.301 240.481C254.314 240.482 254.326 240.48 254.338 240.476C254.35 240.471 254.362 240.465 254.371 240.456C254.381 240.448 254.388 240.438 254.394 240.426C254.399 240.415 254.403 240.402 254.403 240.389C254.404 240.377 254.402 240.364 254.398 240.352C254.421 240.322 254.434 240.285 254.434 240.247C254.434 240.209 254.423 240.172 254.4 240.142C254.378 240.111 254.346 240.088 254.309 240.077C254.273 240.066 254.234 240.066 254.198 240.079C254.162 240.092 254.131 240.115 254.11 240.147C254.089 240.178 254.078 240.216 254.08 240.254C254.082 240.292 254.096 240.328 254.12 240.357C254.144 240.386 254.177 240.407 254.214 240.416V240.416Z" fill="#FBDA91"/>
<path d="M251.534 240.376C251.537 240.389 251.542 240.401 251.549 240.411C251.556 240.422 251.566 240.431 251.577 240.438C251.587 240.446 251.599 240.451 251.612 240.453C251.625 240.456 251.638 240.456 251.651 240.453C251.664 240.451 251.676 240.446 251.686 240.438C251.697 240.431 251.707 240.422 251.714 240.411C251.721 240.4 251.726 240.388 251.728 240.376C251.731 240.363 251.731 240.35 251.728 240.337C251.761 240.309 251.784 240.27 251.793 240.227C251.801 240.184 251.796 240.14 251.776 240.1C251.757 240.061 251.725 240.029 251.686 240.01C251.646 239.991 251.601 239.985 251.558 239.994C251.515 240.002 251.476 240.025 251.447 240.058C251.419 240.09 251.401 240.132 251.399 240.176C251.396 240.219 251.408 240.262 251.432 240.299C251.457 240.335 251.493 240.362 251.534 240.376Z" fill="#F9E2B2"/>
<path d="M252.923 240.508C252.928 240.52 252.934 240.532 252.943 240.541C252.951 240.551 252.962 240.558 252.973 240.564C252.985 240.569 252.997 240.573 253.01 240.573C253.023 240.574 253.035 240.572 253.048 240.568C253.06 240.564 253.071 240.557 253.08 240.549C253.09 240.54 253.097 240.53 253.103 240.518C253.109 240.507 253.112 240.494 253.112 240.482C253.113 240.469 253.111 240.456 253.107 240.444C253.049 240.348 252.984 240.255 252.914 240.167C252.909 240.281 252.912 240.395 252.923 240.508V240.508Z" fill="#F9E2B2"/>
<path d="M252.256 239.547C252.265 239.571 252.283 239.591 252.306 239.602C252.317 239.608 252.33 239.611 252.343 239.612C252.355 239.612 252.368 239.611 252.38 239.606C252.392 239.602 252.403 239.596 252.413 239.587C252.423 239.579 252.43 239.568 252.436 239.557C252.441 239.545 252.444 239.533 252.445 239.52C252.446 239.508 252.444 239.495 252.44 239.483C252.463 239.453 252.476 239.416 252.476 239.378C252.476 239.34 252.465 239.303 252.442 239.272C252.42 239.242 252.388 239.219 252.351 239.208C252.315 239.197 252.276 239.197 252.24 239.21C252.204 239.223 252.173 239.246 252.152 239.278C252.13 239.309 252.12 239.347 252.122 239.385C252.124 239.422 252.138 239.459 252.162 239.488C252.186 239.517 252.219 239.538 252.256 239.547V239.547Z" fill="#FBDA91"/>
<path d="M251.155 239.089C251.169 239.046 251.191 238.961 251.206 238.888C251.076 238.942 251.013 238.999 251.155 239.089Z" fill="#FBDA91"/>
<path d="M251.035 239.168C251.071 239.186 251.121 239.161 251.147 239.11C251.147 239.105 251.152 239.098 251.155 239.089C251.013 238.999 251.077 238.942 251.207 238.888C251.221 238.828 251.231 238.778 251.232 238.77C251.154 238.857 251.08 238.948 251.012 239.044C250.999 239.063 250.994 239.087 250.998 239.11C251.002 239.134 251.015 239.154 251.035 239.168V239.168Z" fill="#F9E2B2"/>
<path d="M254.958 241.08C254.962 241.092 254.969 241.103 254.977 241.113C254.986 241.122 254.996 241.13 255.008 241.136C255.019 241.141 255.032 241.144 255.044 241.145C255.057 241.146 255.07 241.144 255.082 241.14C255.094 241.136 255.105 241.129 255.115 241.12C255.124 241.112 255.132 241.102 255.137 241.09C255.143 241.079 255.146 241.066 255.147 241.053C255.148 241.041 255.146 241.028 255.142 241.016C255.083 240.919 255.019 240.827 254.948 240.739C254.944 240.853 254.947 240.967 254.958 241.08V241.08Z" fill="#FBDA91"/>
<path d="M252.539 238.043C252.539 238.039 252.558 237.88 253.036 237.725C253.514 237.571 253.881 237.635 253.99 237.485C254.055 237.402 253.901 237.264 253.757 237.157C254.02 237.124 254.286 237.178 254.515 237.31C254.499 237.68 253.851 237.963 253.196 237.893C252.967 237.874 252.737 237.926 252.539 238.043V238.043Z" fill="#6BBC61"/>
<path d="M268.008 216.281C267.48 218.543 268.632 219.205 270.059 219.161C271.487 219.116 272.871 218.401 273.33 217.525C273.456 217.274 273.494 216.989 273.438 216.714C273.382 216.439 273.234 216.192 273.02 216.01C272.696 216.192 272.114 215.792 271.827 215.203C271.54 214.613 270.828 214.607 270.838 214.388C270.848 214.168 271.249 214.089 271.249 214.089C270.9 213.756 270.48 213.505 270.021 213.353C269.438 213.229 268.536 214.022 268.008 216.281Z" fill="url(#paint43_linear_1_2)"/>
<path d="M270.334 218.873C270.757 218.928 271.051 218.911 270.806 218.432C270.561 217.953 270.54 217.589 270.71 217.448C270.88 217.306 270.798 217.612 271.329 217.602C271.717 217.594 271.307 218.309 272.563 217.805C273.533 217.416 273.02 216.01 273.02 216.01C273.235 216.192 273.382 216.439 273.438 216.714C273.495 216.989 273.456 217.274 273.33 217.524C272.871 218.401 271.487 219.115 270.059 219.16H269.902C270.043 219.01 270.119 218.846 270.334 218.873Z" fill="#C7283A"/>
<path opacity="0.3" d="M268.008 216.282C267.658 217.779 268.045 218.574 268.76 218.929C268.657 218.77 268.589 218.591 268.563 218.404C268.536 218.217 268.55 218.026 268.605 217.845C268.906 216.733 270.143 217.167 269.746 216.141C269.349 215.116 269.4 215.048 269.856 214.929C270.312 214.811 269.743 214.616 269.73 214.13C269.73 214.122 269.73 214.114 269.73 214.105C269.73 213.938 269.815 213.962 269.93 214.041C270.109 214.17 270.367 214.442 270.515 214.339C270.762 214.168 270.727 214.732 271.356 214.722C271.09 214.57 270.835 214.516 270.839 214.384C270.848 214.164 271.25 214.085 271.25 214.085C270.9 213.752 270.481 213.501 270.021 213.349C269.435 213.229 268.536 214.022 268.008 216.282Z" fill="url(#paint44_linear_1_2)"/>
<path d="M272.146 214.652C272.274 214.534 272.36 214.378 272.394 214.208C272.474 213.894 272.534 213.874 272.627 213.951C272.719 214.028 272.745 214.484 272.317 214.877C272.511 215.003 272.675 215.17 272.796 215.365C272.918 215.561 272.994 215.781 273.02 216.01C272.696 216.191 272.114 215.791 271.827 215.202C271.54 214.613 270.829 214.606 270.838 214.387C270.847 214.168 271.249 214.089 271.249 214.089C271.249 214.089 271.654 214.065 272.146 214.652Z" fill="url(#paint45_linear_1_2)"/>
<path d="M272.307 217.69C272.299 217.7 272.293 217.711 272.289 217.723C272.285 217.735 272.284 217.748 272.285 217.76C272.286 217.773 272.29 217.785 272.296 217.797C272.302 217.808 272.31 217.818 272.32 217.826C272.33 217.834 272.341 217.84 272.353 217.844C272.365 217.848 272.378 217.849 272.391 217.848C272.403 217.847 272.416 217.843 272.427 217.837C272.438 217.831 272.448 217.823 272.457 217.813C272.508 217.713 272.553 217.609 272.59 217.502C272.491 217.558 272.397 217.621 272.307 217.69Z" fill="#FBDA91"/>
<path d="M271.459 217.095C271.442 217.115 271.434 217.14 271.437 217.166C271.439 217.191 271.452 217.215 271.472 217.231C271.492 217.247 271.517 217.255 271.543 217.253C271.569 217.251 271.592 217.238 271.609 217.218C271.66 217.118 271.705 217.014 271.742 216.907C271.643 216.963 271.549 217.026 271.459 217.095V217.095Z" fill="#FBDA91"/>
<path d="M270.207 217.392C270.199 217.402 270.193 217.413 270.19 217.425C270.186 217.437 270.185 217.45 270.186 217.463C270.187 217.475 270.191 217.488 270.197 217.499C270.203 217.51 270.211 217.52 270.221 217.528C270.231 217.536 270.242 217.542 270.254 217.546C270.266 217.55 270.279 217.551 270.292 217.55C270.305 217.548 270.317 217.545 270.328 217.539C270.339 217.533 270.349 217.525 270.358 217.515C270.409 217.414 270.453 217.31 270.491 217.203C270.392 217.26 270.297 217.323 270.207 217.392V217.392Z" fill="#FBDA91"/>
<path d="M268.832 215.104C268.82 215.112 268.811 215.123 268.803 215.135C268.796 215.147 268.792 215.16 268.79 215.174C268.789 215.188 268.79 215.203 268.795 215.216C268.799 215.229 268.807 215.241 268.816 215.252C268.826 215.262 268.838 215.27 268.851 215.275C268.864 215.281 268.878 215.283 268.892 215.282C268.906 215.282 268.92 215.278 268.933 215.272C268.945 215.265 268.956 215.256 268.965 215.245C269.04 215.142 269.109 215.035 269.17 214.924C269.054 214.977 268.941 215.037 268.832 215.104V215.104Z" fill="#F9E2B2"/>
<path d="M269.45 216.349C269.442 216.359 269.436 216.37 269.432 216.382C269.429 216.394 269.427 216.407 269.429 216.42C269.43 216.432 269.433 216.445 269.439 216.456C269.445 216.467 269.454 216.477 269.463 216.485C269.473 216.493 269.485 216.499 269.497 216.503C269.509 216.507 269.522 216.508 269.535 216.507C269.547 216.505 269.56 216.502 269.571 216.496C269.582 216.49 269.592 216.482 269.6 216.472C269.652 216.371 269.696 216.267 269.733 216.161C269.635 216.217 269.54 216.28 269.45 216.349V216.349Z" fill="#F9E2B2"/>
<path d="M269.92 215.278C269.903 215.298 269.895 215.323 269.898 215.349C269.9 215.374 269.913 215.398 269.932 215.414C269.952 215.43 269.978 215.438 270.003 215.436C270.029 215.434 270.053 215.421 270.069 215.402C270.121 215.301 270.165 215.197 270.203 215.09C270.104 215.146 270.01 215.209 269.92 215.278V215.278Z" fill="#FBDA91"/>
<path d="M269.731 214.106C269.776 214.096 269.86 214.068 269.93 214.042C269.816 213.962 269.734 213.939 269.731 214.106Z" fill="#FBDA91"/>
<path d="M269.6 214.046C269.604 214.087 269.652 214.116 269.708 214.11C269.716 214.109 269.723 214.108 269.73 214.106C269.73 213.939 269.815 213.962 269.93 214.042C269.988 214.022 270.037 214.004 270.044 214.002C269.928 213.981 269.812 213.967 269.695 213.96C269.638 213.967 269.596 214.004 269.6 214.046Z" fill="#F9E2B2"/>
<path d="M270.034 218.373C270.026 218.383 270.02 218.394 270.016 218.406C270.012 218.418 270.011 218.431 270.012 218.444C270.015 218.469 270.027 218.493 270.047 218.509C270.067 218.525 270.092 218.533 270.118 218.531C270.143 218.529 270.167 218.516 270.184 218.496C270.235 218.396 270.279 218.292 270.317 218.185C270.218 218.241 270.124 218.304 270.034 218.373V218.373Z" fill="#FBDA91"/>
<path d="M271.354 214.724C271.358 214.724 271.504 214.655 271.887 214.977C272.271 215.299 272.41 215.644 272.595 215.658C272.698 215.665 272.737 215.465 272.752 215.288C272.919 215.493 273.013 215.746 273.02 216.009C272.697 216.191 272.115 215.791 271.828 215.201C271.724 214.997 271.558 214.83 271.354 214.724V214.724Z" fill="#6BBC61"/>
<path d="M253.731 223.981C254.895 224.848 255.566 224.358 255.899 223.536C256.063 223.176 256.138 222.782 256.117 222.387C256.096 221.992 255.98 221.608 255.779 221.267C255.666 221.133 255.512 221.04 255.34 221.003C255.168 220.966 254.989 220.987 254.831 221.064C254.854 221.294 254.479 221.525 254.069 221.54C253.659 221.555 253.476 221.959 253.352 221.898C253.228 221.836 253.284 221.589 253.284 221.589C253.005 221.705 252.755 221.881 252.553 222.104C252.337 222.403 252.565 223.113 253.731 223.981Z" fill="url(#paint46_linear_1_2)"/>
<path d="M255.802 223.308C255.94 223.081 256.004 222.91 255.667 222.929C255.331 222.949 255.117 222.87 255.078 222.736C255.039 222.603 255.195 222.727 255.321 222.423C255.414 222.199 255.722 222.616 255.747 221.773C255.766 221.125 254.83 221.065 254.83 221.065C254.988 220.989 255.168 220.967 255.34 221.004C255.511 221.041 255.666 221.134 255.778 221.268C255.98 221.609 256.096 221.993 256.117 222.388C256.138 222.783 256.063 223.177 255.898 223.537C255.885 223.568 255.873 223.598 255.859 223.627C255.808 223.508 255.73 223.423 255.802 223.308Z" fill="#C7283A"/>
<path opacity="0.3" d="M253.731 223.981C254.503 224.554 255.057 224.535 255.44 224.217C255.323 224.235 255.203 224.229 255.089 224.197C254.975 224.165 254.869 224.109 254.779 224.033C254.216 223.582 254.775 222.989 254.087 222.957C253.398 222.926 253.375 222.881 253.418 222.592C253.461 222.302 253.209 222.578 252.927 222.463L252.913 222.457C252.818 222.414 252.852 222.374 252.927 222.329C253.046 222.258 253.267 222.18 253.245 222.071C253.209 221.888 253.524 222.049 253.675 221.691C253.522 221.804 253.427 221.936 253.352 221.899C253.228 221.838 253.283 221.591 253.283 221.591C253.004 221.706 252.754 221.882 252.552 222.105C252.337 222.403 252.565 223.113 253.731 223.981Z" fill="url(#paint47_linear_1_2)"/>
<path d="M253.833 221.22C253.796 221.118 253.728 221.03 253.639 220.968C253.478 220.844 253.482 220.805 253.549 220.771C253.616 220.737 253.884 220.835 254.001 221.179C254.122 221.1 254.259 221.049 254.402 221.029C254.544 221.009 254.69 221.021 254.828 221.063C254.85 221.294 254.475 221.524 254.065 221.539C253.655 221.554 253.473 221.957 253.35 221.897C253.226 221.836 253.281 221.588 253.281 221.588C253.281 221.588 253.372 221.353 253.833 221.22Z" fill="url(#paint48_linear_1_2)"/>
<path d="M255.617 221.891C255.625 221.903 255.637 221.912 255.652 221.916C255.666 221.92 255.682 221.918 255.695 221.912C255.708 221.905 255.719 221.894 255.724 221.88C255.73 221.866 255.73 221.85 255.724 221.836C255.68 221.782 255.631 221.731 255.579 221.683C255.587 221.753 255.599 221.822 255.617 221.891Z" fill="#FBDA91"/>
<path d="M255.064 222.223C255.073 222.236 255.085 222.245 255.099 222.249C255.114 222.253 255.129 222.251 255.143 222.244C255.156 222.238 255.166 222.226 255.172 222.212C255.177 222.198 255.177 222.183 255.172 222.169C255.127 222.115 255.079 222.063 255.027 222.015C255.035 222.085 255.047 222.155 255.064 222.223V222.223Z" fill="#FBDA91"/>
<path d="M254.92 223.009C254.923 223.016 254.928 223.022 254.934 223.027C254.94 223.033 254.947 223.037 254.955 223.039C254.962 223.042 254.97 223.043 254.978 223.042C254.986 223.041 254.994 223.039 255.001 223.036C255.008 223.032 255.014 223.027 255.02 223.021C255.025 223.015 255.029 223.009 255.031 223.001C255.034 222.994 255.035 222.986 255.034 222.978C255.034 222.97 255.032 222.962 255.028 222.955C254.983 222.901 254.935 222.849 254.884 222.801C254.891 222.871 254.903 222.94 254.92 223.009V223.009Z" fill="#FBDA91"/>
<path d="M253.262 223.218C253.263 223.227 253.267 223.235 253.272 223.242C253.277 223.249 253.284 223.255 253.291 223.26C253.299 223.264 253.308 223.267 253.316 223.268C253.325 223.268 253.334 223.267 253.342 223.264C253.351 223.261 253.358 223.257 253.364 223.25C253.371 223.244 253.376 223.237 253.379 223.229C253.382 223.22 253.383 223.212 253.383 223.203C253.382 223.194 253.38 223.186 253.376 223.178C253.335 223.109 253.29 223.043 253.242 222.98C253.243 223.06 253.25 223.139 253.262 223.218Z" fill="#F9E2B2"/>
<path d="M254.131 223.178C254.134 223.186 254.138 223.193 254.144 223.199C254.15 223.205 254.157 223.21 254.165 223.213C254.173 223.216 254.182 223.217 254.19 223.217C254.199 223.217 254.207 223.214 254.215 223.211C254.222 223.207 254.229 223.201 254.234 223.195C254.24 223.188 254.244 223.181 254.246 223.172C254.248 223.164 254.249 223.156 254.247 223.147C254.246 223.139 254.243 223.131 254.238 223.124C254.193 223.069 254.145 223.018 254.093 222.97C254.101 223.04 254.113 223.109 254.131 223.178V223.178Z" fill="#F9E2B2"/>
<path d="M253.634 222.643C253.641 222.657 253.654 222.668 253.669 222.673C253.684 222.678 253.7 222.677 253.715 222.67C253.729 222.663 253.74 222.651 253.745 222.636C253.75 222.621 253.749 222.604 253.742 222.59C253.697 222.535 253.648 222.484 253.597 222.436C253.604 222.506 253.617 222.575 253.634 222.643V222.643Z" fill="#FBDA91"/>
<path d="M252.914 222.458C252.92 222.43 252.925 222.374 252.929 222.328C252.852 222.373 252.817 222.414 252.914 222.458Z" fill="#FBDA91"/>
<path d="M252.845 222.518C252.87 222.526 252.898 222.506 252.91 222.472V222.459C252.814 222.415 252.848 222.375 252.924 222.33C252.928 222.291 252.929 222.26 252.929 222.255C252.889 222.316 252.851 222.379 252.817 222.443C252.811 222.457 252.811 222.472 252.816 222.486C252.821 222.5 252.832 222.512 252.845 222.518V222.518Z" fill="#F9E2B2"/>
<path d="M255.44 223.353C255.443 223.361 255.447 223.369 255.453 223.375C255.459 223.381 255.466 223.385 255.474 223.388C255.482 223.392 255.491 223.393 255.499 223.393C255.508 223.392 255.516 223.39 255.523 223.386C255.531 223.382 255.538 223.377 255.543 223.37C255.549 223.364 255.552 223.356 255.555 223.348C255.557 223.34 255.557 223.331 255.556 223.323C255.555 223.315 255.552 223.307 255.547 223.299C255.503 223.245 255.454 223.193 255.402 223.146C255.41 223.216 255.423 223.285 255.44 223.353V223.353Z" fill="#FBDA91"/>
<path d="M253.672 221.689C253.672 221.689 253.672 221.586 253.952 221.449C254.231 221.312 254.466 221.321 254.52 221.218C254.55 221.161 254.446 221.089 254.347 221.036C254.506 220.993 254.675 221.002 254.828 221.064C254.851 221.294 254.475 221.525 254.065 221.54C253.922 221.548 253.784 221.6 253.672 221.689Z" fill="#6BBC61"/>
<path d="M259.872 229.26C260.012 230.224 260.564 230.307 261.114 230.073C261.364 229.979 261.588 229.828 261.767 229.63C261.945 229.433 262.073 229.196 262.14 228.938C262.151 228.821 262.122 228.704 262.058 228.605C261.994 228.506 261.898 228.432 261.787 228.394C261.688 228.514 261.399 228.446 261.198 228.259C260.996 228.072 260.716 228.178 260.686 228.091C260.656 228.004 260.8 227.912 260.8 227.912C260.613 227.835 260.411 227.8 260.208 227.811C259.963 227.852 259.733 228.296 259.872 229.26Z" fill="url(#paint49_linear_1_2)"/>
<path d="M261.177 229.919C261.351 229.876 261.462 229.824 261.293 229.675C261.124 229.526 261.061 229.387 261.106 229.306C261.15 229.225 261.166 229.356 261.371 229.272C261.521 229.207 261.47 229.552 261.884 229.164C262.202 228.866 261.788 228.392 261.788 228.392C261.9 228.431 261.995 228.505 262.059 228.604C262.123 228.703 262.152 228.82 262.141 228.937C262.074 229.194 261.946 229.432 261.767 229.629C261.589 229.826 261.365 229.978 261.115 230.071L261.054 230.096C261.086 230.015 261.089 229.94 261.177 229.919Z" fill="#C7283A"/>
<path opacity="0.3" d="M259.871 229.26C259.964 229.897 260.237 230.149 260.57 230.179C260.506 230.133 260.452 230.073 260.413 230.004C260.374 229.935 260.35 229.859 260.344 229.78C260.292 229.3 260.841 229.282 260.529 228.944C260.217 228.605 260.226 228.571 260.386 228.455C260.546 228.339 260.294 228.349 260.215 228.161L260.211 228.152C260.186 228.087 260.222 228.083 260.279 228.098C260.368 228.12 260.511 228.188 260.553 228.125C260.624 228.021 260.696 228.246 260.941 228.148C260.812 228.129 260.706 228.148 260.688 228.095C260.658 228.007 260.802 227.916 260.802 227.916C260.615 227.838 260.413 227.804 260.21 227.814C259.962 227.852 259.731 228.297 259.871 229.26Z" fill="url(#paint50_linear_1_2)"/>
<path d="M261.238 227.999C261.269 227.934 261.279 227.86 261.266 227.788C261.249 227.654 261.266 227.636 261.317 227.653C261.368 227.669 261.447 227.846 261.339 228.062C261.433 228.081 261.523 228.122 261.6 228.18C261.677 228.237 261.741 228.312 261.786 228.397C261.686 228.517 261.398 228.45 261.196 228.262C260.994 228.075 260.715 228.181 260.685 228.095C260.654 228.008 260.8 227.916 260.8 227.916C260.874 227.896 260.952 227.894 261.028 227.908C261.104 227.923 261.176 227.954 261.238 227.999V227.999Z" fill="url(#paint51_linear_1_2)"/>
<path d="M261.765 229.159C261.762 229.169 261.763 229.18 261.768 229.189C261.773 229.199 261.781 229.206 261.791 229.209C261.801 229.212 261.812 229.212 261.822 229.207C261.831 229.202 261.838 229.194 261.842 229.184C261.847 229.137 261.848 229.089 261.846 229.042C261.817 229.079 261.789 229.118 261.765 229.159V229.159Z" fill="#FBDA91"/>
<path d="M261.344 229.054C261.341 229.064 261.343 229.075 261.348 229.084C261.352 229.092 261.361 229.099 261.37 229.102C261.38 229.106 261.39 229.105 261.4 229.101C261.409 229.097 261.416 229.089 261.42 229.08C261.425 229.033 261.426 228.986 261.425 228.939C261.395 228.975 261.368 229.014 261.344 229.054V229.054Z" fill="#FBDA91"/>
<path d="M260.9 229.361C260.897 229.371 260.898 229.382 260.903 229.391C260.908 229.401 260.916 229.408 260.926 229.411C260.936 229.415 260.947 229.414 260.957 229.409C260.966 229.404 260.974 229.395 260.977 229.385C260.982 229.338 260.984 229.291 260.982 229.243C260.952 229.281 260.925 229.32 260.9 229.361V229.361Z" fill="#FBDA91"/>
<path d="M260.013 228.675C260.009 228.68 260.007 228.686 260.006 228.692C260.005 228.698 260.005 228.704 260.007 228.71C260.008 228.715 260.011 228.721 260.015 228.725C260.019 228.73 260.023 228.734 260.029 228.736C260.034 228.739 260.04 228.74 260.046 228.74C260.052 228.74 260.058 228.739 260.064 228.737C260.069 228.734 260.074 228.73 260.078 228.726C260.082 228.721 260.085 228.716 260.086 228.71C260.105 228.709 260.122 228.702 260.136 228.689C260.15 228.677 260.159 228.661 260.162 228.643C260.166 228.625 260.163 228.606 260.155 228.59C260.146 228.573 260.133 228.56 260.116 228.552C260.1 228.544 260.081 228.542 260.063 228.546C260.045 228.55 260.029 228.56 260.017 228.574C260.005 228.588 259.998 228.606 259.997 228.624C259.997 228.642 260.002 228.66 260.013 228.675V228.675Z" fill="#F9E2B2"/>
<path d="M260.447 229.068C260.444 229.078 260.445 229.089 260.45 229.099C260.455 229.108 260.464 229.115 260.474 229.119C260.479 229.12 260.484 229.121 260.489 229.121C260.495 229.12 260.5 229.119 260.505 229.116C260.509 229.114 260.514 229.111 260.517 229.107C260.521 229.103 260.523 229.098 260.525 229.093C260.529 229.046 260.531 228.999 260.529 228.951C260.5 228.988 260.472 229.027 260.447 229.068V229.068Z" fill="#F9E2B2"/>
<path d="M260.464 228.578C260.461 228.588 260.463 228.599 260.467 228.607C260.472 228.616 260.48 228.623 260.49 228.626C260.5 228.63 260.51 228.629 260.52 228.625C260.529 228.621 260.536 228.613 260.54 228.604C260.545 228.557 260.547 228.51 260.545 228.462C260.515 228.499 260.488 228.538 260.464 228.578Z" fill="#FBDA91"/>
<path d="M260.211 228.15C260.227 228.14 260.255 228.116 260.279 228.096C260.222 228.081 260.186 228.084 260.211 228.15Z" fill="#FBDA91"/>
<path d="M260.151 228.146C260.157 228.154 260.165 228.159 260.175 228.16C260.185 228.162 260.195 228.16 260.203 228.154L260.211 228.149C260.186 228.085 260.221 228.08 260.279 228.095L260.317 228.062C260.269 228.072 260.222 228.084 260.175 228.099C260.154 228.109 260.143 228.131 260.151 228.146Z" fill="#F9E2B2"/>
<path d="M260.983 229.769C260.981 229.774 260.979 229.78 260.979 229.785C260.98 229.791 260.981 229.797 260.983 229.802C260.985 229.807 260.989 229.811 260.993 229.815C260.997 229.819 261.002 229.822 261.007 229.824C261.012 229.825 261.018 229.826 261.024 229.826C261.029 229.825 261.035 229.823 261.04 229.821C261.045 229.818 261.049 229.814 261.052 229.81C261.056 229.805 261.058 229.8 261.059 229.795C261.064 229.748 261.066 229.7 261.064 229.653C261.034 229.69 261.007 229.729 260.983 229.769V229.769Z" fill="#FBDA91"/>
<path d="M260.94 228.145C260.94 228.145 260.987 228.094 261.187 228.162C261.386 228.23 261.492 228.343 261.567 228.321C261.608 228.308 261.593 228.224 261.571 228.153C261.668 228.207 261.744 228.292 261.787 228.394C261.688 228.514 261.399 228.446 261.198 228.259C261.126 228.195 261.035 228.155 260.94 228.145Z" fill="#6BBC61"/>
<path opacity="0.3" d="M256.983 256.09H249.799L244.6 190.377H252.781L256.983 256.09Z" fill="url(#paint52_linear_1_2)"/>
<path opacity="0.3" d="M262.537 256.09H260.353L256.158 190.377H258.458L262.537 256.09Z" fill="url(#paint53_linear_1_2)"/>
<path d="M85.9314 78.1167C88.296 78.1167 90.2129 76.2097 90.2129 73.8573C90.2129 71.505 88.296 69.598 85.9314 69.598C83.5667 69.598 81.6498 71.505 81.6498 73.8573C81.6498 76.2097 83.5667 78.1167 85.9314 78.1167Z" fill="#6BBC61"/>
<path d="M82.0443 72.0799H17.1226V75.2263H82.0443V72.0799Z" fill="#6BBC61"/>
<path d="M77.9289 72.1841C77.9289 69.9718 76.1262 68.1783 73.9025 68.1783C71.6787 68.1783 69.876 69.9718 69.876 72.1841V100.578C69.876 102.791 71.6787 104.584 73.9025 104.584C76.1262 104.584 77.9289 102.791 77.9289 100.578V72.1841Z" fill="#53A547"/>
<path d="M74.8204 104.584H72.9852V123.902H74.8204V104.584Z" fill="#6BBC61"/>
<path d="M74.8198 123.903C74.8198 123.903 80.5796 124.765 81.1913 130.851C81.8031 136.936 81.6078 146.367 81.6078 146.367L77.2157 136.327L73.9022 146.367L70.385 136.226L67.4291 146.367C67.4291 146.367 65.6799 137.976 66.2056 131.764C66.7313 125.553 72.9846 123.905 72.9846 123.905L74.8198 123.903Z" fill="#6BBC61"/>
<path d="M57.636 72.1841C57.636 69.9718 55.8333 68.1783 53.6095 68.1783C51.3858 68.1783 49.5831 69.9718 49.5831 72.1841V100.578C49.5831 102.791 51.3858 104.584 53.6095 104.584C55.8333 104.584 57.636 102.791 57.636 100.578V72.1841Z" fill="#53A547"/>
<path d="M54.5275 104.584H52.6923V123.902H54.5275V104.584Z" fill="#6BBC61"/>
<path d="M47.7298 123.903H59.4906C60.0361 123.903 60.5763 124.01 61.0802 124.218C61.5842 124.425 62.0421 124.73 62.4278 125.114C62.8135 125.497 63.1195 125.953 63.3282 126.454C63.5368 126.956 63.6442 127.493 63.6441 128.036V147.914C63.6442 148.456 63.5368 148.994 63.3282 149.495C63.1195 149.997 62.8135 150.452 62.4278 150.836C62.0421 151.22 61.5842 151.524 61.0802 151.732C60.5763 151.939 60.0361 152.046 59.4906 152.046H47.7298C46.628 152.046 45.5714 151.611 44.7923 150.836C44.0133 150.061 43.5756 149.01 43.5756 147.914V128.036C43.5756 126.94 44.0133 125.889 44.7923 125.114C45.5714 124.339 46.628 123.903 47.7298 123.903ZM57.6366 147.759H59.2746V128.188H57.6366V147.759ZM52.7912 147.759H54.4292V128.188H52.7912V147.759ZM47.9458 147.759H49.5831V128.188H47.9458V147.759Z" fill="#6BBC61"/>
<path d="M37.3437 72.1841C37.3437 69.9718 35.541 68.1783 33.3173 68.1783C31.0936 68.1783 29.2909 69.9718 29.2909 72.1841V100.578C29.2909 102.791 31.0936 104.584 33.3173 104.584C35.541 104.584 37.3437 102.791 37.3437 100.578V72.1841Z" fill="#53A547"/>
<path d="M34.2352 104.584H32.4V123.902H34.2352V104.584Z" fill="#6BBC61"/>
<path d="M34.2346 123.903C34.2346 123.903 41.0246 124.664 40.8235 134.196C40.6224 143.728 36.7185 147.734 33.3177 147.759C29.9169 147.784 25.4284 141.396 26.1442 133.182C26.8601 124.968 32.4001 123.903 32.4001 123.903H34.2346Z" fill="#6BBC61"/>
<path d="M-4.20554 -59.0909V54.1434H487.616C482.764 33.236 474.753 11.7336 485.013 -6.7633C501.219 -35.9693 547.812 -59.0909 547.812 -59.0909H-4.20554Z" fill="#6BBC61"/>
<path d="M174.519 -59.0909H169.455V54.1434H174.519V-59.0909Z" fill="#53A547"/>
<path d="M485.013 -6.7633C478.235 5.45431 479.432 18.9836 482.423 32.7863H208.707V-59.0909H547.812C547.812 -59.0909 501.219 -35.9693 485.013 -6.7633Z" fill="#53A547"/>
<path d="M378.259 20.1557C383.988 20.1557 388.633 17.3657 388.633 13.924C388.633 10.4823 383.988 7.69232 378.259 7.69232C372.53 7.69232 367.886 10.4823 367.886 13.924C367.886 17.3657 372.53 20.1557 378.259 20.1557Z" fill="#6BBC61"/>
<path d="M135.267 -59.0909H-4.20554V32.7863H135.267V-59.0909Z" fill="#53A547"/>
<path d="M65.5313 20.1557C71.2605 20.1557 75.9049 17.3657 75.9049 13.924C75.9049 10.4823 71.2605 7.69232 65.5313 7.69232C59.8021 7.69232 55.1577 10.4823 55.1577 13.924C55.1577 17.3657 59.8021 20.1557 65.5313 20.1557Z" fill="#6BBC61"/>
<path d="M120.67 204.806H127.831C128.231 204.797 128.612 204.634 128.892 204.349C129.172 204.065 129.329 203.683 129.329 203.285C129.329 202.886 129.172 202.504 128.892 202.22C128.612 201.936 128.231 201.772 127.831 201.764H120.67C120.467 201.759 120.264 201.796 120.075 201.87C119.886 201.945 119.714 202.056 119.568 202.198C119.423 202.339 119.308 202.509 119.229 202.695C119.15 202.882 119.109 203.082 119.109 203.285C119.109 203.487 119.15 203.687 119.229 203.874C119.308 204.061 119.423 204.23 119.568 204.371C119.714 204.513 119.886 204.624 120.075 204.699C120.264 204.774 120.467 204.81 120.67 204.806V204.806Z" fill="#1D164D"/>
<path d="M45.8978 204.806H53.059C53.2624 204.81 53.4646 204.774 53.6538 204.699C53.843 204.624 54.0153 204.513 54.1606 204.371C54.306 204.23 54.4215 204.061 54.5003 203.874C54.5792 203.687 54.6198 203.487 54.6198 203.285C54.6198 203.082 54.5792 202.882 54.5003 202.695C54.4215 202.509 54.306 202.339 54.1606 202.198C54.0153 202.056 53.843 201.945 53.6538 201.87C53.4646 201.796 53.2624 201.759 53.059 201.764H45.8978C45.4977 201.772 45.1168 201.936 44.8368 202.22C44.5567 202.504 44.3999 202.886 44.3999 203.285C44.3999 203.683 44.5567 204.065 44.8368 204.349C45.1168 204.634 45.4977 204.797 45.8978 204.806Z" fill="#1D164D"/>
<path d="M114.892 196.766H58.8369C55.0108 196.766 51.9092 199.851 51.9092 203.657V265.779C51.9092 269.585 55.0108 272.671 58.8369 272.671H114.892C118.718 272.671 121.819 269.585 121.819 265.779V203.657C121.819 199.851 118.718 196.766 114.892 196.766Z" fill="url(#paint54_linear_1_2)"/>
<path d="M96.0232 206.958H100.661C101.061 206.949 101.442 206.786 101.722 206.501C102.002 206.217 102.159 205.835 102.159 205.436C102.159 205.038 102.002 204.656 101.722 204.372C101.442 204.087 101.061 203.924 100.661 203.915H96.0232C95.6231 203.924 95.2422 204.087 94.9622 204.372C94.6822 204.656 94.5253 205.038 94.5253 205.436C94.5253 205.835 94.6822 206.217 94.9622 206.501C95.2422 206.786 95.6231 206.949 96.0232 206.958Z" fill="white"/>
<path d="M113.834 236.241C114.034 236.241 114.233 236.202 114.419 236.126C114.605 236.049 114.773 235.937 114.915 235.796C115.057 235.655 115.17 235.487 115.247 235.302C115.324 235.118 115.363 234.92 115.363 234.72V210.467C115.363 208.73 114.67 207.064 113.436 205.835C112.202 204.607 110.527 203.916 108.781 203.915C108.578 203.911 108.375 203.947 108.186 204.022C107.997 204.097 107.825 204.208 107.68 204.35C107.534 204.491 107.419 204.66 107.34 204.847C107.261 205.034 107.22 205.234 107.22 205.436C107.22 205.639 107.261 205.839 107.34 206.026C107.419 206.212 107.534 206.382 107.68 206.523C107.825 206.665 107.997 206.776 108.186 206.851C108.375 206.925 108.578 206.962 108.781 206.957C109.716 206.958 110.613 207.327 111.275 207.985C111.936 208.643 112.307 209.536 112.307 210.466V234.719C112.307 235.122 112.467 235.509 112.754 235.794C113.04 236.08 113.428 236.241 113.834 236.241V236.241Z" fill="white"/>
<path d="M51.9092 266.152V203.284C51.9091 202.428 52.0786 201.58 52.4078 200.79C52.7371 199.999 53.2198 199.28 53.8282 198.675C54.4367 198.069 55.1591 197.589 55.9541 197.262C56.7492 196.934 57.6013 196.766 58.4618 196.766C57.4674 200.044 57.1801 203.494 57.6189 206.89C58.0576 210.286 59.2125 213.552 61.0078 216.474C67.1239 226.751 65.9011 227.189 64.0658 242.142C62.2306 257.095 78.745 263.086 96.3232 262.781C113.901 262.477 115.27 272.669 115.27 272.669H58.4618C56.7243 272.669 55.0577 271.983 53.8289 270.761C52.6 269.538 51.9095 267.881 51.9092 266.152V266.152Z" fill="#C9E2F4"/>
<path opacity="0.3" d="M96.3226 196.766C96.3226 196.766 82.7505 188.697 86.8639 167.937C90.9774 147.176 110.243 138.035 94.4945 121.919C78.7457 105.802 56.7262 86.9113 73.8518 69.2796C90.9773 51.648 95.9075 21.2249 65.3074 10.8819C34.7073 0.538827 24.9208 -59.0909 24.9208 -59.0909H-4.20808L-4.43764 -5.54682C-4.43764 -5.54682 15.4969 33.3943 45.8972 35.8285C76.2974 38.2628 58.3131 68.0767 45.8972 80.246C33.4813 92.4154 71.4048 130.745 79.9679 139.875C88.531 149.005 61.4236 172.123 86.8639 196.766L96.3226 196.766Z" fill="url(#paint55_linear_1_2)"/>
</g>
<defs>
<linearGradient id="paint0_linear_1_2" x1="864.275" y1="465.215" x2="724.865" y2="-147.791" gradientUnits="userSpaceOnUse">
<stop stop-color="#6BBC61"/>
<stop offset="1" stop-color="#A7DF63"/>
</linearGradient>
<linearGradient id="paint1_linear_1_2" x1="308.414" y1="312.079" x2="308.414" y2="464.803" gradientUnits="userSpaceOnUse">
<stop stop-color="#8F5138"/>
<stop offset="1" stop-color="#BA6D4D"/>
</linearGradient>
<linearGradient id="paint2_linear_1_2" x1="-271.874" y1="297.465" x2="373.376" y2="297.465" gradientUnits="userSpaceOnUse">
<stop stop-color="#8F5138"/>
<stop offset="1" stop-color="#BA6D4D"/>
</linearGradient>
<linearGradient id="paint3_linear_1_2" x1="160.097" y1="152.659" x2="205.286" y2="96.0346" gradientUnits="userSpaceOnUse">
<stop stop-color="#1D164D"/>
<stop offset="1" stop-color="#4A4975"/>
</linearGradient>
<linearGradient id="paint4_linear_1_2" x1="146.23" y1="277.917" x2="228.635" y2="184.815" gradientUnits="userSpaceOnUse">
<stop stop-color="#C9E2F4"/>
<stop offset="1" stop-color="#EAF5FF"/>
</linearGradient>
<linearGradient id="paint5_linear_1_2" x1="165.667" y1="138.827" x2="178.739" y2="116.713" gradientUnits="userSpaceOnUse">
<stop stop-color="#FFC0AC"/>
<stop offset="1" stop-color="#FFD6C7"/>
</linearGradient>
<linearGradient id="paint6_linear_1_2" x1="122.542" y1="340.372" x2="256.519" y2="273.653" gradientUnits="userSpaceOnUse">
<stop stop-color="#C7283A"/>
<stop offset="1" stop-color="#EF4B4B"/>
</linearGradient>
<linearGradient id="paint7_linear_1_2" x1="94.2632" y1="247.527" x2="294.005" y2="226.466" gradientUnits="userSpaceOnUse">
<stop stop-color="#C7283A"/>
<stop offset="1" stop-color="#C7283A" stop-opacity="0"/>
</linearGradient>
<linearGradient id="paint8_linear_1_2" x1="205.035" y1="229.136" x2="212.511" y2="225.393" gradientUnits="userSpaceOnUse">
<stop stop-color="#FFC0AC"/>
<stop offset="1" stop-color="#FFD6C7"/>
</linearGradient>
<linearGradient id="paint9_linear_1_2" x1="175.715" y1="131.994" x2="176.908" y2="128.383" gradientUnits="userSpaceOnUse">
<stop stop-color="#1D164D"/>
<stop offset="1" stop-color="#4A4975"/>
</linearGradient>
<linearGradient id="paint10_linear_1_2" x1="135.081" y1="229.904" x2="138.834" y2="211.196" gradientUnits="userSpaceOnUse">
<stop stop-color="#FFC0AC"/>
<stop offset="1" stop-color="#FFD6C7"/>
</linearGradient>
<linearGradient id="paint11_linear_1_2" x1="179.635" y1="231.051" x2="177.784" y2="274.608" gradientUnits="userSpaceOnUse">
<stop stop-color="#1D164D"/>
<stop offset="1" stop-color="#4A4975"/>
</linearGradient>
<linearGradient id="paint12_linear_1_2" x1="28.5177" y1="190.635" x2="-1.05845" y2="227.14" gradientUnits="userSpaceOnUse">
<stop stop-color="#ACD4F3"/>
<stop offset="1" stop-color="#4099F1"/>
</linearGradient>
<linearGradient id="paint13_linear_1_2" x1="-14.1905" y1="213.314" x2="9.95762" y2="213.314" gradientUnits="userSpaceOnUse">
<stop stop-color="#ACD4F3"/>
<stop offset="1" stop-color="#4099F1"/>
</linearGradient>
<linearGradient id="paint14_linear_1_2" x1="17.7797" y1="174.37" x2="18.3551" y2="194.29" gradientUnits="userSpaceOnUse">
<stop stop-color="#ACD4F3"/>
<stop offset="1" stop-color="#4099F1"/>
</linearGradient>
<linearGradient id="paint15_linear_1_2" x1="34.1236" y1="202.461" x2="55.4378" y2="195.343" gradientUnits="userSpaceOnUse">
<stop stop-color="#FFC0AC"/>
<stop offset="1" stop-color="#FFD6C7"/>
</linearGradient>
<linearGradient id="paint16_linear_1_2" x1="10.9996" y1="200.65" x2="33.942" y2="192.989" gradientUnits="userSpaceOnUse">
<stop stop-color="#FFC0AC"/>
<stop offset="1" stop-color="#FFD6C7"/>
</linearGradient>
<linearGradient id="paint17_linear_1_2" x1="51.2626" y1="205.747" x2="43.7352" y2="208.045" gradientUnits="userSpaceOnUse">
<stop stop-color="#FFB965"/>
<stop offset="1" stop-color="#FF8A5F"/>
</linearGradient>
<linearGradient id="paint18_linear_1_2" x1="49.3699" y1="188.818" x2="37.8706" y2="198.221" gradientUnits="userSpaceOnUse">
<stop stop-color="#DBE42C"/>
<stop offset="1" stop-color="#6AD419"/>
</linearGradient>
<linearGradient id="paint19_linear_1_2" x1="38.3822" y1="205.104" x2="36.7829" y2="214.175" gradientUnits="userSpaceOnUse">
<stop stop-color="#DBE42C"/>
<stop offset="1" stop-color="#6AD419"/>
</linearGradient>
<linearGradient id="paint20_linear_1_2" x1="37.3947" y1="234.051" x2="34.5059" y2="210.895" gradientUnits="userSpaceOnUse">
<stop stop-color="#C7283A"/>
<stop offset="1" stop-color="#EF4B4B"/>
</linearGradient>
<linearGradient id="paint21_linear_1_2" x1="32.7695" y1="216.033" x2="10.7052" y2="222.384" gradientUnits="userSpaceOnUse">
<stop stop-color="white"/>
<stop offset="1" stop-color="white" stop-opacity="0"/>
</linearGradient>
<linearGradient id="paint22_linear_1_2" x1="32.2531" y1="210.848" x2="34.059" y2="210.217" gradientUnits="userSpaceOnUse">
<stop stop-color="#8F5138"/>
<stop offset="1" stop-color="#BA6D4D"/>
</linearGradient>
<linearGradient id="paint23_linear_1_2" x1="12.1616" y1="305.271" x2="38.9825" y2="222.753" gradientUnits="userSpaceOnUse">
<stop stop-color="#FFC0AC"/>
<stop offset="1" stop-color="#FFD6C7"/>
</linearGradient>
<linearGradient id="paint24_linear_1_2" x1="2.89368" y1="255.525" x2="-36.8599" y2="255.525" gradientUnits="userSpaceOnUse">
<stop stop-color="#FFC0AC"/>
<stop offset="1" stop-color="#FFD6C7"/>
</linearGradient>
<linearGradient id="paint25_linear_1_2" x1="146.527" y1="250.898" x2="146.451" y2="327.018" gradientUnits="userSpaceOnUse">
<stop stop-color="#FFB965"/>
<stop offset="1" stop-color="#FF8A5F"/>
</linearGradient>
<linearGradient id="paint26_linear_1_2" x1="262.2" y1="188.714" x2="264.16" y2="185.425" gradientUnits="userSpaceOnUse">
<stop stop-color="#1D164D"/>
<stop offset="1" stop-color="#4A4975"/>
</linearGradient>
<linearGradient id="paint27_linear_1_2" x1="258.228" y1="196.915" x2="258.294" y2="179.967" gradientUnits="userSpaceOnUse">
<stop stop-color="#C9E2F4"/>
<stop offset="1" stop-color="#EAF5FF"/>
</linearGradient>
<linearGradient id="paint28_linear_1_2" x1="243.154" y1="252.082" x2="298.27" y2="222.958" gradientUnits="userSpaceOnUse">
<stop stop-color="#C9E2F4"/>
<stop offset="1" stop-color="#EAF5FF"/>
</linearGradient>
<linearGradient id="paint29_linear_1_2" x1="252.178" y1="291.145" x2="272.297" y2="253.2" gradientUnits="userSpaceOnUse">
<stop stop-color="#1D164D"/>
<stop offset="1" stop-color="#4A4975"/>
</linearGradient>
<linearGradient id="paint30_linear_1_2" x1="259.601" y1="279.135" x2="263.541" y2="266.433" gradientUnits="userSpaceOnUse">
<stop stop-color="#C9E2F4"/>
<stop offset="1" stop-color="#EAF5FF"/>
</linearGradient>
<linearGradient id="paint31_linear_1_2" x1="269.124" y1="270.957" x2="266.268" y2="273.357" gradientUnits="userSpaceOnUse">
<stop stop-color="#1D164D"/>
<stop offset="1" stop-color="#4A4975"/>
</linearGradient>
<linearGradient id="paint32_linear_1_2" x1="275.538" y1="222.768" x2="295.038" y2="222.768" gradientUnits="userSpaceOnUse">
<stop stop-color="#C9E2F4"/>
<stop offset="1" stop-color="#EAF5FF"/>
</linearGradient>
<linearGradient id="paint33_linear_1_2" x1="281.706" y1="193.191" x2="244.601" y2="193.191" gradientUnits="userSpaceOnUse">
<stop stop-color="#1D164D"/>
<stop offset="1" stop-color="#4A4975"/>
</linearGradient>
<linearGradient id="paint34_linear_1_2" x1="305.718" y1="383.241" x2="294.512" y2="368.018" gradientUnits="userSpaceOnUse">
<stop stop-color="#C7283A"/>
<stop offset="1" stop-color="#EF4B4B"/>
</linearGradient>
<linearGradient id="paint35_linear_1_2" x1="300.452" y1="372.327" x2="279.309" y2="371.648" gradientUnits="userSpaceOnUse">
<stop stop-color="white"/>
<stop offset="1" stop-color="white" stop-opacity="0"/>
</linearGradient>
<linearGradient id="paint36_linear_1_2" x1="297.839" y1="369.324" x2="297.504" y2="366.792" gradientUnits="userSpaceOnUse">
<stop stop-color="#6BBC61"/>
<stop offset="1" stop-color="#A7DF63"/>
</linearGradient>
<linearGradient id="paint37_linear_1_2" x1="277.821" y1="372.777" x2="269.908" y2="359.893" gradientUnits="userSpaceOnUse">
<stop stop-color="#C7283A"/>
<stop offset="1" stop-color="#EF4B4B"/>
</linearGradient>
<linearGradient id="paint38_linear_1_2" x1="273.541" y1="364.389" x2="257.092" y2="360.895" gradientUnits="userSpaceOnUse">
<stop stop-color="white"/>
<stop offset="1" stop-color="white" stop-opacity="0"/>
</linearGradient>
<linearGradient id="paint39_linear_1_2" x1="271.438" y1="361.961" x2="271.165" y2="359.934" gradientUnits="userSpaceOnUse">
<stop stop-color="#6BBC61"/>
<stop offset="1" stop-color="#A7DF63"/>
</linearGradient>
<linearGradient id="paint40_linear_1_2" x1="291.968" y1="385.888" x2="286.764" y2="377.184" gradientUnits="userSpaceOnUse">
<stop stop-color="#C7283A"/>
<stop offset="1" stop-color="#EF4B4B"/>
</linearGradient>
<linearGradient id="paint41_linear_1_2" x1="289.104" y1="380.04" x2="277.758" y2="379.382" gradientUnits="userSpaceOnUse">
<stop stop-color="white"/>
<stop offset="1" stop-color="white" stop-opacity="0"/>
</linearGradient>
<linearGradient id="paint42_linear_1_2" x1="287.69" y1="378.112" x2="287.615" y2="376.751" gradientUnits="userSpaceOnUse">
<stop stop-color="#6BBC61"/>
<stop offset="1" stop-color="#A7DF63"/>
</linearGradient>
<linearGradient id="paint43_linear_1_2" x1="315.346" y1="365.139" x2="309.313" y2="356.985" gradientUnits="userSpaceOnUse">
<stop stop-color="#C7283A"/>
<stop offset="1" stop-color="#EF4B4B"/>
</linearGradient>
<linearGradient id="paint44_linear_1_2" x1="312.624" y1="359.355" x2="301.269" y2="359.023" gradientUnits="userSpaceOnUse">
<stop stop-color="white"/>
<stop offset="1" stop-color="white" stop-opacity="0"/>
</linearGradient>
<linearGradient id="paint45_linear_1_2" x1="311.177" y1="357.689" x2="311.015" y2="356.328" gradientUnits="userSpaceOnUse">
<stop stop-color="#6BBC61"/>
<stop offset="1" stop-color="#A7DF63"/>
</linearGradient>
<linearGradient id="paint46_linear_1_2" x1="283.943" y1="367.885" x2="280.622" y2="362.49" gradientUnits="userSpaceOnUse">
<stop stop-color="#C7283A"/>
<stop offset="1" stop-color="#EF4B4B"/>
</linearGradient>
<linearGradient id="paint47_linear_1_2" x1="282.09" y1="364.219" x2="275.025" y2="363.647" gradientUnits="userSpaceOnUse">
<stop stop-color="white"/>
<stop offset="1" stop-color="white" stop-opacity="0"/>
</linearGradient>
<linearGradient id="paint48_linear_1_2" x1="281.195" y1="363.302" x2="281.14" y2="362.452" gradientUnits="userSpaceOnUse">
<stop stop-color="#6BBC61"/>
<stop offset="1" stop-color="#A7DF63"/>
</linearGradient>
<linearGradient id="paint49_linear_1_2" x1="287.793" y1="377.966" x2="285.308" y2="374.519" gradientUnits="userSpaceOnUse">
<stop stop-color="#C7283A"/>
<stop offset="1" stop-color="#EF4B4B"/>
</linearGradient>
<linearGradient id="paint50_linear_1_2" x1="286.664" y1="375.282" x2="281.901" y2="375.203" gradientUnits="userSpaceOnUse">
<stop stop-color="white"/>
<stop offset="1" stop-color="white" stop-opacity="0"/>
</linearGradient>
<linearGradient id="paint51_linear_1_2" x1="286.029" y1="375.172" x2="285.991" y2="374.601" gradientUnits="userSpaceOnUse">
<stop stop-color="#6BBC61"/>
<stop offset="1" stop-color="#A7DF63"/>
</linearGradient>
<linearGradient id="paint52_linear_1_2" x1="235.957" y1="247.811" x2="268.692" y2="245.884" gradientUnits="userSpaceOnUse">
<stop stop-color="#C9E2F4"/>
<stop offset="1" stop-color="#EAF5FF"/>
</linearGradient>
<linearGradient id="paint53_linear_1_2" x1="245.04" y1="246.956" x2="274.422" y2="246.497" gradientUnits="userSpaceOnUse">
<stop stop-color="#C9E2F4"/>
<stop offset="1" stop-color="#EAF5FF"/>
</linearGradient>
<linearGradient id="paint54_linear_1_2" x1="65.6116" y1="269.938" x2="114.887" y2="200.638" gradientUnits="userSpaceOnUse">
<stop stop-color="#C9E2F4"/>
<stop offset="1" stop-color="#EAF5FF"/>
</linearGradient>
<linearGradient id="paint55_linear_1_2" x1="110.777" y1="191.137" x2="-66.6906" y2="114.539" gradientUnits="userSpaceOnUse">
<stop stop-color="white"/>
<stop offset="1" stop-color="white" stop-opacity="0"/>
</linearGradient>
<clipPath id="clip0_1_2">
<rect width="463" height="325" fill="white"/>
</clipPath>
</defs>
</svg>
