<svg width="638" height="597" viewBox="0 0 638 597" fill="none" xmlns="http://www.w3.org/2000/svg">
<g clip-path="url(#clip0_1_274)">
<path d="M638.184 0H-709.849L-367.721 496.242C-326.114 556.593 -221.77 596.445 -105.366 596.445H638.184V0Z" fill="url(#paint0_linear_1_274)"/>
<path d="M638.184 596.445V547.009L113.599 545.864C142.461 576.689 182.723 596.445 228.079 596.445H638.184Z" fill="url(#paint1_linear_1_274)"/>
<path opacity="0.2" d="M352.939 564.909C360.764 564.909 367.108 563.55 367.108 561.873C367.108 560.196 360.764 558.837 352.939 558.837C345.113 558.837 338.77 560.196 338.77 561.873C338.77 563.55 345.113 564.909 352.939 564.909Z" fill="white"/>
<path opacity="0.2" d="M282.844 581.885C288.232 581.885 292.6 580.949 292.6 579.794C292.6 578.639 288.232 577.703 282.844 577.703C277.455 577.703 273.087 578.639 273.087 579.794C273.087 580.949 277.455 581.885 282.844 581.885Z" fill="white"/>
<path opacity="0.2" d="M203.159 568.793C205.127 568.793 206.722 568.451 206.722 568.03C206.722 567.608 205.127 567.266 203.159 567.266C201.191 567.266 199.596 567.608 199.596 568.03C199.596 568.451 201.191 568.793 203.159 568.793Z" fill="white"/>
<path opacity="0.2" d="M322.338 582.648C324.306 582.648 325.901 582.306 325.901 581.885C325.901 581.463 324.306 581.121 322.338 581.121C320.37 581.121 318.775 581.463 318.775 581.885C318.775 582.306 320.37 582.648 322.338 582.648Z" fill="white"/>
<path opacity="0.2" d="M377.643 584.473C384.313 584.473 389.72 583.314 389.72 581.885C389.72 580.455 384.313 579.297 377.643 579.297C370.972 579.297 365.565 580.455 365.565 581.885C365.565 583.314 370.972 584.473 377.643 584.473Z" fill="white"/>
<path opacity="0.2" d="M225.667 589.704C230.681 589.704 234.745 588.833 234.745 587.758C234.745 586.684 230.681 585.812 225.667 585.812C220.653 585.812 216.589 586.684 216.589 587.758C216.589 588.833 220.653 589.704 225.667 589.704Z" fill="white"/>
<path opacity="0.2" d="M267.491 564.198C273.481 564.198 278.337 563.158 278.337 561.874C278.337 560.59 273.481 559.549 267.491 559.549C261.501 559.549 256.644 560.59 256.644 561.874C256.644 563.158 261.501 564.198 267.491 564.198Z" fill="white"/>
<path opacity="0.2" d="M474.34 562.366C482.165 562.366 488.509 561.006 488.509 559.33C488.509 557.653 482.165 556.294 474.34 556.294C466.514 556.294 460.17 557.653 460.17 559.33C460.17 561.006 466.514 562.366 474.34 562.366Z" fill="white"/>
<path opacity="0.2" d="M544.433 579.342C549.822 579.342 554.19 578.406 554.19 577.251C554.19 576.096 549.822 575.16 544.433 575.16C539.044 575.16 534.676 576.096 534.676 577.251C534.676 578.406 539.044 579.342 544.433 579.342Z" fill="white"/>
<path opacity="0.2" d="M624.118 566.25C626.086 566.25 627.681 565.908 627.681 565.487C627.681 565.065 626.086 564.723 624.118 564.723C622.15 564.723 620.555 565.065 620.555 565.487C620.555 565.908 622.15 566.25 624.118 566.25Z" fill="white"/>
<path opacity="0.2" d="M504.938 580.105C506.906 580.105 508.502 579.763 508.502 579.341C508.502 578.92 506.906 578.578 504.938 578.578C502.971 578.578 501.375 578.92 501.375 579.341C501.375 579.763 502.971 580.105 504.938 580.105Z" fill="white"/>
<path opacity="0.2" d="M449.635 581.93C456.305 581.93 461.713 580.771 461.713 579.341C461.713 577.912 456.305 576.753 449.635 576.753C442.965 576.753 437.557 577.912 437.557 579.341C437.557 580.771 442.965 581.93 449.635 581.93Z" fill="white"/>
<path opacity="0.2" d="M601.61 587.161C606.623 587.161 610.688 586.29 610.688 585.215C610.688 584.141 606.623 583.269 601.61 583.269C596.596 583.269 592.532 584.141 592.532 585.215C592.532 586.29 596.596 587.161 601.61 587.161Z" fill="white"/>
<path opacity="0.2" d="M559.786 561.655C565.776 561.655 570.632 560.614 570.632 559.331C570.632 558.047 565.776 557.006 559.786 557.006C553.795 557.006 548.939 558.047 548.939 559.331C548.939 560.614 553.795 561.655 559.786 561.655Z" fill="white"/>
<path opacity="0.2" d="M180.255 166.22C126.552 184.128 51.671 141.694 -34.5559 162.716C-90.9302 176.46 -127.902 226.657 -146.747 259.77L-72.6773 459C-72.6773 458.993 -95.9665 204.307 99.5406 204.045C295.048 203.784 203.974 116 322.724 116H253.056C253.056 116 233.958 148.313 180.255 166.22Z" fill="white"/>
<path opacity="0.2" d="M135.785 50H158.791C158.791 50 213.706 103.157 330.737 87.7246C447.768 72.2918 365.994 162.808 436.6 185.341C507.207 207.874 517.72 119.362 570.283 136.185C622.845 153.007 638.184 136.185 638.184 136.185V273.653C638.184 273.653 600.94 280.242 582.416 235.998C563.892 191.754 509.757 252.803 436.6 235.998C363.444 219.194 412.712 126.592 316.59 126.592C220.467 126.592 236.353 109.064 192.432 85.4382C148.512 61.8124 135.785 50 135.785 50Z" fill="white"/>
<path d="M294.897 102.555V188.359C320.945 190.759 345.817 199.752 366.877 214.382C387.937 229.012 404.399 248.736 414.518 271.46C424.636 294.185 428.035 319.064 424.353 343.46C420.671 367.855 410.046 390.858 393.604 410.03C377.161 429.201 355.515 443.826 330.961 452.354C306.406 460.882 279.857 462.995 254.13 458.47C228.403 453.944 204.456 442.948 184.829 426.648C165.201 410.348 150.625 389.351 142.645 365.883C142.635 365.863 142.629 365.842 142.628 365.82C142.087 364.245 141.58 362.66 141.107 361.064C140.651 359.505 140.212 357.923 139.806 356.34C139.713 355.982 139.62 355.624 139.536 355.267C139.324 354.424 139.13 353.581 138.939 352.738C138.796 352.086 138.652 351.434 138.513 350.774C138.342 349.994 138.192 349.215 138.04 348.427C137.921 347.791 137.803 347.155 137.693 346.518C137.608 346.042 137.533 345.572 137.457 345.095C137.364 344.515 137.271 343.934 137.187 343.353C137.137 343.032 137.094 342.717 137.052 342.399C136.967 341.818 136.882 341.245 136.816 340.665C136.706 339.846 136.613 339.026 136.529 338.2C136.487 337.866 136.453 337.532 136.419 337.19C136.351 336.474 136.284 335.75 136.224 335.034C136.148 334.159 136.081 333.277 136.03 332.394V332.331C135.987 331.647 135.945 330.966 135.92 330.279C135.903 330.032 135.894 329.786 135.886 329.539C135.86 328.959 135.835 328.371 135.827 327.782C135.81 327.377 135.801 326.979 135.801 326.573C135.784 325.802 135.776 325.031 135.776 324.259C135.723 288.84 150.341 254.797 176.525 229.365L112.278 168.87C69.0273 210.332 44.8305 266.145 44.911 324.258C44.911 326.04 44.9335 327.813 44.9784 329.579C44.9954 330.462 45.0295 331.345 45.0636 332.228C45.0892 332.928 45.1139 333.628 45.1488 334.327C45.1659 334.614 45.1744 334.899 45.1906 335.186C45.2162 335.711 45.2495 336.236 45.2836 336.761C45.3262 337.492 45.3689 338.224 45.4277 338.948C45.4618 339.52 45.5036 340.1 45.5462 340.682C45.5803 341.119 45.6136 341.557 45.6562 341.986C45.715 342.709 45.7832 343.441 45.8506 344.166C45.9179 344.921 45.9938 345.676 46.0783 346.424C46.1456 347.108 46.2215 347.789 46.2982 348.476C46.375 349.164 46.4585 349.852 46.554 350.536C46.6555 351.403 46.774 352.262 46.8951 353.121C47.0162 353.98 47.1398 354.839 47.2668 355.69C47.7824 359.115 48.3793 362.513 49.0574 365.885C69.7443 468.644 165.646 546.352 280.815 546.352C411.099 546.352 516.712 446.917 516.712 324.26C516.706 206.046 418.624 109.41 294.897 102.555Z" fill="#EAF5FF"/>
<path d="M141.107 361.064C140.651 359.505 140.212 357.923 139.806 356.34C139.713 355.982 139.62 355.624 139.536 355.267C139.324 354.424 139.13 353.581 138.939 352.738C138.796 352.086 138.652 351.434 138.513 350.774C138.342 349.994 138.192 349.215 138.04 348.427C137.921 347.791 137.803 347.155 137.693 346.518C137.608 346.042 137.533 345.572 137.457 345.095C137.364 344.515 137.271 343.934 137.187 343.353C137.137 343.032 137.085 342.717 137.052 342.399C136.959 341.826 136.882 341.245 136.816 340.665C136.706 339.846 136.613 339.026 136.529 338.2C136.487 337.866 136.453 337.532 136.419 337.19C136.343 336.474 136.284 335.758 136.224 335.034C136.148 334.159 136.081 333.277 136.03 332.394V332.331C135.98 331.647 135.945 330.966 135.92 330.279C135.903 330.032 135.894 329.786 135.886 329.539C135.86 328.959 135.835 328.371 135.827 327.782C135.81 327.381 135.801 326.979 135.801 326.573C135.784 325.802 135.776 325.031 135.776 324.259C135.723 288.84 150.341 254.797 176.525 229.365L112.278 168.874C69.0283 210.335 44.8315 266.146 44.911 324.258C44.911 326.04 44.9334 327.813 44.9784 329.579C44.9954 330.462 45.0295 331.345 45.0636 332.228C45.0892 332.928 45.1139 333.628 45.1488 334.328C45.1659 334.614 45.1744 334.9 45.1906 335.187C45.2162 335.712 45.2495 336.237 45.2836 336.762C45.3262 337.493 45.3688 338.225 45.4277 338.949C45.4618 339.521 45.5035 340.102 45.5462 340.682C45.5803 341.12 45.6136 341.557 45.6562 341.987C45.715 342.709 45.7832 343.442 45.8506 344.166C45.9179 344.922 45.9938 345.669 46.0783 346.425C46.1456 347.109 46.2215 347.79 46.2982 348.477C46.375 349.164 46.4585 349.853 46.554 350.537C46.6555 351.404 46.774 352.263 46.8951 353.122C47.0162 353.981 47.1398 354.84 47.2668 355.691C47.7824 359.116 48.3793 362.514 49.0574 365.886H142.652C142.643 365.866 142.637 365.844 142.635 365.822C142.088 364.245 141.589 362.663 141.107 361.064Z" fill="#ACD4F3"/>
<path d="M187.063 220.077C213.231 199.14 246.465 187.666 280.805 187.712V102.161C222.362 102.083 165.985 122.51 122.674 159.454L187.063 220.077Z" fill="#FED300"/>
<path d="M93.9804 260.306V262.29H78.7594V260.709L87.7804 251.874C88.917 250.758 89.6817 249.797 90.0744 248.991C90.4877 248.164 90.6944 247.338 90.6944 246.511C90.6944 245.23 90.25 244.238 89.3614 243.535C88.4934 242.812 87.243 242.45 85.6104 242.45C83.0684 242.45 81.0947 243.256 79.6894 244.868L78.1084 243.504C78.9557 242.512 80.0304 241.747 81.3324 241.21C82.655 240.673 84.143 240.404 85.7964 240.404C88.0077 240.404 89.754 240.931 91.0354 241.985C92.3374 243.018 92.9884 244.444 92.9884 246.263C92.9884 247.379 92.7404 248.454 92.2444 249.487C91.7484 250.52 90.808 251.709 89.4234 253.052L82.0454 260.306H93.9804ZM102.485 249.487C105.627 249.487 107.91 250.055 109.336 251.192C110.783 252.308 111.506 253.879 111.506 255.904C111.506 257.165 111.207 258.291 110.607 259.283C110.029 260.275 109.15 261.06 107.972 261.639C106.794 262.197 105.348 262.476 103.632 262.476C102.082 262.476 100.605 262.228 99.1995 261.732C97.8148 261.215 96.6988 260.533 95.8515 259.686L96.9365 257.919C97.6598 258.663 98.6105 259.273 99.7885 259.748C100.966 260.203 102.237 260.43 103.601 260.43C105.399 260.43 106.784 260.027 107.755 259.221C108.747 258.415 109.243 257.34 109.243 255.997C109.243 254.509 108.685 253.383 107.569 252.618C106.474 251.853 104.614 251.471 101.989 251.471H97.3705L98.4865 240.59H110.359V242.574H100.439L99.6955 249.487H102.485ZM130.894 245.984V260.306C130.894 263.075 130.212 265.121 128.848 266.444C127.505 267.787 125.469 268.459 122.741 268.459C121.232 268.459 119.796 268.232 118.432 267.777C117.089 267.343 115.993 266.733 115.146 265.948L116.262 264.274C117.047 264.977 117.998 265.524 119.114 265.917C120.251 266.31 121.439 266.506 122.679 266.506C124.746 266.506 126.265 266.02 127.236 265.049C128.207 264.098 128.693 262.61 128.693 260.585V258.508C128.011 259.541 127.112 260.327 125.996 260.864C124.901 261.401 123.681 261.67 122.338 261.67C120.809 261.67 119.414 261.339 118.153 260.678C116.913 259.996 115.931 259.056 115.208 257.857C114.505 256.638 114.154 255.263 114.154 253.734C114.154 252.205 114.505 250.841 115.208 249.642C115.931 248.443 116.913 247.513 118.153 246.852C119.393 246.191 120.788 245.86 122.338 245.86C123.723 245.86 124.973 246.139 126.089 246.697C127.205 247.255 128.104 248.061 128.786 249.115V245.984H130.894ZM122.555 259.717C123.733 259.717 124.797 259.469 125.748 258.973C126.699 258.456 127.432 257.743 127.949 256.834C128.486 255.925 128.755 254.891 128.755 253.734C128.755 252.577 128.486 251.554 127.949 250.665C127.432 249.756 126.699 249.053 125.748 248.557C124.818 248.04 123.754 247.782 122.555 247.782C121.377 247.782 120.313 248.03 119.362 248.526C118.432 249.022 117.698 249.725 117.161 250.634C116.644 251.543 116.386 252.577 116.386 253.734C116.386 254.891 116.644 255.925 117.161 256.834C117.698 257.743 118.432 258.456 119.362 258.973C120.313 259.469 121.377 259.717 122.555 259.717ZM144.272 262.538C147.775 262.538 150.534 260.988 151.743 258.322L147.992 256.276C147.093 257.888 145.76 258.57 144.241 258.57C141.792 258.57 139.87 256.865 139.87 253.951C139.87 251.037 141.792 249.332 144.241 249.332C145.76 249.332 147.093 250.045 147.992 251.626L151.743 249.611C150.534 246.883 147.775 245.364 144.272 245.364C138.847 245.364 134.972 248.929 134.972 253.951C134.972 258.973 138.847 262.538 144.272 262.538ZM161.254 245.364C158.588 245.364 155.891 246.077 154.062 247.379L155.798 250.758C157.007 249.797 158.836 249.208 160.603 249.208C163.207 249.208 164.447 250.417 164.447 252.494H160.603C155.519 252.494 153.442 254.54 153.442 257.485C153.442 260.368 155.767 262.538 159.673 262.538C162.122 262.538 163.858 261.732 164.757 260.213V262.29H169.283V252.773C169.283 247.72 166.338 245.364 161.254 245.364ZM160.882 259.283C159.177 259.283 158.154 258.477 158.154 257.268C158.154 256.152 158.867 255.315 161.13 255.315H164.447V257.02C163.889 258.539 162.494 259.283 160.882 259.283ZM84.4014 285.813V283.612H79.7824V300.29H84.6184V292.416C84.6184 289.223 86.3854 287.766 89.0514 287.766C89.4234 287.766 89.7334 287.797 90.1364 287.828V283.364C87.5634 283.364 85.5794 284.201 84.4014 285.813ZM102.87 283.364C100.793 283.364 99.0878 284.015 97.8478 285.379V277.288H93.0118V300.29H97.6308V298.368C98.8398 299.825 100.638 300.538 102.87 300.538C107.551 300.538 111.178 297.19 111.178 291.951C111.178 286.712 107.551 283.364 102.87 283.364ZM102.033 296.57C99.6148 296.57 97.7858 294.834 97.7858 291.951C97.7858 289.068 99.6148 287.332 102.033 287.332C104.451 287.332 106.28 289.068 106.28 291.951C106.28 294.834 104.451 296.57 102.033 296.57ZM120.026 300.538C125.017 300.538 127.9 298.337 127.9 295.237C127.9 288.665 117.825 291.424 117.825 288.572C117.825 287.704 118.755 287.022 120.925 287.022C122.444 287.022 124.087 287.332 125.73 288.262L127.342 284.821C125.761 283.891 123.219 283.364 120.925 283.364C116.058 283.364 113.206 285.596 113.206 288.758C113.206 295.423 123.281 292.633 123.281 295.361C123.281 296.291 122.444 296.88 120.212 296.88C118.166 296.88 115.903 296.229 114.415 295.268L112.803 298.74C114.353 299.763 117.205 300.538 120.026 300.538Z" fill="#4099F1"/>
<path d="M189.139 161.176C187.519 161.176 186.069 160.746 184.789 159.886C183.529 159.026 182.539 157.796 181.819 156.196C181.119 154.576 180.769 152.676 180.769 150.496C180.769 148.316 181.119 146.426 181.819 144.826C182.539 143.206 183.529 141.966 184.789 141.106C186.069 140.246 187.519 139.816 189.139 139.816C190.759 139.816 192.199 140.246 193.459 141.106C194.739 141.966 195.739 143.206 196.459 144.826C197.179 146.426 197.539 148.316 197.539 150.496C197.539 152.676 197.179 154.576 196.459 156.196C195.739 157.796 194.739 159.026 193.459 159.886C192.199 160.746 190.759 161.176 189.139 161.176ZM189.139 159.196C190.359 159.196 191.429 158.856 192.349 158.176C193.289 157.496 194.019 156.506 194.539 155.206C195.059 153.906 195.319 152.336 195.319 150.496C195.319 148.656 195.059 147.086 194.539 145.786C194.019 144.486 193.289 143.496 192.349 142.816C191.429 142.136 190.359 141.796 189.139 141.796C187.919 141.796 186.839 142.136 185.899 142.816C184.979 143.496 184.259 144.486 183.739 145.786C183.219 147.086 182.959 148.656 182.959 150.496C182.959 152.336 183.219 153.906 183.739 155.206C184.259 156.506 184.979 157.496 185.899 158.176C186.839 158.856 187.919 159.196 189.139 159.196ZM201.93 161.146C201.49 161.146 201.11 160.986 200.79 160.666C200.49 160.346 200.34 159.956 200.34 159.496C200.34 159.036 200.49 158.656 200.79 158.356C201.11 158.036 201.49 157.876 201.93 157.876C202.37 157.876 202.75 158.036 203.07 158.356C203.39 158.656 203.55 159.036 203.55 159.496C203.55 159.956 203.39 160.346 203.07 160.666C202.75 160.986 202.37 161.146 201.93 161.146ZM214.1 148.996C216.3 149.116 217.97 149.716 219.11 150.796C220.27 151.856 220.85 153.246 220.85 154.966C220.85 156.166 220.56 157.236 219.98 158.176C219.4 159.096 218.54 159.826 217.4 160.366C216.26 160.906 214.87 161.176 213.23 161.176C211.71 161.176 210.27 160.936 208.91 160.456C207.57 159.956 206.49 159.296 205.67 158.476L206.72 156.766C207.42 157.486 208.35 158.076 209.51 158.536C210.67 158.976 211.91 159.196 213.23 159.196C214.95 159.196 216.28 158.826 217.22 158.086C218.16 157.326 218.63 156.286 218.63 154.966C218.63 153.666 218.16 152.646 217.22 151.906C216.28 151.166 214.86 150.796 212.96 150.796H211.46V149.206L217.28 141.916H206.54V139.996H220.04V141.526L214.1 148.996ZM239.914 145.216V159.076C239.914 161.756 239.254 163.736 237.934 165.016C236.634 166.316 234.664 166.966 232.024 166.966C230.564 166.966 229.174 166.746 227.854 166.306C226.554 165.886 225.494 165.296 224.674 164.536L225.754 162.916C226.514 163.596 227.434 164.126 228.514 164.506C229.614 164.886 230.764 165.076 231.964 165.076C233.964 165.076 235.434 164.606 236.374 163.666C237.314 162.746 237.784 161.306 237.784 159.346V157.336C237.124 158.336 236.254 159.096 235.174 159.616C234.114 160.136 232.934 160.396 231.634 160.396C230.154 160.396 228.804 160.076 227.584 159.436C226.384 158.776 225.434 157.866 224.734 156.706C224.054 155.526 223.714 154.196 223.714 152.716C223.714 151.236 224.054 149.916 224.734 148.756C225.434 147.596 226.384 146.696 227.584 146.056C228.784 145.416 230.134 145.096 231.634 145.096C232.974 145.096 234.184 145.366 235.264 145.906C236.344 146.446 237.214 147.226 237.874 148.246V145.216H239.914ZM231.844 158.506C232.984 158.506 234.014 158.266 234.934 157.786C235.854 157.286 236.564 156.596 237.064 155.716C237.584 154.836 237.844 153.836 237.844 152.716C237.844 151.596 237.584 150.606 237.064 149.746C236.564 148.866 235.854 148.186 234.934 147.706C234.034 147.206 233.004 146.956 231.844 146.956C230.704 146.956 229.674 147.196 228.754 147.676C227.854 148.156 227.144 148.836 226.624 149.716C226.124 150.596 225.874 151.596 225.874 152.716C225.874 153.836 226.124 154.836 226.624 155.716C227.144 156.596 227.854 157.286 228.754 157.786C229.674 158.266 230.704 158.506 231.844 158.506ZM186.499 181.526C186.499 179.936 187.249 179.186 188.629 179.186C189.349 179.186 190.009 179.396 190.519 179.756L191.749 176.366C190.879 175.766 189.499 175.496 188.179 175.496C184.159 175.496 181.939 177.866 181.939 181.496V182.216H179.449V185.816H181.939V197.996H186.619V185.816H190.639V182.216H186.499V181.526ZM199.187 181.616C196.607 181.616 193.997 182.306 192.227 183.566L193.907 186.836C195.077 185.906 196.847 185.336 198.557 185.336C201.077 185.336 202.277 186.506 202.277 188.516H198.557C193.637 188.516 191.627 190.496 191.627 193.346C191.627 196.136 193.877 198.236 197.657 198.236C200.027 198.236 201.707 197.456 202.577 195.986V197.996H206.957V188.786C206.957 183.896 204.107 181.616 199.187 181.616ZM198.827 195.086C197.177 195.086 196.187 194.306 196.187 193.136C196.187 192.056 196.877 191.246 199.067 191.246H202.277V192.896C201.737 194.366 200.387 195.086 198.827 195.086ZM220.343 193.916C219.833 194.306 219.143 194.516 218.453 194.516C217.193 194.516 216.443 193.766 216.443 192.386V185.816H220.463V182.216H216.443V178.286H211.763V182.216H209.273V185.816H211.763V192.446C211.763 196.286 213.983 198.236 217.793 198.236C219.233 198.236 220.643 197.906 221.603 197.216L220.343 193.916Z" fill="#D19500"/>
<path d="M375.385 154.394C379.648 154.394 382.914 155.805 385.183 158.626C387.452 161.417 388.587 165.373 388.587 170.494C388.587 174.082 387.974 177.118 386.747 179.602C385.52 182.086 383.803 183.972 381.595 185.26C379.387 186.517 376.811 187.146 373.867 187.146C370.678 187.146 368.132 186.563 366.231 185.398L367.565 182.73C369.098 183.742 371.184 184.248 373.821 184.248C377.378 184.248 380.169 183.129 382.193 180.89C384.217 178.621 385.229 175.339 385.229 171.046C385.229 170.249 385.183 169.375 385.091 168.424C384.294 170.172 383.021 171.537 381.273 172.518C379.525 173.469 377.516 173.944 375.247 173.944C373.131 173.944 371.245 173.545 369.589 172.748C367.964 171.951 366.691 170.831 365.771 169.39C364.851 167.918 364.391 166.216 364.391 164.284C364.391 162.321 364.866 160.589 365.817 159.086C366.768 157.583 368.071 156.433 369.727 155.636C371.414 154.808 373.3 154.394 375.385 154.394ZM375.753 171.138C377.378 171.138 378.804 170.831 380.031 170.218C381.288 169.605 382.27 168.761 382.975 167.688C383.68 166.615 384.033 165.419 384.033 164.1C384.033 162.873 383.696 161.739 383.021 160.696C382.377 159.653 381.411 158.81 380.123 158.166C378.835 157.522 377.302 157.2 375.523 157.2C373.192 157.2 371.291 157.844 369.819 159.132C368.378 160.389 367.657 162.076 367.657 164.192C367.657 166.308 368.378 167.995 369.819 169.252C371.291 170.509 373.269 171.138 375.753 171.138ZM401.852 167.872C406.514 167.872 409.902 168.715 412.018 170.402C414.165 172.058 415.238 174.389 415.238 177.394C415.238 179.265 414.794 180.936 413.904 182.408C413.046 183.88 411.742 185.045 409.994 185.904C408.246 186.732 406.1 187.146 403.554 187.146C401.254 187.146 399.062 186.778 396.976 186.042C394.922 185.275 393.266 184.263 392.008 183.006L393.618 180.384C394.692 181.488 396.102 182.393 397.85 183.098C399.598 183.773 401.484 184.11 403.508 184.11C406.176 184.11 408.231 183.512 409.672 182.316C411.144 181.12 411.88 179.525 411.88 177.532C411.88 175.324 411.052 173.653 409.396 172.518C407.771 171.383 405.011 170.816 401.116 170.816H394.262L395.918 154.67H413.536V157.614H398.816L397.712 167.872H401.852ZM432.323 187.238C437.521 187.238 441.615 184.938 443.409 180.982L437.843 177.946C436.509 180.338 434.531 181.35 432.277 181.35C428.643 181.35 425.791 178.82 425.791 174.496C425.791 170.172 428.643 167.642 432.277 167.642C434.531 167.642 436.509 168.7 437.843 171.046L443.409 168.056C441.615 164.008 437.521 161.754 432.323 161.754C424.273 161.754 418.523 167.044 418.523 174.496C418.523 181.948 424.273 187.238 432.323 187.238ZM457.523 161.754C453.567 161.754 449.565 162.812 446.851 164.744L449.427 169.758C451.221 168.332 453.935 167.458 456.557 167.458C460.421 167.458 462.261 169.252 462.261 172.334H456.557C449.013 172.334 445.931 175.37 445.931 179.74C445.931 184.018 449.381 187.238 455.177 187.238C458.811 187.238 461.387 186.042 462.721 183.788V186.87H469.437V172.748C469.437 165.25 465.067 161.754 457.523 161.754ZM456.971 182.408C454.441 182.408 452.923 181.212 452.923 179.418C452.923 177.762 453.981 176.52 457.339 176.52H462.261V179.05C461.433 181.304 459.363 182.408 456.971 182.408ZM475.931 186.87H483.107V152.738H475.931V186.87ZM501.543 187.238C509.409 187.238 515.113 181.948 515.113 174.496C515.113 167.044 509.409 161.754 501.543 161.754C493.677 161.754 487.927 167.044 487.927 174.496C487.927 181.948 493.677 187.238 501.543 187.238ZM501.543 181.35C497.955 181.35 495.195 178.774 495.195 174.496C495.195 170.218 497.955 167.642 501.543 167.642C505.131 167.642 507.845 170.218 507.845 174.496C507.845 178.774 505.131 181.35 501.543 181.35ZM526.764 165.388V162.122H519.91V186.87H527.086V175.186C527.086 170.448 529.708 168.286 533.664 168.286C534.216 168.286 534.676 168.332 535.274 168.378V161.754C531.456 161.754 528.512 162.996 526.764 165.388ZM369.865 214.672C372.533 214.672 374.327 212.924 374.327 210.532C374.327 208.324 372.533 206.668 369.865 206.668C367.197 206.668 365.403 208.416 365.403 210.67C365.403 212.924 367.197 214.672 369.865 214.672ZM366.277 242.87H373.453V218.122H366.277V242.87ZM404.355 230.588C404.355 222.63 398.743 217.754 391.475 217.754C383.931 217.754 378.273 223.09 378.273 230.496C378.273 237.856 383.839 243.238 392.395 243.238C396.857 243.238 400.307 241.858 402.607 239.236L398.789 235.096C397.087 236.706 395.201 237.488 392.579 237.488C388.807 237.488 386.185 235.602 385.495 232.52H404.217C404.263 231.922 404.355 231.14 404.355 230.588ZM391.521 223.182C394.741 223.182 397.087 225.206 397.593 228.334H385.403C385.909 225.16 388.255 223.182 391.521 223.182ZM417.459 243.238C424.865 243.238 429.143 239.972 429.143 235.372C429.143 225.62 414.193 229.714 414.193 225.482C414.193 224.194 415.573 223.182 418.793 223.182C421.047 223.182 423.485 223.642 425.923 225.022L428.315 219.916C425.969 218.536 422.197 217.754 418.793 217.754C411.571 217.754 407.339 221.066 407.339 225.758C407.339 235.648 422.289 231.508 422.289 235.556C422.289 236.936 421.047 237.81 417.735 237.81C414.699 237.81 411.341 236.844 409.133 235.418L406.741 240.57C409.041 242.088 413.273 243.238 417.459 243.238Z" fill="#8F9BC1"/>
<path d="M186.258 341.229C186.258 341.229 145.712 359.123 113.187 347.989C80.6616 336.855 50.819 324.528 29.2078 356.538C7.59668 388.549 10.8376 446.153 38.992 491.843C67.1464 537.533 77.9375 545.954 98.4018 547.278C118.866 548.602 123.352 541.156 135.151 539.508C146.95 537.86 160.626 544.743 173.758 544.783C186.889 544.823 198.83 532.019 198.83 532.019L186.258 341.229Z" fill="url(#paint2_linear_1_274)"/>
<path d="M183.889 347.989C186.819 380.554 156.652 424.935 167.543 442.366C178.434 459.797 164.298 526.218 133.37 532.016C117.302 535.029 109.93 541.655 106.544 547.331C120.357 546.511 125.111 540.909 135.153 539.507C146.949 537.859 160.628 544.742 173.759 544.782C186.891 544.822 198.832 532.018 198.832 532.018L186.324 342.241C184.474 342.36 183.548 344.19 183.889 347.989Z" fill="#6AD419"/>
<path opacity="0.3" d="M73.9803 502.916C48.7096 508.726 48.1451 476.425 54.482 460.13C60.8189 443.834 29.1405 415.991 42.747 411.089C56.3535 406.188 55.749 435.078 67.1719 423.148C78.5948 411.219 43.0779 384.974 47.3053 365.008C50.6306 349.301 80.3478 343.102 92.8766 341.173C68.3596 333.627 46.2369 331.336 29.2155 356.543C7.6001 388.549 10.8376 446.153 38.992 491.843C67.1463 537.533 77.9374 545.954 98.4018 547.278C101.149 547.467 103.907 547.483 106.656 547.325C106.839 527.12 92.0069 498.772 73.9803 502.916Z" fill="url(#paint3_linear_1_274)"/>
<path d="M132.39 317.025C132.39 317.025 145.094 285.89 171.214 282.427C197.334 278.964 227.868 282.427 227.868 282.427C227.868 282.427 217.934 307.017 193.655 324.33C169.376 341.643 142.431 338.138 135.118 333.66C127.804 329.182 132.39 317.025 132.39 317.025Z" fill="url(#paint4_linear_1_274)"/>
<path d="M132.465 354.12C143.417 353.63 154.284 352.063 164.89 349.446C181.505 345.208 184.948 354.12 156.99 361.047C129.031 367.974 112.908 365.202 98.5595 357.409C84.2112 349.616 88.072 346.154 97.0879 345.634C106.104 345.114 116.746 355.57 132.465 354.12Z" fill="#6AD419"/>
<path d="M129.4 358.506C129.4 358.506 132.343 361.739 134.673 358.506C136.069 346.589 135.739 334.55 133.692 322.717C131.791 312.494 128.276 305.488 125.515 301.271C125.067 300.593 124.475 300.01 123.776 299.559C123.077 299.108 122.285 298.799 121.453 298.651C120.62 298.503 119.763 298.519 118.937 298.699C118.112 298.879 117.335 299.218 116.655 299.695L116.464 299.829C115.815 300.282 115.268 300.852 114.855 301.506C114.441 302.159 114.17 302.884 114.056 303.637C113.943 304.39 113.989 305.157 114.192 305.893C114.396 306.63 114.752 307.321 115.242 307.926C119.723 313.689 123.16 320.111 125.414 326.93C128.856 337.123 130.209 347.838 129.4 358.506Z" fill="url(#paint5_linear_1_274)"/>
<path d="M36.7214 414.041C36.8268 414.041 36.9321 414.036 37.0369 414.025C37.416 413.987 37.7835 413.879 38.1182 413.707C38.4529 413.535 38.7482 413.302 38.9874 413.023C39.2265 412.743 39.4046 412.422 39.5116 412.077C39.6187 411.733 39.6524 411.372 39.611 411.015C37.8853 395.982 39.5599 382.096 44.206 372.916C44.5371 372.262 44.5787 371.511 44.3215 370.828C44.0643 370.144 43.5294 369.585 42.8345 369.274C42.1396 368.962 41.3416 368.923 40.616 369.165C39.8904 369.407 39.2968 369.911 38.9656 370.565C33.8693 380.634 32.0012 395.591 33.8395 411.602C33.9154 412.271 34.2518 412.891 34.7838 413.341C35.3158 413.792 36.006 414.041 36.7214 414.041V414.041Z" fill="white"/>
<path d="M49.8881 364.866C50.4361 364.866 50.9729 364.72 51.4356 364.443C53.2604 363.258 55.4281 362.631 57.6446 362.645C58.4144 362.645 59.1526 362.357 59.6969 361.845C60.2412 361.332 60.547 360.637 60.547 359.912C60.547 359.188 60.2412 358.493 59.6969 357.98C59.1526 357.468 58.4144 357.18 57.6446 357.18C54.3308 357.164 51.0882 358.085 48.3354 359.822C47.8032 360.138 47.3946 360.609 47.1712 361.163C46.9479 361.717 46.9218 362.324 47.097 362.894C47.2722 363.463 47.6392 363.963 48.1426 364.319C48.646 364.675 49.2586 364.867 49.8881 364.866V364.866Z" fill="white"/>
<path d="M283.303 147.357C283.303 147.357 276.01 129.484 261.016 127.496C246.022 125.507 228.494 127.496 228.494 127.496C232.778 136.948 239.534 145.224 248.134 151.553C262.072 161.494 277.539 159.48 281.738 156.908C285.936 154.336 283.303 147.357 283.303 147.357Z" fill="url(#paint6_linear_1_274)"/>
<path d="M228.497 258.52C228.497 258.52 207.378 235.854 210.335 199.669C213.292 163.483 236.938 159.307 248.556 161.892C260.174 164.477 275.798 170.642 288.891 166.468C301.985 162.293 317.19 153.147 333.239 162.69C349.289 172.233 353.231 194.766 350.974 214.387C348.717 234.008 333.516 258.526 324.224 264.988L228.497 258.52Z" fill="url(#paint7_linear_1_274)"/>
<path opacity="0.3" d="M333.239 162.687C325.549 158.111 318.053 157.836 310.889 159.243C318.782 165.333 307.746 182.706 310.995 187.076C314.937 192.374 323.667 180.183 321.341 192.112C319.016 204.041 316.626 209.078 323.766 209.344C330.906 209.61 327.326 220.478 318.122 240.625C311.249 255.666 292.465 260.659 283.383 262.225L324.225 264.981C333.519 258.52 348.721 233.995 350.975 214.381C353.229 194.766 349.289 172.23 333.239 162.687Z" fill="url(#paint8_linear_1_274)"/>
<path d="M333.346 214.574C333.269 214.574 333.193 214.57 333.116 214.562C332.84 214.535 332.573 214.456 332.329 214.331C332.085 214.206 331.87 214.037 331.696 213.834C331.522 213.63 331.392 213.396 331.314 213.146C331.236 212.895 331.211 212.632 331.241 212.372C332.496 201.435 331.278 191.333 327.897 184.654C327.773 184.418 327.699 184.16 327.681 183.897C327.663 183.634 327.7 183.369 327.792 183.12C327.883 182.87 328.026 182.641 328.213 182.444C328.4 182.247 328.626 182.087 328.879 181.973C329.132 181.86 329.407 181.795 329.687 181.782C329.967 181.769 330.247 181.809 330.51 181.899C330.774 181.99 331.015 182.128 331.221 182.307C331.427 182.486 331.593 182.702 331.71 182.942C335.418 190.268 336.777 201.15 335.439 212.799C335.383 213.286 335.139 213.736 334.753 214.063C334.367 214.391 333.866 214.573 333.346 214.574V214.574Z" fill="white"/>
<path d="M259.727 260.628C256.806 257.759 255.504 252.458 250.177 253.615C242.856 255.205 249.332 248.048 245.39 241.951C241.449 235.854 236.662 243.541 229.621 239.035C222.581 234.528 241.166 215.972 235.253 212.586C229.34 209.2 228.773 224.189 221.457 218.622C216.327 214.722 216.243 190.779 216.652 176.798C213.46 182.405 211.136 189.859 210.335 199.67C207.379 235.856 228.496 258.522 228.496 258.522L259.727 260.628Z" fill="#C7283A"/>
<path d="M323.766 178.797C323.368 178.797 322.977 178.691 322.64 178.49C321.312 177.627 319.734 177.171 318.121 177.181C317.561 177.181 317.024 176.972 316.628 176.599C316.232 176.226 316.009 175.72 316.009 175.193C316.009 174.665 316.232 174.16 316.628 173.787C317.024 173.414 317.561 173.204 318.121 173.204C320.532 173.195 322.891 173.866 324.893 175.131C325.28 175.361 325.577 175.704 325.739 176.107C325.902 176.51 325.921 176.951 325.793 177.365C325.666 177.779 325.399 178.143 325.033 178.402C324.666 178.661 324.221 178.801 323.763 178.8L323.766 178.797Z" fill="white"/>
<path d="M283.26 168.652C276.973 168.37 270.735 167.471 264.646 165.968C255.109 163.534 253.136 168.652 269.182 172.631C285.228 176.61 294.488 175.017 302.724 170.544C310.96 166.071 308.743 164.083 303.569 163.784C298.395 163.485 292.284 169.484 283.26 168.652Z" fill="#C7283A"/>
<path d="M285.02 171.171C285.02 171.171 283.331 173.026 281.993 171.171C281.192 164.33 281.381 157.418 282.556 150.625C283.28 146.279 284.873 142.102 287.25 138.314C287.507 137.925 287.847 137.591 288.248 137.332C288.65 137.073 289.104 136.896 289.582 136.811C290.06 136.726 290.551 136.735 291.025 136.838C291.499 136.942 291.945 137.136 292.335 137.41L292.445 137.491C292.818 137.751 293.132 138.078 293.369 138.453C293.606 138.829 293.762 139.245 293.827 139.677C293.893 140.109 293.866 140.55 293.749 140.972C293.633 141.395 293.428 141.792 293.147 142.139C290.575 145.448 288.602 149.134 287.307 153.049C285.332 158.898 284.556 165.048 285.02 171.171V171.171Z" fill="url(#paint9_linear_1_274)"/>
<path d="M344.437 281.134H219.898C198.355 281.134 180.89 297.577 180.89 317.859V435.111C180.89 455.394 198.355 471.836 219.898 471.836H344.437C365.981 471.836 383.445 455.394 383.445 435.111V317.859C383.445 297.577 365.981 281.134 344.437 281.134Z" fill="url(#paint10_linear_1_274)"/>
<path d="M282.168 454.554C327.963 454.554 365.088 419.601 365.088 376.485C365.088 333.369 327.963 298.417 282.168 298.417C236.372 298.417 199.247 333.369 199.247 376.485C199.247 419.601 236.372 454.554 282.168 454.554Z" fill="url(#paint11_linear_1_274)"/>
<path d="M283.012 306.37H281.323V319.359H283.012V306.37Z" fill="#1D164D"/>
<path d="M230.104 326.344L228.91 327.468L238.666 336.654L239.86 335.529L230.104 326.344Z" fill="#1D164D"/>
<path d="M221.492 375.69H207.694V377.28H221.492V375.69Z" fill="#1D164D"/>
<path d="M238.665 416.317L228.91 425.502L230.104 426.627L239.86 417.442L238.665 416.317Z" fill="#1D164D"/>
<path d="M283.012 433.611H281.323V446.6H283.012V433.611Z" fill="#1D164D"/>
<path d="M325.669 416.317L324.475 417.442L334.231 426.626L335.425 425.502L325.669 416.317Z" fill="#1D164D"/>
<path d="M356.641 375.69H342.844V377.28H356.641V375.69Z" fill="#1D164D"/>
<path d="M334.231 326.343L324.475 335.529L325.669 336.653L335.426 327.468L334.231 326.343Z" fill="#1D164D"/>
<path d="M276.362 363.498L267.915 357.187L252.567 376.484L329.949 400.464L291.258 372.047C291.258 372.047 293.679 360.581 276.362 363.498Z" fill="#1D164D"/>
<path d="M321.341 271.443H242.994V280.887H321.341V271.443Z" fill="url(#paint12_linear_1_274)"/>
<path d="M219.481 258.519H344.854C344.854 261.947 343.408 265.234 340.833 267.658C338.259 270.082 334.767 271.443 331.127 271.443H233.209C229.568 271.443 226.076 270.082 223.502 267.658C220.927 265.234 219.481 261.947 219.481 258.519V258.519Z" fill="url(#paint13_linear_1_274)"/>
<path d="M638.184 281.333H424.663V546.348H638.184V281.333Z" fill="url(#paint14_linear_1_274)"/>
<path d="M638.184 281.333H570.97V546.348H638.184V281.333Z" fill="url(#paint15_linear_1_274)"/>
<path d="M604.577 281.333H570.97L587.774 253.46L604.578 225.587L621.382 253.46L638.186 281.333H604.577Z" fill="#4099F1"/>
<path d="M458.36 225.588H604.577L570.97 281.333H424.753L458.36 225.588Z" fill="url(#paint16_linear_1_274)"/>
<path d="M604.577 204.916H458.36V225.588H604.577V204.916Z" fill="#ACD4F3"/>
<path opacity="0.3" d="M540.964 319.73H424.663V478.547H540.964V319.73Z" fill="white"/>
<path d="M135.153 417.896C135.153 417.896 121.919 402.918 120.09 394.7C118.26 386.483 115.021 384.892 107.137 382.108C103.454 380.892 99.6601 380.001 95.8028 379.444C94.8559 379.299 93.8869 379.35 92.9629 379.593C92.039 379.836 91.1824 380.266 90.4523 380.852C89.7223 381.438 89.1363 382.166 88.7351 382.987C88.3339 383.807 88.1271 384.7 88.129 385.603V389.384C88.1419 392.283 88.8664 395.14 90.246 397.732C91.6255 400.324 93.6227 402.58 96.0816 404.325C102.637 409.028 110.965 417.214 111.642 428.753C112.768 447.985 108.161 469.533 135.152 495.834C162.144 522.136 210.227 540.127 258.217 545.418C306.208 550.709 388.591 533.216 427.226 497.822C465.86 462.428 468.584 450.635 468.494 438.971C468.403 427.306 468.821 419.884 473.045 415.775C473.045 415.775 475.177 403.365 467.774 400.362C464.724 399.088 461.423 398.434 458.086 398.441C454.749 398.448 451.451 399.117 448.407 400.403C443.48 402.524 439.996 404.38 431.337 405.771C422.678 407.162 387.025 430.496 359.994 444.012C332.962 457.528 305.036 468.666 271.132 455.411C237.227 442.156 189.923 420.491 169.368 417.009C148.814 413.527 135.153 417.896 135.153 417.896Z" fill="#FED300"/>
<path opacity="0.3" d="M206.656 441.848C245.111 471.578 264.105 479.564 285.79 479.946C307.474 480.327 290.158 473.32 296.916 468.867C303.673 464.415 309.164 482.916 324.371 482.612C339.578 482.309 321.313 471.658 329.493 465.931C337.672 460.204 387.132 459.645 391.651 444.933C393.873 437.708 396.136 429.004 400.312 421.627C387.449 429.045 372.759 437.618 359.991 444.005C332.962 457.525 305.034 468.659 271.129 455.404C237.225 442.149 189.921 420.484 169.366 417.002C148.811 413.519 135.154 417.893 135.154 417.893C135.154 417.893 168.205 412.119 206.656 441.848Z" fill="white"/>
<path d="M468.49 438.967C468.396 427.303 468.818 419.88 473.042 415.772C473.042 415.772 474.364 408.037 471.279 403.301C469.94 410.847 464.453 416.17 459.347 417.002C454.242 417.833 461.356 424.653 455.443 437.171C449.53 449.689 422.061 451.351 410.588 475.153C399.115 498.955 393.779 493.313 390.087 479.941C386.395 466.57 337.464 506.037 310.625 519.838C283.785 533.639 249.05 504.445 192.479 503.382C135.909 502.319 120.09 462.026 124.031 444.53C127.972 427.034 122.623 411.659 109.389 402.285C99.8316 395.516 104.077 386.567 107.172 382.115L107.133 382.1C103.45 380.885 99.6559 379.993 95.7986 379.437C94.8517 379.292 93.8827 379.343 92.9587 379.586C92.0348 379.829 91.1782 380.259 90.4481 380.845C89.7181 381.43 89.1321 382.159 88.7309 382.979C88.3297 383.8 88.1229 384.692 88.1248 385.596V389.377C88.1378 392.276 88.8622 395.133 90.2418 397.725C91.6213 400.316 93.6185 402.573 96.0774 404.318C102.633 409.021 110.961 417.206 111.637 428.746C112.764 447.977 108.157 469.526 135.148 495.827C162.14 522.129 210.223 540.12 258.213 545.411C306.204 550.702 388.587 533.209 427.221 497.815C465.856 462.421 468.585 450.635 468.49 438.967Z" fill="#EAAD03"/>
<path d="M118.342 389.549C116.285 385.591 112.995 384.176 107.136 382.108C103.454 380.892 99.6594 380.001 95.8021 379.444C94.4848 379.24 93.1328 379.418 91.9255 379.955C90.7182 380.491 89.7127 381.36 89.0423 382.447C90.0092 390.354 102.413 392.293 110.798 391.784C115.347 391.507 117.408 390.475 118.342 389.549Z" fill="#1D164D"/>
<path d="M467.77 400.359C465.611 399.475 463.329 398.885 460.993 398.608C461.145 402.363 462.554 405.976 465.021 408.929L473.042 415.775C473.042 415.775 475.169 403.365 467.77 400.359Z" fill="#1D164D"/>
<path d="M110.055 506.012C130.629 534.775 117.378 550.105 96.0784 557.041C74.7793 563.977 50.3314 561.317 38.6101 551.525C26.8887 541.733 34.6248 528.749 34.6248 528.749C40.4441 529.562 46.7742 520.909 47.6524 511.169C48.5306 501.428 59.0088 497.571 57.6283 494.552C56.2479 491.532 49.8872 492.56 49.8872 492.56C49.8872 492.56 55.952 480.568 63.8433 475.782C71.7345 470.997 89.4798 477.251 110.055 506.012Z" fill="url(#paint17_linear_1_274)"/>
<path d="M90.4177 554.483C84.4867 557.493 80.0666 558.795 80.9704 550.825C81.8742 542.856 80.1339 537.667 76.8223 536.589C73.5106 535.511 76.4411 539.35 68.5516 542.01C62.7732 543.959 72.8779 551.773 51.5285 551.374C35.0366 551.065 34.6256 528.751 34.6256 528.751L34.6205 528.755C34.5251 528.916 26.9603 541.794 38.61 551.524C50.3331 561.317 74.7725 563.971 96.0784 557.039C96.8657 556.783 97.6413 556.516 98.4053 556.237C95.4833 554.848 93.4131 552.961 90.4177 554.483Z" fill="#C7283A"/>
<path opacity="0.3" d="M110.056 506.012C123.669 525.051 122.47 538.198 113.93 546.928C114.554 544.17 114.534 541.317 113.871 538.567C113.209 535.817 111.92 533.235 110.093 531C99.3696 517.07 83.5761 529.679 83.6349 513.264C83.6937 496.85 82.587 496.198 75.1783 496.934C67.7697 497.67 75.0684 491.957 72.5104 485.118C72.4721 485 72.4239 484.886 72.3663 484.776C71.3841 482.453 70.3021 483.221 69.0734 484.96C67.1549 487.703 64.8861 492.873 62.1209 492.224C57.5269 491.149 61.212 498.829 51.9361 501.995C55.0056 498.485 58.4588 496.368 57.6257 494.555C56.2453 491.536 49.8846 492.563 49.8846 492.563C49.8846 492.563 55.9494 480.571 63.8407 475.786C71.7319 471 89.484 477.251 110.056 506.012Z" fill="url(#paint18_linear_1_274)"/>
<path d="M39.8379 505.186C39.8379 505.186 36.6243 504.275 33.6716 500.305C30.7188 496.334 29.723 496.376 28.7876 497.934C27.8523 499.493 30.0547 505.993 38.5794 509.236C38.5794 509.236 30.7879 519.249 34.6249 528.752C40.4442 529.564 46.775 520.906 47.6516 511.172C48.5281 501.438 59.0054 497.573 57.6275 494.555C56.2497 491.536 49.8821 492.565 49.8821 492.565C49.8821 492.565 43.7797 494.379 39.8379 505.186Z" fill="url(#paint19_linear_1_274)"/>
<path d="M54.6424 548.407C54.8321 548.492 55.0011 548.613 55.1389 548.763C55.2767 548.913 55.3805 549.087 55.4436 549.276C55.5068 549.465 55.528 549.664 55.506 549.861C55.484 550.058 55.4193 550.248 55.3159 550.421C55.2124 550.593 55.0724 550.744 54.9045 550.863C54.7367 550.982 54.5446 551.068 54.3402 551.114C54.1358 551.161 53.9233 551.167 53.7162 551.133C53.509 551.099 53.3114 551.026 53.1357 550.917C52.3999 550.526 49.408 547.278 49.408 547.278C49.408 547.278 53.9057 548.015 54.6424 548.407Z" fill="#FBDA91"/>
<path d="M63.7725 535.624C63.9622 535.709 64.1312 535.83 64.2691 535.98C64.4069 536.13 64.5106 536.304 64.5738 536.493C64.6369 536.682 64.6582 536.881 64.6362 537.078C64.6142 537.275 64.5495 537.465 64.446 537.638C64.3425 537.81 64.2026 537.961 64.0347 538.08C63.8669 538.199 63.6748 538.285 63.4704 538.331C63.2659 538.378 63.0535 538.384 62.8463 538.35C62.6392 538.316 62.4416 538.243 62.2659 538.134C61.5301 537.742 58.5381 534.494 58.5381 534.494C58.5381 534.494 63.0375 535.232 63.7725 535.624Z" fill="#FBDA91"/>
<path d="M83.9009 533.143C84.0881 533.23 84.2544 533.352 84.3897 533.502C84.525 533.652 84.6265 533.826 84.6879 534.013C84.7493 534.201 84.7693 534.399 84.7468 534.594C84.7243 534.79 84.6598 534.979 84.557 535.15C84.4543 535.321 84.3156 535.47 84.1494 535.589C83.9832 535.708 83.793 535.794 83.5904 535.841C83.3878 535.888 83.1771 535.896 82.9711 535.864C82.7652 535.832 82.5683 535.761 82.3926 535.655C81.6568 535.264 78.6649 532.016 78.6649 532.016C78.6649 532.016 83.1651 532.754 83.9009 533.143Z" fill="#FBDA91"/>
<path d="M91.261 493.946C91.4739 493.999 91.6722 494.095 91.8428 494.226C92.0133 494.357 92.1522 494.521 92.2501 494.707C92.3479 494.893 92.4026 495.097 92.4104 495.304C92.4182 495.511 92.379 495.718 92.2953 495.91C92.2117 496.102 92.0855 496.274 91.9253 496.417C91.765 496.559 91.5744 496.668 91.366 496.735C91.1577 496.803 90.9365 496.828 90.7171 496.809C90.4977 496.789 90.2852 496.726 90.0937 496.624C89.2002 496.278 85.2336 493.182 85.2336 493.182C85.2336 493.182 90.3666 493.6 91.261 493.946Z" fill="#F9E2B2"/>
<path d="M89.1814 514.588C89.3718 514.673 89.5416 514.794 89.6801 514.943C89.8186 515.093 89.9229 515.268 89.9865 515.457C90.0501 515.646 90.0717 515.845 90.0498 516.043C90.0279 516.24 89.9631 516.431 89.8594 516.604C89.7557 516.777 89.6153 516.927 89.447 517.047C89.2787 517.166 89.086 517.252 88.8811 517.298C88.6761 517.344 88.4632 517.35 88.2557 517.316C88.0481 517.281 87.8504 517.207 87.6748 517.097C86.939 516.706 83.947 513.458 83.947 513.458C83.947 513.458 88.4448 514.195 89.1814 514.588Z" fill="#F9E2B2"/>
<path d="M76.2092 502.132C76.3989 502.217 76.5679 502.339 76.7058 502.488C76.8436 502.638 76.9473 502.813 77.0104 503.001C77.0736 503.19 77.0948 503.389 77.0729 503.586C77.0509 503.783 76.9862 503.974 76.8827 504.146C76.7792 504.319 76.6392 504.469 76.4714 504.588C76.3035 504.708 76.1115 504.793 75.907 504.84C75.7026 504.886 75.4902 504.893 75.283 504.859C75.0758 504.825 74.8782 504.751 74.7026 504.642C73.9667 504.25 70.9748 501.003 70.9748 501.003C70.9748 501.003 75.4734 501.739 76.2092 502.132Z" fill="#FBDA91"/>
<path d="M72.3672 484.776C71.6518 484.87 70.2441 484.937 69.0743 484.96C70.3029 483.221 71.3849 482.453 72.3672 484.776Z" fill="#FBDA91"/>
<path d="M73.9591 483.238C74.1296 483.824 73.578 484.488 72.7151 484.714C72.6004 484.74 72.4843 484.761 72.3672 484.776C71.385 482.453 70.303 483.22 69.0743 484.96C68.1006 484.998 67.2906 485.005 67.1729 485.007C68.76 484.109 70.3988 483.295 72.0816 482.567C72.426 482.429 72.8138 482.422 73.1638 482.547C73.5138 482.672 73.7988 482.92 73.9591 483.238Z" fill="#F9E2B2"/>
<path d="M92.0121 545.913C92.2026 545.998 92.3723 546.119 92.5109 546.268C92.6494 546.418 92.7537 546.593 92.8173 546.782C92.8809 546.971 92.9024 547.17 92.8806 547.368C92.8587 547.565 92.7939 547.756 92.6902 547.929C92.5865 548.102 92.446 548.252 92.2777 548.372C92.1094 548.491 91.9168 548.577 91.7118 548.623C91.5069 548.669 91.294 548.675 91.0864 548.641C90.8789 548.606 90.6812 548.532 90.5055 548.422C89.7697 548.031 86.7778 544.782 86.7778 544.782C86.7778 544.782 91.2763 545.52 92.0121 545.913Z" fill="#FBDA91"/>
<path d="M51.931 501.996C51.8688 501.991 49.3373 501.823 45.5012 508.353C41.6165 514.963 41.568 520.42 38.9171 521.598C37.436 522.256 35.7307 519.677 34.514 517.274C33.2154 521.009 33.2544 525.042 34.6249 528.754C40.4442 529.567 46.775 520.908 47.6515 511.173C48.0244 507.768 49.521 504.559 51.931 501.996V501.996Z" fill="#6BBC61"/>
<path d="M216.145 406.937L234.931 415.391V403.859L219.487 388.939C218.492 387.98 217.368 387.148 216.142 386.466L216.145 406.937Z" fill="url(#paint20_linear_1_274)"/>
<path d="M226.172 409.525C222.687 407.736 224.271 404.455 219.942 402.566C216.873 401.225 216.249 398.239 216.145 396.614V406.937L234.932 415.391L229.816 398.913C226.875 401.871 226.172 409.525 226.172 409.525Z" fill="#C9E2F4"/>
<path d="M253.692 428.378C252.451 428.441 249.9 428.441 246.701 428.418L246.219 428.41C236.589 428.322 221.528 427.948 217.485 427.848C217.249 427.848 217.046 427.84 216.888 427.832L216.462 427.824V435.076H171.273L179.61 392.441L179.746 391.765C180.058 390.173 180.795 388.682 181.887 387.432C182.979 386.181 184.39 385.212 185.988 384.615L189.46 383.319H189.469L198.363 380.003L208.576 383.813L212.681 385.017C213.893 385.37 215.056 385.859 216.145 386.472V414.398L246.698 420.521C247.965 420.784 249.262 420.896 250.558 420.855C252.991 420.267 252.712 419.033 253.414 419.63C254.115 420.226 252.713 422.215 252.713 422.215C258.55 423.408 260.662 420.625 261.861 421.69C263.06 422.755 259.259 428.115 253.692 428.378Z" fill="url(#paint21_linear_1_274)"/>
<path d="M216.458 427.82V435.073H206.549C207.757 433.968 207.9 432.846 205.265 432.091C198.296 430.103 195.129 430.699 194.284 424.934C193.439 419.168 181.435 419.843 182.035 410.618C182.242 406.699 181.964 402.771 181.207 398.912C181.613 399.773 182.09 400.603 182.635 401.393L197.485 422.898C198.328 424.115 199.46 425.13 200.792 425.863C202.124 426.596 203.619 427.027 205.159 427.121L216.458 427.82Z" fill="#4099F1"/>
<path d="M199.141 373.836C199.141 373.836 198.789 372.643 195.34 369.793C191.891 366.944 190.694 359.123 196.748 358.46C196.748 358.46 196.959 354.086 201.464 353.357C205.968 352.628 215.402 353.689 219.062 352.496C222.721 351.303 220.751 362.105 212.797 365.949C208.037 368.245 203.472 370.881 199.141 373.836V373.836Z" fill="url(#paint22_linear_1_274)"/>
<path d="M214.561 361.311C214.561 361.311 214.702 372.246 214.135 375.493C213.568 378.74 211.249 379.337 208.574 378.741V383.811L206.04 387.29L198.366 380V370.192C198.366 370.192 195.339 369.214 196.078 366.679C196.818 364.144 199.879 364.393 200.83 367.226C201.439 366.474 201.857 365.601 202.052 364.673C202.247 363.746 202.215 362.788 201.957 361.874C201.957 361.874 208.503 364.69 214.561 361.311Z" fill="url(#paint23_linear_1_274)"/>
<path d="M201.957 375.493C201.957 375.493 203.558 380.619 208.574 380.81V378.741C208.574 378.741 204.174 378.111 201.957 375.493Z" fill="#1D164D"/>
<path d="M216.458 435.074V537.024H205.032L192.172 467.545L163.105 537.024H151.321L171.273 435.074H216.458Z" fill="url(#paint24_linear_1_274)"/>
<path d="M307.054 435.074C290.581 466.09 269.886 462.774 252.992 448.729C236.097 434.684 226.527 413.339 229.812 398.914C233.098 384.489 248.912 384.44 248.912 384.44C251.024 389.609 262.14 390.541 271.576 386.467C281.012 382.394 289.737 389.084 291.849 386.467C293.961 383.851 289.879 379.141 289.879 379.141C289.879 379.141 303.952 378.211 312.264 382.323C320.577 386.434 323.526 404.058 307.054 435.074Z" fill="url(#paint25_linear_1_274)"/>
<path d="M252.569 442.829C246.867 439.448 243.488 436.466 251.302 433.286C259.115 430.105 263.058 426.126 262.425 422.881C261.791 419.636 259.684 423.925 253.344 418.772C248.698 414.994 246.445 427.12 236.309 409.427C228.479 395.758 248.909 384.441 248.909 384.441H248.902C248.706 384.441 233.078 384.579 229.812 398.916C226.526 413.342 236.097 434.68 252.992 448.733C253.617 449.252 254.247 449.756 254.882 450.244C254.725 447.164 255.453 444.54 252.569 442.829Z" fill="#C7283A"/>
<path d="M253.693 428.377C259.26 428.115 263.061 422.747 261.861 421.689C260.661 420.631 258.55 423.407 252.713 422.214C252.713 422.214 254.116 420.226 253.414 419.629C252.712 419.033 252.987 420.266 250.558 420.854C249.261 420.892 247.964 420.778 246.697 420.515V420.515V428.415C249.902 428.443 252.454 428.438 253.693 428.377Z" fill="url(#paint26_linear_1_274)"/>
<path d="M151.321 537.022H163.105L159.228 546.279H149.514L151.321 537.022Z" fill="url(#paint27_linear_1_274)"/>
<path d="M216.458 537.022V546.279H206.743L205.029 537.022H216.458Z" fill="url(#paint28_linear_1_274)"/>
<path d="M246.699 420.512V428.415L246.217 428.407L217.483 427.845L216.886 427.829L216.46 427.821L205.159 427.124C203.619 427.03 202.123 426.599 200.791 425.865C199.459 425.131 198.327 424.114 197.485 422.896L182.633 401.393C180.788 398.719 179.743 395.625 179.609 392.438L179.744 391.762C180.057 390.171 180.793 388.68 181.885 387.429C182.977 386.179 184.388 385.21 185.987 384.613L189.459 383.317H189.661C191.525 383.317 193.346 383.839 194.893 384.816C196.441 385.793 197.645 387.181 198.353 388.804L207.738 412.713L216.144 414.398L246.699 420.512Z" fill="url(#paint29_linear_1_274)"/>
<path d="M201.215 445.931L192.172 467.545L194.836 481.944L201.215 445.931Z" fill="#1D164D"/>
<path d="M150.618 540.621C149.873 540.621 149.151 540.866 148.579 541.315C148.007 541.764 147.619 542.387 147.484 543.077L145.989 550.723C145.904 551.16 145.921 551.609 146.041 552.039C146.16 552.469 146.379 552.868 146.681 553.21C146.983 553.551 147.361 553.826 147.788 554.015C148.216 554.203 148.682 554.301 149.154 554.301H180.979C181.315 554.301 181.637 554.175 181.875 553.952C182.112 553.728 182.246 553.425 182.246 553.108V553.108C182.246 552.654 182.107 552.209 181.846 551.826C181.585 551.444 181.212 551.141 180.773 550.952L160.846 542.412C160.846 542.412 152.92 546.358 150.618 540.621Z" fill="url(#paint30_linear_1_274)"/>
<path d="M164.064 546.284C165.408 545.826 166.846 545.663 168.268 545.807C168.754 545.912 168.897 546.036 168.911 546.075C168.963 546.219 168.541 546.71 168.315 546.974C167.844 547.52 167.311 548.139 167.428 548.793C167.469 548.981 167.554 549.159 167.677 549.313C167.8 549.467 167.957 549.594 168.137 549.685C168.494 549.908 168.911 550.03 169.34 550.035C170.235 549.929 171.074 549.566 171.744 548.997C172.345 548.537 173.027 548.182 173.76 547.947L172.689 547.488C172.186 547.739 171.705 548.027 171.251 548.35C170.125 549.111 169.448 549.516 168.585 549.01C168.508 548.976 168.44 548.927 168.384 548.867C168.329 548.807 168.287 548.737 168.261 548.661C168.208 548.361 168.631 547.869 168.97 547.475C169.335 547.126 169.602 546.697 169.746 546.226L166.762 544.948C165.771 545.053 164.793 545.244 163.839 545.518C163.299 545.687 162.74 545.797 162.174 545.845C162.19 545.749 162.219 545.656 162.259 545.567C162.635 544.669 163.738 544.27 164.774 544.095L163.565 543.577C163.106 543.7 162.681 543.915 162.32 544.208C161.959 544.501 161.67 544.865 161.473 545.274C161.395 545.457 161.161 546.015 161.515 546.385C161.943 546.832 162.789 546.617 164.064 546.284Z" fill="white"/>
<path opacity="0.3" d="M307.049 435.074C296.144 455.6 283.397 461.088 271.123 458.384C273.981 457.539 276.61 456.118 278.828 454.222C281.046 452.325 282.799 449.998 283.967 447.4C291.57 431.757 272.141 425.021 287.347 416.988C302.552 408.955 302.609 407.731 298.286 402.021C293.963 396.311 302.831 399.484 307.899 394.021C307.988 393.931 308.07 393.835 308.143 393.734C309.808 391.786 308.57 391.277 306.353 391.125C302.872 390.903 296.974 391.587 296.216 389.002C294.949 384.707 289.661 391.507 282.168 385.462C286.924 386.25 290.581 388.039 291.849 386.464C293.961 383.848 289.881 379.14 289.881 379.14C289.881 379.14 303.954 378.21 312.267 382.321C320.579 386.433 323.525 404.058 307.049 435.074Z" fill="url(#paint31_linear_1_274)"/>
<path d="M205.696 540.621C204.951 540.621 204.23 540.866 203.657 541.315C203.085 541.764 202.698 542.387 202.563 543.077L201.067 550.723C200.982 551.16 201 551.61 201.119 552.04C201.239 552.469 201.457 552.869 201.759 553.211C202.061 553.552 202.439 553.827 202.867 554.016C203.294 554.204 203.76 554.302 204.232 554.302H236.057C236.393 554.302 236.715 554.176 236.953 553.952C237.191 553.729 237.324 553.425 237.324 553.109V553.109C237.324 552.654 237.185 552.209 236.924 551.827C236.662 551.445 236.29 551.141 235.85 550.953L216.458 542.506C216.458 542.506 207.998 546.358 205.696 540.621Z" fill="url(#paint32_linear_1_274)"/>
<path d="M216.601 546.27C217.041 546.73 217.911 546.511 219.229 546.165C220.566 545.819 222.232 545.387 223.566 545.673C224.067 545.781 224.216 545.909 224.23 545.95C224.285 546.098 223.849 546.604 223.616 546.877C223.13 547.439 222.58 548.081 222.701 548.753C222.744 548.948 222.832 549.131 222.959 549.29C223.085 549.448 223.247 549.579 223.433 549.673C223.801 549.903 224.231 550.028 224.673 550.035C225.597 549.925 226.462 549.551 227.154 548.964C227.713 548.551 228.331 548.215 228.99 547.964L227.943 547.508C227.494 547.746 227.06 548.009 226.645 548.297C225.483 549.083 224.784 549.501 223.893 548.978C223.814 548.943 223.744 548.893 223.687 548.831C223.629 548.769 223.586 548.696 223.56 548.618C223.505 548.309 223.942 547.801 224.292 547.394C224.62 547.06 224.876 546.671 225.048 546.246L221.761 544.815C220.825 544.935 219.901 545.123 218.997 545.377C218.44 545.552 217.864 545.665 217.279 545.715C217.295 545.616 217.324 545.519 217.365 545.427C217.605 545.015 217.949 544.664 218.367 544.407C218.785 544.149 219.263 543.991 219.761 543.948L218.574 543.431C218.129 543.563 217.72 543.783 217.371 544.075C217.023 544.367 216.745 544.725 216.554 545.125C216.478 545.312 216.236 545.888 216.601 546.27Z" fill="white"/>
<path d="M273.265 377.117C273.265 377.117 272.526 374.035 274.744 369.661C276.961 365.287 276.433 364.491 274.532 364.491C272.632 364.491 267.704 369.496 268.9 378.077C268.9 378.077 255.807 376.619 248.909 384.44C251.021 389.609 262.142 390.541 271.576 386.465C281.01 382.389 289.737 389.079 291.849 386.465C293.961 383.851 289.878 379.142 289.878 379.142C289.878 379.142 285.197 375.03 273.265 377.117Z" fill="url(#paint33_linear_1_274)"/>
<path d="M240.584 410.519C240.599 410.717 240.57 410.915 240.5 411.102C240.43 411.289 240.32 411.461 240.176 411.606C240.032 411.751 239.859 411.867 239.665 411.946C239.472 412.025 239.264 412.066 239.053 412.066C238.842 412.066 238.634 412.025 238.441 411.946C238.248 411.867 238.074 411.751 237.93 411.606C237.787 411.461 237.676 411.289 237.606 411.102C237.536 410.915 237.507 410.717 237.522 410.519C237.522 409.722 239.057 405.672 239.057 405.672C239.057 405.672 240.584 409.723 240.584 410.519Z" fill="#FBDA91"/>
<path d="M256.899 411.712C256.913 411.909 256.885 412.108 256.815 412.295C256.745 412.482 256.634 412.654 256.491 412.799C256.347 412.944 256.173 413.06 255.98 413.139C255.787 413.218 255.578 413.259 255.368 413.259C255.157 413.259 254.949 413.218 254.755 413.139C254.562 413.06 254.388 412.944 254.245 412.799C254.101 412.654 253.991 412.482 253.921 412.295C253.85 412.108 253.822 411.909 253.837 411.712C253.837 410.915 255.371 406.865 255.371 406.865C255.371 406.865 256.899 410.916 256.899 411.712Z" fill="#FBDA91"/>
<path d="M269.093 426.99C269.066 427.355 268.892 427.696 268.608 427.945C268.324 428.195 267.95 428.333 267.562 428.333C267.174 428.333 266.8 428.195 266.516 427.945C266.232 427.696 266.059 427.355 266.031 426.99C266.031 426.194 267.566 422.144 267.566 422.144C267.566 422.144 269.093 426.195 269.093 426.99Z" fill="#FBDA91"/>
<path d="M308.961 413.73C309.017 413.931 309.026 414.14 308.989 414.345C308.952 414.55 308.869 414.745 308.745 414.917C308.621 415.089 308.46 415.234 308.272 415.342C308.084 415.451 307.874 415.52 307.655 415.546C307.436 415.572 307.214 415.554 307.003 415.493C306.792 415.431 306.598 415.328 306.433 415.19C306.268 415.053 306.136 414.883 306.046 414.694C305.956 414.504 305.91 414.299 305.911 414.091C305.79 413.189 306.702 408.415 306.702 408.415C306.702 408.415 308.842 412.828 308.961 413.73Z" fill="#F9E2B2"/>
<path d="M288.852 422.185C288.825 422.55 288.652 422.891 288.368 423.14C288.084 423.389 287.71 423.528 287.321 423.528C286.933 423.528 286.559 423.389 286.275 423.14C285.991 422.891 285.818 422.55 285.79 422.185C285.79 421.389 287.325 417.339 287.325 417.339C287.325 417.339 288.852 421.39 288.852 422.185Z" fill="#F9E2B2"/>
<path d="M293.989 405.424C293.961 405.789 293.788 406.13 293.504 406.38C293.22 406.629 292.846 406.767 292.458 406.767C292.069 406.767 291.696 406.629 291.411 406.38C291.127 406.13 290.954 405.789 290.927 405.424C290.927 404.628 292.462 400.578 292.462 400.578C292.462 400.578 293.989 404.629 293.989 405.424Z" fill="#FBDA91"/>
<path d="M308.143 393.735C307.704 393.194 306.95 392.072 306.353 391.126C308.566 391.277 309.808 391.786 308.143 393.735Z" fill="#FBDA91"/>
<path d="M310.347 394.283C310.041 394.481 309.665 394.562 309.297 394.507C308.929 394.452 308.598 394.266 308.371 393.988C308.29 393.907 308.214 393.822 308.143 393.734C309.807 391.786 308.569 391.277 306.352 391.125C305.84 390.346 305.431 389.686 305.372 389.59C306.984 390.449 308.543 391.392 310.044 392.413C310.341 392.628 310.539 392.942 310.596 393.291C310.652 393.639 310.563 393.995 310.347 394.283V394.283Z" fill="#F9E2B2"/>
<path d="M261.279 439.919C261.252 440.284 261.079 440.625 260.795 440.875C260.511 441.124 260.137 441.262 259.748 441.262C259.36 441.262 258.986 441.124 258.702 440.875C258.418 440.625 258.245 440.284 258.218 439.919C258.218 439.123 259.752 435.073 259.752 435.073C259.752 435.073 261.279 439.124 261.279 439.919Z" fill="#FBDA91"/>
<path d="M282.166 385.459C282.139 385.405 281.049 383.248 273.128 383.317C265.103 383.386 260.035 386.031 257.641 384.44C256.304 383.55 257.849 380.884 259.473 378.703C255.38 379.477 251.671 381.493 248.913 384.443C251.025 389.613 262.146 390.544 271.579 386.468C274.91 385.099 278.612 384.746 282.166 385.459V385.459Z" fill="#6BBC61"/>
<path d="M396.465 545.819H383.313L360.803 503.509C359.349 500.771 358.175 497.908 357.298 494.96L351.384 475.15L347.524 489.171L344.198 545.819H331.45L327.388 486.133C327.311 484.97 327.362 483.803 327.539 482.65L332.151 453.566V442.632L338.478 442.369L374.657 442.632L375.646 481.602L377.192 493.133L396.465 545.819Z" fill="url(#paint34_linear_1_274)"/>
<path d="M347.524 489.17L351.385 475.145L347.792 456.553L347.524 489.17Z" fill="#1D164D"/>
<path d="M327.781 400.18C327.781 400.18 331.687 397.496 331.582 385.268C331.476 373.041 329.681 362.9 335.805 359.024C341.929 355.147 348.687 358.03 349.479 361.906C349.479 361.906 352.066 359.918 353.755 362.006C355.444 364.094 355.233 378.873 365.369 386.958C375.506 395.043 375.365 404.458 370.016 408.961C364.666 413.465 327.781 400.18 327.781 400.18Z" fill="url(#paint35_linear_1_274)"/>
<path d="M389.867 476.031C376.352 487.961 353.755 483.189 353.755 483.189C348.265 467.482 346.081 442.629 346.081 442.629L338.479 442.364C338.789 456.525 340.724 470.612 344.25 484.382C331.157 484.119 324.822 476.429 324.822 476.429C331.58 459.33 332.746 435.376 332.746 435.376L304.853 436.179L301.694 436.266C298.411 436.606 295.089 436.289 291.946 435.336C286.318 433.746 284.343 429.705 286.318 430.038C288.293 430.37 295.154 429.656 295.154 429.656C294.09 428.558 294.149 426.228 294.622 426.228C295.095 426.228 295.416 427.564 297.316 427.914C298.627 428.175 299.915 428.528 301.169 428.972L310.579 426.896L332.423 422.084L331.578 415.586L312.978 422.163C315.443 417.19 317.537 412.061 319.246 406.814L329.985 396.341C331.532 394.839 333.363 393.62 335.383 392.747L339.606 390.933L349.481 387.998L358.528 389.883C359.675 390.126 360.783 390.511 361.823 391.029C363.765 391.997 365.415 393.414 366.618 395.145C367.822 396.876 368.541 398.866 368.707 400.93C368.783 401.884 368.877 402.902 368.969 403.967V403.975C369.762 413.066 371.072 425.631 372.976 435.732C376.351 453.763 389.867 476.031 389.867 476.031Z" fill="url(#paint36_linear_1_274)"/>
<path d="M371.216 424.663C371.166 424.337 370.591 421.673 366.849 420.48C362.862 419.196 358.19 424.333 356.078 432.688C353.966 441.042 346.085 442.629 338.483 442.366C333.863 442.199 332.367 443.726 331.902 444.943C332.561 439.233 332.747 435.376 332.747 435.376H343.175C344.753 435.376 346.305 434.996 347.683 434.272C349.061 433.549 350.22 432.505 351.048 431.24L368.973 403.978C369.234 406.96 369.547 410.32 369.928 413.84C370.308 417.36 370.727 421.029 371.216 424.663Z" fill="#C9E2F4"/>
<path d="M355.226 392.462C352.07 393.911 349.549 396.349 348.096 399.357L342.833 410.3L337.722 420.918L337.199 421.037L332.424 422.087C338.058 420.234 334.679 413.739 337.284 412.798C339.075 412.161 341.018 409.767 342.826 406.181C343.722 404.563 344.498 402.891 345.152 401.174C347.389 394.836 354.609 392.597 355.226 392.462Z" fill="#C9E2F4"/>
<path d="M342.92 404.256C343.767 392.657 349.48 388.003 349.48 388.003L339.607 390.936C339.607 390.936 334.997 410.402 338.48 442.365L346.083 442.63C346.083 442.63 342.073 415.856 342.92 404.256Z" fill="url(#paint37_linear_1_274)"/>
<path d="M342.833 410.3L337.722 420.917L337.199 421.036C337.156 418.093 337.199 415.35 337.284 412.797C339.075 412.16 341.018 409.767 342.826 406.18C342.791 407.446 342.791 408.83 342.833 410.3Z" fill="#B122E5"/>
<path d="M346.153 369.065C346.153 369.065 338.691 372.047 333.834 369.065C333.834 369.065 333.152 383.889 335.383 385.832C335.954 386.296 336.651 386.604 337.396 386.721C338.14 386.838 338.905 386.76 339.606 386.495V390.935L342.034 394.065L349.479 388.001V378.261C349.479 378.261 353.368 375.792 351.679 373.538C349.989 371.285 348.017 375.328 348.017 376.52C347.765 375.801 347.344 375.144 346.785 374.598C345.73 373.439 346.153 369.065 346.153 369.065Z" fill="url(#paint38_linear_1_274)"/>
<path d="M345.149 383.032C343.634 384.6 341.73 385.79 339.607 386.496V389.099C343.747 387.944 345.149 383.032 345.149 383.032Z" fill="#1D164D"/>
<path d="M368.969 403.971V403.979L351.048 431.245C350.217 432.508 349.058 433.551 347.68 434.274C346.301 434.997 344.75 435.377 343.172 435.377H332.747L304.855 436.179L301.696 436.267C298.413 436.607 295.091 436.29 291.947 435.337C286.32 433.746 284.345 429.706 286.32 430.038C288.295 430.371 295.156 429.656 295.156 429.656C294.092 428.559 294.151 426.229 294.624 426.229C295.097 426.229 295.418 427.564 297.318 427.914C298.629 428.175 299.916 428.529 301.17 428.972L310.58 426.896L332.425 422.085L337.722 420.916L348.098 399.36C349.293 396.876 351.224 394.769 353.658 393.291C356.093 391.814 358.928 391.028 361.825 391.029V391.029C363.767 391.997 365.417 393.414 366.621 395.145C367.825 396.876 368.543 398.866 368.709 400.93C368.784 401.887 368.876 402.905 368.969 403.971Z" fill="url(#paint39_linear_1_274)"/>
<path d="M297.32 427.916C295.419 427.566 295.098 426.23 294.625 426.23C294.153 426.23 294.093 428.558 295.157 429.658C295.157 429.658 288.29 430.366 286.321 430.04C284.353 429.714 286.321 433.746 291.949 435.338C295.093 436.291 298.414 436.608 301.697 436.269L301.174 428.976C299.919 428.532 298.631 428.177 297.32 427.916V427.916Z" fill="url(#paint40_linear_1_274)"/>
<path d="M331.586 415.59L330.6 400.612C330.6 400.612 327.472 408.167 327.275 411.746C327.078 415.325 323.841 412.79 320.745 415.316C317.846 417.682 319.881 412.144 317.725 411.209C316.446 414.632 314.883 418.279 312.984 422.167L331.586 415.59Z" fill="#C9E2F4"/>
<path d="M331.455 545.818H344.193L343.585 556.156H332.16L331.455 545.818Z" fill="url(#paint41_linear_1_274)"/>
<path d="M400.241 556.156H388.815L383.316 545.818H396.469L400.241 556.156Z" fill="url(#paint42_linear_1_274)"/>
<path d="M344.076 547.803C344.821 547.803 345.543 548.049 346.115 548.498C346.687 548.946 347.075 549.57 347.21 550.259L348.704 557.905C348.79 558.342 348.772 558.791 348.653 559.221C348.533 559.651 348.315 560.051 348.013 560.392C347.711 560.734 347.333 561.009 346.905 561.197C346.478 561.386 346.011 561.484 345.539 561.483H313.715C313.379 561.483 313.057 561.358 312.819 561.134C312.582 560.91 312.448 560.607 312.448 560.291V560.291C312.448 559.836 312.587 559.391 312.848 559.009C313.11 558.626 313.482 558.323 313.922 558.134L331.697 549.595C331.697 549.595 341.774 553.541 344.076 547.803Z" fill="url(#paint43_linear_1_274)"/>
<path d="M321.769 555.907C322.485 556.515 323.382 556.903 324.339 557.017C324.796 557.01 325.242 556.88 325.623 556.642C325.815 556.545 325.983 556.409 326.114 556.245C326.245 556.08 326.337 555.891 326.381 555.689C326.506 554.991 325.936 554.325 325.433 553.746C325.192 553.49 324.987 553.205 324.824 552.9L324.013 553.289C324.207 553.647 324.449 553.98 324.732 554.28C325.096 554.702 325.548 555.228 325.491 555.548C325.464 555.629 325.419 555.704 325.36 555.769C325.301 555.833 325.228 555.885 325.146 555.921C324.224 556.462 323.5 556.03 322.296 555.216C321.983 555.004 321.648 554.792 321.301 554.591L320.339 555.054C320.839 555.302 321.317 555.587 321.769 555.907V555.907Z" fill="white"/>
<path d="M330.217 552.188C329.319 551.939 328.403 551.751 327.476 551.626L325.731 552.464C327.17 552.377 328.614 552.563 329.976 553.01C331.34 553.364 332.242 553.595 332.699 553.118C333.076 552.723 332.826 552.127 332.743 551.931C332.538 551.503 332.238 551.121 331.862 550.813C331.487 550.504 331.045 550.275 330.567 550.141L329.393 550.703C329.913 550.746 330.414 550.909 330.852 551.177C331.29 551.445 331.651 551.81 331.904 552.241C331.947 552.336 331.978 552.436 331.995 552.538C331.39 552.487 330.793 552.369 330.217 552.188V552.188Z" fill="white"/>
<path d="M397.189 547.803C397.934 547.803 398.655 548.049 399.227 548.497C399.8 548.946 400.187 549.57 400.322 550.259L401.818 557.905C401.903 558.342 401.885 558.791 401.766 559.221C401.646 559.651 401.428 560.051 401.126 560.392C400.824 560.734 400.445 561.008 400.018 561.197C399.591 561.386 399.125 561.483 398.653 561.483H366.828C366.492 561.483 366.169 561.358 365.932 561.134C365.694 560.91 365.561 560.607 365.561 560.291C365.56 559.836 365.699 559.391 365.961 559.008C366.222 558.626 366.595 558.323 367.035 558.134L385.281 549.595C385.281 549.595 394.886 553.541 397.189 547.803Z" fill="url(#paint44_linear_1_274)"/>
<path d="M397.189 547.803C397.934 547.803 398.655 548.049 399.227 548.497C399.8 548.946 400.187 549.57 400.322 550.259L401.818 557.905C401.903 558.342 401.885 558.791 401.766 559.221C401.646 559.651 401.428 560.051 401.126 560.392C400.824 560.734 400.445 561.008 400.018 561.197C399.591 561.386 399.125 561.483 398.653 561.483H366.828C366.492 561.483 366.169 561.358 365.932 561.134C365.694 560.91 365.561 560.607 365.561 560.291C365.56 559.836 365.699 559.391 365.961 559.008C366.222 558.626 366.595 558.323 367.035 558.134L385.281 549.595C385.281 549.595 394.886 553.541 397.189 547.803Z" fill="url(#paint45_linear_1_274)"/>
<path d="M375.069 556.046C375.766 556.637 376.638 557.014 377.568 557.125C378.013 557.118 378.447 556.992 378.818 556.76C379.005 556.666 379.168 556.534 379.296 556.374C379.423 556.214 379.512 556.03 379.555 555.834C379.677 555.155 379.123 554.51 378.633 553.942C378.398 553.669 377.959 553.158 378.014 553.009C378.02 553 378.028 552.992 378.036 552.985L377.21 553.371C377.391 553.771 377.641 554.14 377.952 554.463C378.305 554.873 378.745 555.384 378.69 555.696C378.663 555.775 378.62 555.849 378.562 555.911C378.504 555.973 378.433 556.024 378.354 556.059C377.458 556.586 376.753 556.164 375.583 555.373C375.225 555.132 374.842 554.891 374.438 554.669L373.471 555.122C374.037 555.376 374.572 555.686 375.069 556.046Z" fill="white"/>
<path d="M383.054 553.226C384.382 553.572 385.259 553.796 385.703 553.332C386.069 552.947 385.826 552.368 385.745 552.176C385.536 551.751 385.232 551.372 384.855 551.066C384.477 550.76 384.035 550.533 383.557 550.401L382.363 550.963C383.426 551.15 384.544 551.565 384.929 552.482C384.971 552.575 385.001 552.673 385.019 552.773C384.43 552.722 383.849 552.608 383.288 552.432C382.357 552.17 381.406 551.98 380.443 551.863L379.199 552.444L378.444 552.798C378.516 552.776 378.587 552.755 378.684 552.734C380.029 552.444 381.704 552.88 383.054 553.226Z" fill="white"/>
<path opacity="0.5" d="M382.642 340.865C382.278 344.916 382.831 349.738 385.51 353.516C385.64 353.699 385.772 353.876 385.913 354.046C385.93 354.071 385.947 354.095 385.967 354.117C386.082 354.256 386.197 354.396 386.313 354.529C386.352 354.574 386.392 354.613 386.432 354.658C386.533 354.766 386.629 354.872 386.727 354.972C386.785 355.028 386.839 355.083 386.897 355.133L387.139 355.374C387.214 355.434 387.282 355.499 387.357 355.559C387.433 355.619 387.497 355.678 387.561 355.736C387.647 355.799 387.732 355.868 387.817 355.932C387.873 355.977 387.931 356.021 387.988 356.061C388.082 356.133 388.18 356.2 388.272 356.261C388.325 356.298 388.375 356.329 388.429 356.362C388.526 356.428 388.63 356.492 388.73 356.549C388.74 356.558 388.751 356.561 388.754 356.567C389.294 356.58 389.833 356.541 390.364 356.451C391.428 356.268 392.433 355.856 393.3 355.247C394.167 354.638 394.873 353.849 395.362 352.94C397.864 348.357 399.191 340.578 394.47 334.366C393.493 333.048 392.275 331.904 390.873 330.987C390.093 330.481 389.228 330.104 388.315 329.869L388.272 329.891C388.044 330.026 387.82 330.168 387.603 330.324C387.592 330.328 387.581 330.335 387.572 330.343C386.419 331.192 385.454 332.245 384.731 333.443C384.731 333.448 384.721 333.452 384.718 333.462C384.579 333.69 384.45 333.921 384.334 334.15C384.326 334.158 384.321 334.168 384.319 334.179C384.2 334.413 384.089 334.644 383.996 334.874C383.256 336.803 382.801 338.819 382.642 340.865V340.865Z" fill="url(#paint46_linear_1_274)"/>
<path d="M396 364.808L394.715 356.967L392.372 357.257L393.657 365.097L396 364.808Z" fill="#B7C0E2"/>
<path d="M457.076 338.778C459.721 330.655 453.87 321.762 444.006 318.915C434.143 316.068 424.003 320.346 421.358 328.469C418.713 336.592 424.564 345.485 434.428 348.332C444.291 351.179 454.432 346.901 457.076 338.778Z" fill="url(#paint47_linear_1_274)"/>
<path d="M446.156 352.578L444.253 343.698C444.253 343.698 447.265 343.404 447.129 339.875C446.993 336.346 441.712 336.775 441.052 340.169C440.296 339.736 439.672 339.126 439.241 338.398C438.811 337.671 438.589 336.85 438.597 336.017C438.751 333.269 438.275 332.759 437.517 332.96C436.759 333.161 433.551 337.399 430.507 337.032C427.462 336.665 426.903 335.806 426.552 336.729C426.202 337.652 428.065 347.264 429.663 350.1C430.054 350.888 430.659 351.565 431.418 352.062C432.176 352.559 433.061 352.858 433.982 352.928L434.725 357.214L442.013 361.133C442.013 361.133 449.244 356.493 446.156 352.578Z" fill="url(#paint48_linear_1_274)"/>
<path d="M432.915 483.109L432.318 484.939L417.537 487.374L436.831 492.943L439.421 484.988L432.915 483.109Z" fill="#1D164D"/>
<path d="M415.023 477.947L414.427 479.777L399.645 482.212L418.939 487.781L421.529 479.826L415.023 477.947Z" fill="#1D164D"/>
<path d="M430.111 407.469C430.111 407.469 413.219 430.657 409.562 438.255C405.905 445.854 415.027 477.947 415.027 477.947L421.532 479.825C421.532 479.825 422.39 457.455 423.462 452.04C424.534 446.626 440.387 430.119 440.387 430.119L450.055 415.457L447.454 409.49L430.111 407.469Z" fill="url(#paint49_linear_1_274)"/>
<path d="M468.287 407.876C468.287 407.876 469.706 415.359 465.02 426.106C460.334 436.854 444 445.729 442.169 450.134C440.339 454.538 439.42 484.989 439.42 484.989L432.914 483.111C432.914 483.111 426.146 453.825 424.503 444.601C422.86 435.377 444.049 419.31 449.6 404.997L468.287 407.876Z" fill="url(#paint50_linear_1_274)"/>
<path d="M468.902 405.075C469.449 405.73 469.775 406.524 469.839 407.355C469.903 408.186 469.702 409.016 469.262 409.739C467.777 412.476 439.391 413.124 433.052 411.947C427.981 411.004 426.969 409.446 427.266 408.575C427.592 407.426 427.718 406.234 427.638 405.047L427.226 380.804C427.226 380.804 419.049 391.802 413.917 394.508C408.785 397.214 393.674 375.914 393.674 375.914L397.531 369.837C397.531 369.837 408.565 380.583 410.706 381.294C412.846 382.006 417.684 370.185 419.701 364.904C421.718 359.623 422.487 358.169 424.287 357.197C426.087 356.226 434.312 354.824 434.312 354.824C434.812 355.858 435.628 356.73 436.656 357.326C437.684 357.923 438.877 358.218 440.084 358.174C444.371 358.061 446.158 352.574 446.158 352.574C446.158 352.574 460.971 356.872 465.858 358.259C470.746 359.647 485.757 380.335 488.787 386.516C491.816 392.698 495.096 409.652 495.096 409.652L489.379 411.724C489.379 411.724 480.285 394.114 476.395 389.361C472.505 384.608 463.222 379.416 463.222 379.416L468.902 405.075Z" fill="url(#paint51_linear_1_274)"/>
<path d="M398.867 378.067L396.845 365.721L393.156 366.177L395.178 378.523L398.867 378.067Z" fill="#414E6E"/>
<path d="M394.77 380.443L399.301 379.881C399.445 379.863 399.583 379.817 399.706 379.746C399.83 379.675 399.936 379.58 400.018 379.467C400.1 379.355 400.157 379.228 400.183 379.094C400.21 378.96 400.206 378.822 400.173 378.69C400.114 378.455 399.965 378.249 399.754 378.112C399.543 377.975 399.285 377.917 399.031 377.949L394.5 378.511C394.357 378.528 394.219 378.574 394.095 378.645C393.971 378.717 393.865 378.811 393.783 378.924C393.701 379.036 393.644 379.163 393.618 379.297C393.591 379.431 393.594 379.569 393.628 379.702C393.687 379.936 393.837 380.142 394.047 380.279C394.258 380.416 394.516 380.474 394.77 380.443Z" fill="#2C3449"/>
<path d="M392.821 366.422L397.351 365.86C397.495 365.842 397.633 365.797 397.757 365.726C397.881 365.655 397.987 365.56 398.069 365.448C398.152 365.335 398.208 365.208 398.235 365.074C398.262 364.94 398.258 364.802 398.225 364.669V364.669C398.165 364.435 398.016 364.229 397.805 364.092C397.594 363.955 397.337 363.897 397.083 363.928L392.551 364.49C392.407 364.507 392.269 364.553 392.146 364.625C392.022 364.696 391.916 364.791 391.834 364.903C391.752 365.015 391.696 365.142 391.669 365.276C391.642 365.411 391.646 365.548 391.68 365.681V365.681C391.739 365.915 391.888 366.121 392.099 366.258C392.31 366.395 392.567 366.453 392.821 366.422V366.422Z" fill="#2C3449"/>
<path d="M387.582 330.341C386.428 331.189 385.463 332.242 384.741 333.44C385.462 332.241 386.428 331.188 387.582 330.341V330.341Z" fill="#B7C0E2"/>
<path d="M388.43 356.359C388.531 356.424 388.631 356.489 388.731 356.549C388.631 356.489 388.531 356.424 388.43 356.359Z" fill="#B7C0E2"/>
<path d="M387.994 356.06C388.088 356.128 388.182 356.196 388.277 356.261C388.182 356.196 388.088 356.128 387.994 356.06Z" fill="#B7C0E2"/>
<path d="M388.278 329.89C388.051 330.023 387.828 330.166 387.608 330.319C387.825 330.165 388.048 330.022 388.278 329.89Z" fill="#B7C0E2"/>
<path d="M387.567 355.732C387.652 355.8 387.738 355.867 387.823 355.932C387.734 355.864 387.651 355.8 387.567 355.732Z" fill="#B7C0E2"/>
<path d="M385.91 354.047C385.928 354.072 385.948 354.093 385.966 354.116C385.95 354.093 385.928 354.072 385.91 354.047Z" fill="#B7C0E2"/>
<path d="M386.727 354.971C386.782 355.027 386.839 355.081 386.897 355.136C386.839 355.081 386.782 355.027 386.727 354.971Z" fill="#B7C0E2"/>
<path d="M387.144 355.37C387.215 355.434 387.286 355.497 387.357 355.558C387.286 355.496 387.217 355.434 387.144 355.37Z" fill="#B7C0E2"/>
<path d="M386.315 354.531C386.354 354.575 386.392 354.616 386.432 354.659C386.392 354.616 386.354 354.574 386.315 354.531Z" fill="#B7C0E2"/>
<path d="M384.728 333.457C384.588 333.686 384.46 333.916 384.341 334.148C384.457 333.916 384.586 333.686 384.728 333.457Z" fill="#B7C0E2"/>
<path d="M382.643 340.867C382.804 338.819 383.263 336.802 384.007 334.872C384.102 334.642 384.212 334.409 384.329 334.177C384.211 334.408 384.104 334.641 384.009 334.871C383.264 336.801 382.805 338.819 382.643 340.867V340.867Z" fill="#B7C0E2"/>
<path d="M387.358 355.558C387.427 355.617 387.496 355.675 387.566 355.732C387.496 355.675 387.427 355.617 387.358 355.558Z" fill="#B7C0E2"/>
<path d="M386.896 355.136C386.981 355.216 387.061 355.297 387.144 355.37C387.061 355.294 386.979 355.215 386.896 355.136Z" fill="#B7C0E2"/>
<path d="M386.433 354.659C386.53 354.766 386.628 354.871 386.726 354.971C386.627 354.871 386.53 354.766 386.433 354.659Z" fill="#B7C0E2"/>
<path d="M385.508 353.515C385.639 353.7 385.773 353.878 385.91 354.048C385.774 353.877 385.64 353.701 385.51 353.517C382.828 349.744 382.277 344.915 382.643 340.868C382.277 344.914 382.827 349.742 385.508 353.515Z" fill="#B7C0E2"/>
<path d="M385.966 354.113C386.081 354.255 386.197 354.394 386.314 354.528C386.196 354.397 386.081 354.259 385.966 354.113Z" fill="#B7C0E2"/>
<path d="M387.608 330.319L387.578 330.341L387.608 330.319Z" fill="#B7C0E2"/>
<path d="M387.82 355.932C387.876 355.976 387.935 356.018 387.989 356.061C387.935 356.018 387.876 355.976 387.82 355.932Z" fill="#B7C0E2"/>
<path d="M388.316 329.866L388.273 329.889C388.291 329.884 388.304 329.874 388.316 329.866Z" fill="#B7C0E2"/>
<path d="M384.738 333.44L384.728 333.457L384.738 333.44Z" fill="#B7C0E2"/>
<path d="M388.758 356.565L388.733 356.549L388.761 356.565H388.758Z" fill="#B7C0E2"/>
<path d="M384.34 334.151L384.326 334.181L384.34 334.151Z" fill="#B7C0E2"/>
<path d="M388.278 356.261C388.327 356.295 388.379 356.326 388.429 356.359C388.379 356.326 388.327 356.295 388.278 356.261Z" fill="#B7C0E2"/>
<path d="M394.742 357.136L395.88 364.08L392.447 357.718L393.752 357.088L394.429 357.008L394.742 357.136Z" fill="#8F9BC1"/>
<path d="M388.322 329.865C389.235 330.1 390.1 330.478 390.88 330.983C392.282 331.9 393.5 333.043 394.477 334.361C399.198 340.576 397.871 348.351 395.369 352.936C394.88 353.844 394.174 354.634 393.307 355.243C392.44 355.852 391.435 356.263 390.371 356.446C389.84 356.537 389.301 356.576 388.761 356.562C389.651 357.122 390.659 357.494 391.716 357.652C392.773 357.811 393.853 357.753 394.884 357.482C395.915 357.21 396.871 356.733 397.687 356.082C398.504 355.43 399.161 354.621 399.614 353.708C402.24 348.741 403.763 340.382 399.151 333.816C397.547 331.533 394.907 329.073 391.819 328.958C391.044 328.929 390.27 329.047 389.546 329.307C389.12 329.457 388.71 329.644 388.322 329.865V329.865Z" fill="#EAF5FF"/>
<path d="M382.642 340.865C382.278 344.916 382.831 349.738 385.51 353.516C385.64 353.699 385.772 353.876 385.913 354.046C385.929 354.071 385.947 354.095 385.967 354.117C386.082 354.256 386.197 354.396 386.313 354.529C386.352 354.574 386.392 354.613 386.432 354.658C386.533 354.766 386.629 354.872 386.727 354.972C386.785 355.028 386.839 355.083 386.897 355.133L387.139 355.374C387.214 355.434 387.282 355.499 387.357 355.559C387.432 355.619 387.497 355.678 387.561 355.736C387.647 355.799 387.732 355.868 387.817 355.932C387.873 355.977 387.931 356.021 387.988 356.061C388.082 356.133 388.18 356.2 388.272 356.261C388.325 356.298 388.375 356.329 388.429 356.362C388.526 356.428 388.63 356.492 388.73 356.549C388.74 356.558 388.751 356.561 388.754 356.567C389.294 356.58 389.833 356.541 390.364 356.451C389.65 355.833 389.019 355.137 388.482 354.377C384.212 348.365 385.349 339.687 386.979 335.733C387.766 333.831 389.118 332.184 390.873 330.987C390.093 330.481 389.228 330.104 388.315 329.869L388.272 329.891C388.044 330.026 387.82 330.168 387.603 330.324C387.592 330.328 387.581 330.335 387.572 330.343C386.419 331.192 385.454 332.245 384.731 333.443C384.731 333.448 384.721 333.452 384.718 333.462C384.579 333.69 384.45 333.921 384.334 334.15C384.326 334.158 384.321 334.168 384.319 334.179C384.2 334.413 384.089 334.644 383.996 334.874C383.256 336.803 382.801 338.819 382.642 340.865V340.865Z" fill="#C9E2F4"/>
<path d="M393.409 367.73C393.409 367.73 392.029 367.299 391.082 369.643C390.641 370.736 390.617 371.939 391.014 373.046C391.41 374.154 392.203 375.098 393.256 375.716C395.34 376.946 397.044 376.949 397.077 373.887C397.114 372.877 396.888 371.874 396.418 370.966C395.948 370.057 395.249 369.271 394.382 368.676C393.977 368.444 393.642 368.119 393.409 367.73V367.73Z" fill="#F9BF9D"/>
<path d="M495.092 409.656C495.092 409.656 501.482 422.065 499.924 424.267C498.366 426.469 492.924 418.895 492.225 418.461C491.527 418.027 490.726 420.03 489.672 418.562C488.618 417.095 490.98 413.634 489.375 411.728L495.092 409.656Z" fill="#F9BF9D"/>
<path d="M453.482 372.889L463.217 379.422L468.902 405.076C469.449 405.731 469.775 406.525 469.839 407.356C469.903 408.187 469.702 409.017 469.262 409.74C468.488 411.166 460.405 412.025 451.945 412.354C464.644 411.114 464.007 405.383 461.266 396.495C458.525 387.607 453.482 372.889 453.482 372.889Z" fill="#FF8A5F"/>
<path d="M405.615 390.162C405.832 390.322 411.357 394.28 414.953 389.505C418.619 384.634 427.026 365.253 427.026 365.253L427.226 380.807C427.226 380.807 419.049 391.805 413.917 394.511C412.059 395.491 408.895 393.321 405.615 390.162Z" fill="#FF8A5F"/>
<path d="M433.981 352.927L434.31 354.828C439.575 354.828 441.927 350.177 441.927 350.177C440.911 351.173 439.668 351.938 438.291 352.415C436.914 352.891 435.44 353.066 433.981 352.927V352.927Z" fill="#1D164D"/>
</g>
<defs>
<linearGradient id="paint0_linear_1_274" x1="763.551" y1="-309.555" x2="488.931" y2="757.342" gradientUnits="userSpaceOnUse">
<stop stop-color="#6BBC61"/>
<stop offset="1" stop-color="#A7DF63"/>
</linearGradient>
<linearGradient id="paint1_linear_1_274" x1="375.892" y1="450.265" x2="375.892" y2="618.246" gradientUnits="userSpaceOnUse">
<stop stop-color="#369E5F"/>
<stop offset="1" stop-color="#369E5F" stop-opacity="0"/>
</linearGradient>
<linearGradient id="paint2_linear_1_274" x1="79.601" y1="409.403" x2="272.263" y2="497.593" gradientUnits="userSpaceOnUse">
<stop stop-color="#DBE42C"/>
<stop offset="1" stop-color="#6AD419"/>
</linearGradient>
<linearGradient id="paint3_linear_1_274" x1="48.6235" y1="418.919" x2="186.828" y2="434.603" gradientUnits="userSpaceOnUse">
<stop stop-color="white"/>
<stop offset="1" stop-color="white" stop-opacity="0"/>
</linearGradient>
<linearGradient id="paint4_linear_1_274" x1="151.61" y1="296.406" x2="193.584" y2="345.007" gradientUnits="userSpaceOnUse">
<stop stop-color="#DBE42C"/>
<stop offset="1" stop-color="#6AD419"/>
</linearGradient>
<linearGradient id="paint5_linear_1_274" x1="-412.858" y1="352.453" x2="-431.973" y2="345.387" gradientUnits="userSpaceOnUse">
<stop stop-color="#8F5138"/>
<stop offset="1" stop-color="#BA6D4D"/>
</linearGradient>
<linearGradient id="paint6_linear_1_274" x1="254.304" y1="134.193" x2="263.165" y2="187.237" gradientUnits="userSpaceOnUse">
<stop stop-color="#6BBC61"/>
<stop offset="1" stop-color="#A7DF63"/>
</linearGradient>
<linearGradient id="paint7_linear_1_274" x1="260.428" y1="302.793" x2="276.383" y2="167.735" gradientUnits="userSpaceOnUse">
<stop stop-color="#C7283A"/>
<stop offset="1" stop-color="#EF4B4B"/>
</linearGradient>
<linearGradient id="paint8_linear_1_274" x1="288.837" y1="197.894" x2="423.388" y2="238.835" gradientUnits="userSpaceOnUse">
<stop stop-color="white"/>
<stop offset="1" stop-color="white" stop-opacity="0"/>
</linearGradient>
<linearGradient id="paint9_linear_1_274" x1="292.021" y1="167.696" x2="281.049" y2="163.64" gradientUnits="userSpaceOnUse">
<stop stop-color="#8F5138"/>
<stop offset="1" stop-color="#BA6D4D"/>
</linearGradient>
<linearGradient id="paint10_linear_1_274" x1="282.168" y1="292.386" x2="282.168" y2="463.064" gradientUnits="userSpaceOnUse">
<stop stop-color="#FFB965"/>
<stop offset="1" stop-color="#FF8A5F"/>
</linearGradient>
<linearGradient id="paint11_linear_1_274" x1="294.606" y1="338.544" x2="264.317" y2="442.471" gradientUnits="userSpaceOnUse">
<stop stop-color="white"/>
<stop offset="1" stop-color="#EAF5FF"/>
</linearGradient>
<linearGradient id="paint12_linear_1_274" x1="282.167" y1="292.919" x2="282.167" y2="267.665" gradientUnits="userSpaceOnUse">
<stop stop-color="#1D164D"/>
<stop offset="1" stop-color="#4A4975"/>
</linearGradient>
<linearGradient id="paint13_linear_1_274" x1="282.168" y1="254.409" x2="282.168" y2="283.579" gradientUnits="userSpaceOnUse">
<stop stop-color="#FFB965"/>
<stop offset="1" stop-color="#FF8A5F"/>
</linearGradient>
<linearGradient id="paint14_linear_1_274" x1="467.58" y1="285.574" x2="632.716" y2="500.943" gradientUnits="userSpaceOnUse">
<stop stop-color="#ACD4F3"/>
<stop offset="1" stop-color="#4099F1"/>
</linearGradient>
<linearGradient id="paint15_linear_1_274" x1="722.806" y1="413.84" x2="578.498" y2="413.84" gradientUnits="userSpaceOnUse">
<stop stop-color="#ACD4F3"/>
<stop offset="1" stop-color="#4099F1"/>
</linearGradient>
<linearGradient id="paint16_linear_1_274" x1="531.748" y1="193.59" x2="528.668" y2="306.257" gradientUnits="userSpaceOnUse">
<stop stop-color="#ACD4F3"/>
<stop offset="1" stop-color="#4099F1"/>
</linearGradient>
<linearGradient id="paint17_linear_1_274" x1="-29.9807" y1="590.89" x2="58.2292" y2="464.131" gradientUnits="userSpaceOnUse">
<stop stop-color="#C7283A"/>
<stop offset="1" stop-color="#EF4B4B"/>
</linearGradient>
<linearGradient id="paint18_linear_1_274" x1="15.2953" y1="503.514" x2="194.138" y2="491.548" gradientUnits="userSpaceOnUse">
<stop stop-color="white"/>
<stop offset="1" stop-color="white" stop-opacity="0"/>
</linearGradient>
<linearGradient id="paint19_linear_1_274" x1="37.5123" y1="479.361" x2="41.5893" y2="459.372" gradientUnits="userSpaceOnUse">
<stop stop-color="#6BBC61"/>
<stop offset="1" stop-color="#A7DF63"/>
</linearGradient>
<linearGradient id="paint20_linear_1_274" x1="200.829" y1="400.928" x2="232.639" y2="400.928" gradientUnits="userSpaceOnUse">
<stop stop-color="#C9E2F4"/>
<stop offset="1" stop-color="#EAF5FF"/>
</linearGradient>
<linearGradient id="paint21_linear_1_274" x1="248.552" y1="381.214" x2="218.52" y2="456.038" gradientUnits="userSpaceOnUse">
<stop stop-color="#ACD4F3"/>
<stop offset="1" stop-color="#4099F1"/>
</linearGradient>
<linearGradient id="paint22_linear_1_274" x1="204.105" y1="372.679" x2="206.228" y2="352.625" gradientUnits="userSpaceOnUse">
<stop stop-color="#1D164D"/>
<stop offset="1" stop-color="#4A4975"/>
</linearGradient>
<linearGradient id="paint23_linear_1_274" x1="211.058" y1="384.199" x2="204.538" y2="374.324" gradientUnits="userSpaceOnUse">
<stop stop-color="#FFC0AC"/>
<stop offset="1" stop-color="#FFD6C7"/>
</linearGradient>
<linearGradient id="paint24_linear_1_274" x1="148.065" y1="536.514" x2="228.944" y2="500.114" gradientUnits="userSpaceOnUse">
<stop stop-color="#1D164D"/>
<stop offset="1" stop-color="#4A4975"/>
</linearGradient>
<linearGradient id="paint25_linear_1_274" x1="201.512" y1="509.091" x2="277.772" y2="375.794" gradientUnits="userSpaceOnUse">
<stop stop-color="#C7283A"/>
<stop offset="1" stop-color="#EF4B4B"/>
</linearGradient>
<linearGradient id="paint26_linear_1_274" x1="245.451" y1="432.894" x2="249.191" y2="419.31" gradientUnits="userSpaceOnUse">
<stop stop-color="#FFC0AC"/>
<stop offset="1" stop-color="#FFD6C7"/>
</linearGradient>
<linearGradient id="paint27_linear_1_274" x1="147.815" y1="550.852" x2="153.359" y2="536.119" gradientUnits="userSpaceOnUse">
<stop stop-color="#FFC0AC"/>
<stop offset="1" stop-color="#FFD6C7"/>
</linearGradient>
<linearGradient id="paint28_linear_1_274" x1="204.366" y1="549.519" x2="210.89" y2="537.242" gradientUnits="userSpaceOnUse">
<stop stop-color="#FFC0AC"/>
<stop offset="1" stop-color="#FFD6C7"/>
</linearGradient>
<linearGradient id="paint29_linear_1_274" x1="191.081" y1="421.245" x2="215.101" y2="390.028" gradientUnits="userSpaceOnUse">
<stop stop-color="#C9E2F4"/>
<stop offset="1" stop-color="#EAF5FF"/>
</linearGradient>
<linearGradient id="paint30_linear_1_274" x1="145.936" y1="547.461" x2="182.246" y2="547.461" gradientUnits="userSpaceOnUse">
<stop stop-color="#1D164D"/>
<stop offset="1" stop-color="#4A4975"/>
</linearGradient>
<linearGradient id="paint31_linear_1_274" x1="246.72" y1="421.757" x2="425.746" y2="417.171" gradientUnits="userSpaceOnUse">
<stop stop-color="white"/>
<stop offset="1" stop-color="white" stop-opacity="0"/>
</linearGradient>
<linearGradient id="paint32_linear_1_274" x1="201.014" y1="547.461" x2="237.324" y2="547.461" gradientUnits="userSpaceOnUse">
<stop stop-color="#1D164D"/>
<stop offset="1" stop-color="#4A4975"/>
</linearGradient>
<linearGradient id="paint33_linear_1_274" x1="268.984" y1="397.539" x2="269.829" y2="377.189" gradientUnits="userSpaceOnUse">
<stop stop-color="#6BBC61"/>
<stop offset="1" stop-color="#A7DF63"/>
</linearGradient>
<linearGradient id="paint34_linear_1_274" x1="388.862" y1="557.613" x2="320.746" y2="503.715" gradientUnits="userSpaceOnUse">
<stop stop-color="#1D164D"/>
<stop offset="1" stop-color="#4A4975"/>
</linearGradient>
<linearGradient id="paint35_linear_1_274" x1="352.903" y1="403.199" x2="329.474" y2="369.526" gradientUnits="userSpaceOnUse">
<stop stop-color="#1D164D"/>
<stop offset="1" stop-color="#4A4975"/>
</linearGradient>
<linearGradient id="paint36_linear_1_274" x1="399.358" y1="502.791" x2="333.427" y2="408.244" gradientUnits="userSpaceOnUse">
<stop stop-color="#C9E2F4"/>
<stop offset="1" stop-color="#EAF5FF"/>
</linearGradient>
<linearGradient id="paint37_linear_1_274" x1="325.641" y1="389.478" x2="379.477" y2="393.306" gradientUnits="userSpaceOnUse">
<stop stop-color="#FF63DE"/>
<stop offset="1" stop-color="#B122E5"/>
</linearGradient>
<linearGradient id="paint38_linear_1_274" x1="347.255" y1="390.865" x2="340.716" y2="380.475" gradientUnits="userSpaceOnUse">
<stop stop-color="#FFC0AC"/>
<stop offset="1" stop-color="#FFD6C7"/>
</linearGradient>
<linearGradient id="paint39_linear_1_274" x1="320.016" y1="469.429" x2="323.213" y2="391.942" gradientUnits="userSpaceOnUse">
<stop stop-color="#C9E2F4"/>
<stop offset="1" stop-color="#EAF5FF"/>
</linearGradient>
<linearGradient id="paint40_linear_1_274" x1="296.507" y1="435.841" x2="294.828" y2="427.836" gradientUnits="userSpaceOnUse">
<stop stop-color="#FFC0AC"/>
<stop offset="1" stop-color="#FFD6C7"/>
</linearGradient>
<linearGradient id="paint41_linear_1_274" x1="331.455" y1="550.987" x2="344.193" y2="550.987" gradientUnits="userSpaceOnUse">
<stop stop-color="#FFC0AC"/>
<stop offset="1" stop-color="#FFD6C7"/>
</linearGradient>
<linearGradient id="paint42_linear_1_274" x1="383.316" y1="550.987" x2="400.241" y2="550.987" gradientUnits="userSpaceOnUse">
<stop stop-color="#FFC0AC"/>
<stop offset="1" stop-color="#FFD6C7"/>
</linearGradient>
<linearGradient id="paint43_linear_1_274" x1="341.532" y1="554.643" x2="377.842" y2="554.643" gradientUnits="userSpaceOnUse">
<stop stop-color="#1D164D"/>
<stop offset="1" stop-color="#4A4975"/>
</linearGradient>
<linearGradient id="paint44_linear_1_274" x1="434.913" y1="554.643" x2="471.223" y2="554.643" gradientUnits="userSpaceOnUse">
<stop stop-color="#1D164D"/>
<stop offset="1" stop-color="#4A4975"/>
</linearGradient>
<linearGradient id="paint45_linear_1_274" x1="434.913" y1="554.643" x2="471.223" y2="554.643" gradientUnits="userSpaceOnUse">
<stop stop-color="#1D164D"/>
<stop offset="1" stop-color="#4A4975"/>
</linearGradient>
<linearGradient id="paint46_linear_1_274" x1="537.867" y1="363.432" x2="505.682" y2="348.339" gradientUnits="userSpaceOnUse">
<stop stop-color="#B7C0E2"/>
<stop offset="1" stop-color="#B7C0E2" stop-opacity="0"/>
</linearGradient>
<linearGradient id="paint47_linear_1_274" x1="465.722" y1="337.669" x2="426.881" y2="332.732" gradientUnits="userSpaceOnUse">
<stop stop-color="#1D164D"/>
<stop offset="1" stop-color="#4A4975"/>
</linearGradient>
<linearGradient id="paint48_linear_1_274" x1="457.487" y1="366.521" x2="432.057" y2="351.374" gradientUnits="userSpaceOnUse">
<stop stop-color="#FFC0AC"/>
<stop offset="1" stop-color="#FFD6C7"/>
</linearGradient>
<linearGradient id="paint49_linear_1_274" x1="451.006" y1="414.56" x2="510.778" y2="453.29" gradientUnits="userSpaceOnUse">
<stop stop-color="#1D164D"/>
<stop offset="1" stop-color="#4A4975"/>
</linearGradient>
<linearGradient id="paint50_linear_1_274" x1="417.008" y1="418.595" x2="492.307" y2="424.963" gradientUnits="userSpaceOnUse">
<stop stop-color="#1D164D"/>
<stop offset="1" stop-color="#4A4975"/>
</linearGradient>
<linearGradient id="paint51_linear_1_274" x1="432.823" y1="368.516" x2="447.096" y2="428.109" gradientUnits="userSpaceOnUse">
<stop stop-color="#FFB965"/>
<stop offset="1" stop-color="#FF8A5F"/>
</linearGradient>
<clipPath id="clip0_1_274">
<rect width="638" height="597" fill="white"/>
</clipPath>
</defs>
</svg>
