<svg width="666" height="478" viewBox="0 0 666 478" fill="none" xmlns="http://www.w3.org/2000/svg">
<g clip-path="url(#clip0_22_2)">
<path d="M665.998 -91H-709.849L-360.662 405.242C-318.196 465.593 -211.699 505.445 -92.8936 505.445H665.998V-91Z" fill="url(#paint0_linear_22_2)"/>
<path d="M665.998 505.445V456.009L130.589 454.864C160.047 485.689 201.139 505.445 247.431 505.445H665.998Z" fill="url(#paint1_linear_22_2)"/>
<path opacity="0.2" d="M374.868 473.909C382.854 473.909 389.329 472.55 389.329 470.873C389.329 469.196 382.854 467.837 374.868 467.837C366.88 467.837 360.406 469.196 360.406 470.873C360.406 472.55 366.88 473.909 374.868 473.909Z" fill="white"/>
<path opacity="0.2" d="M221.997 477.793C224.006 477.793 225.634 477.451 225.634 477.03C225.634 476.608 224.006 476.266 221.997 476.266C219.989 476.266 218.361 476.608 218.361 477.03C218.361 477.451 219.989 477.793 221.997 477.793Z" fill="white"/>
<path opacity="0.2" d="M287.657 473.198C293.77 473.198 298.726 472.158 298.726 470.874C298.726 469.59 293.77 468.549 287.657 468.549C281.543 468.549 276.586 469.59 276.586 470.874C276.586 472.158 281.543 473.198 287.657 473.198Z" fill="white"/>
<path opacity="0.2" d="M498.774 471.366C506.76 471.366 513.235 470.006 513.235 468.33C513.235 466.653 506.76 465.294 498.774 465.294C490.786 465.294 484.311 466.653 484.311 468.33C484.311 470.006 490.786 471.366 498.774 471.366Z" fill="white"/>
<path opacity="0.2" d="M651.642 475.25C653.65 475.25 655.278 474.908 655.278 474.487C655.278 474.065 653.65 473.723 651.642 473.723C649.633 473.723 648.005 474.065 648.005 474.487C648.005 474.908 649.633 475.25 651.642 475.25Z" fill="white"/>
<path opacity="0.2" d="M585.983 470.655C592.096 470.655 597.052 469.614 597.052 468.331C597.052 467.047 592.096 466.006 585.983 466.006C579.868 466.006 574.912 467.047 574.912 468.331C574.912 469.614 579.868 470.655 585.983 470.655Z" fill="white"/>
<path opacity="0.2" d="M198.621 75.22C143.81 93.128 67.3835 50.694 -20.6225 71.716C-78.16 85.46 -115.895 135.657 -135.128 168.77L-59.5305 368C-59.5305 367.993 -83.3002 113.307 116.241 113.045C315.782 112.784 222.829 25 344.029 25H272.924C272.924 25 253.432 57.313 198.621 75.22Z" fill="white"/>
<path opacity="0.2" d="M153.233 -41H176.714C176.714 -41 232.762 12.157 352.207 -3.2754C471.653 -18.7082 388.192 71.808 460.255 94.341C532.319 116.874 543.049 28.362 596.696 45.185C650.343 62.007 665.998 45.185 665.998 45.185V182.653C665.998 182.653 627.986 189.242 609.079 144.998C590.173 100.754 534.921 161.803 460.255 144.998C385.589 128.194 435.874 35.592 337.769 35.592C239.662 35.592 255.876 18.064 211.049 -5.5618C166.223 -29.1876 153.233 -41 153.233 -41Z" fill="white"/>
<path d="M315.628 11.555V97.359C342.213 99.759 367.599 108.752 389.093 123.382C410.588 138.012 427.389 157.736 437.717 180.46C448.044 203.185 451.513 228.064 447.755 252.46C443.997 276.855 433.153 299.858 416.372 319.03C399.589 338.201 377.497 352.826 352.436 361.354C327.374 369.882 300.278 371.995 274.02 367.47C247.762 362.944 223.321 351.948 203.289 335.648C183.256 319.348 168.379 298.351 160.235 274.883C160.224 274.863 160.218 274.842 160.217 274.82C159.665 273.245 159.148 271.66 158.665 270.064C158.199 268.505 157.751 266.923 157.337 265.34C157.242 264.982 157.147 264.624 157.061 264.267C156.845 263.424 156.647 262.581 156.452 261.738C156.306 261.086 156.159 260.434 156.017 259.774C155.843 258.994 155.69 258.215 155.535 257.427C155.413 256.791 155.293 256.155 155.18 255.518C155.094 255.042 155.017 254.572 154.94 254.095C154.845 253.515 154.75 252.934 154.664 252.353C154.613 252.032 154.569 251.717 154.526 251.399C154.439 250.818 154.353 250.245 154.285 249.665C154.173 248.846 154.078 248.026 153.992 247.2C153.95 246.866 153.915 246.532 153.88 246.19C153.811 245.474 153.742 244.75 153.681 244.034C153.604 243.159 153.535 242.277 153.483 241.394V241.331C153.439 240.647 153.396 239.966 153.371 239.279C153.353 239.032 153.344 238.786 153.336 238.539C153.31 237.959 153.284 237.371 153.276 236.782C153.259 236.377 153.249 235.979 153.249 235.573C153.232 234.802 153.224 234.031 153.224 233.259C153.17 197.84 168.089 163.797 194.814 138.365L129.241 77.87C85.0979 119.332 60.4019 175.145 60.484 233.258C60.484 235.04 60.507 236.813 60.5528 238.579C60.5702 239.462 60.605 240.345 60.6398 241.228C60.6659 241.928 60.6911 242.628 60.7267 243.327C60.7442 243.614 60.7529 243.899 60.7694 244.186C60.7955 244.711 60.8295 245.236 60.8643 245.761C60.9078 246.492 60.9514 247.224 61.0114 247.948C61.0462 248.52 61.0889 249.1 61.1323 249.682C61.1671 250.119 61.2011 250.557 61.2446 250.986C61.3046 251.709 61.3742 252.441 61.443 253.166C61.5117 253.921 61.5892 254.676 61.6754 255.424C61.7441 256.108 61.8216 256.789 61.8999 257.476C61.9782 258.164 62.0635 258.852 62.1609 259.536C62.2645 260.403 62.3855 261.262 62.5091 262.121C62.6327 262.98 62.7588 263.839 62.8884 264.69C63.4147 268.115 64.0239 271.513 64.716 274.885C85.8297 377.644 183.71 455.352 301.255 455.352C434.228 455.352 542.02 355.917 542.02 233.26C542.014 115.046 441.908 18.41 315.628 11.555Z" fill="#EAF5FF"/>
<path d="M158.665 270.064C158.199 268.505 157.751 266.923 157.337 265.34C157.242 264.982 157.147 264.624 157.061 264.267C156.845 263.424 156.647 262.581 156.452 261.738C156.306 261.086 156.159 260.434 156.017 259.774C155.843 258.994 155.69 258.215 155.535 257.427C155.413 256.791 155.293 256.155 155.18 255.518C155.094 255.042 155.017 254.572 154.94 254.095C154.845 253.515 154.75 252.934 154.664 252.353C154.613 252.032 154.56 251.717 154.526 251.399C154.431 250.826 154.353 250.245 154.285 249.665C154.173 248.846 154.078 248.026 153.992 247.2C153.95 246.866 153.915 246.532 153.88 246.19C153.803 245.474 153.742 244.758 153.681 244.034C153.604 243.159 153.535 242.277 153.483 241.394V241.331C153.432 240.647 153.396 239.966 153.371 239.279C153.353 239.032 153.344 238.786 153.336 238.539C153.31 237.959 153.284 237.371 153.276 236.782C153.259 236.381 153.249 235.979 153.249 235.573C153.232 234.802 153.224 234.031 153.224 233.259C153.17 197.84 168.089 163.797 194.814 138.365L129.241 77.874C85.0989 119.335 60.4029 175.146 60.484 233.258C60.484 235.04 60.5069 236.813 60.5528 238.579C60.5702 239.462 60.605 240.345 60.6398 241.228C60.6659 241.928 60.6911 242.628 60.7267 243.328C60.7442 243.614 60.7529 243.9 60.7694 244.187C60.7955 244.712 60.8295 245.237 60.8643 245.762C60.9078 246.493 60.9513 247.225 61.0114 247.949C61.0462 248.521 61.0888 249.102 61.1323 249.682C61.1671 250.12 61.2011 250.557 61.2446 250.987C61.3046 251.709 61.3742 252.442 61.443 253.166C61.5117 253.922 61.5892 254.669 61.6754 255.425C61.7441 256.109 61.8216 256.79 61.8998 257.477C61.9782 258.164 62.0635 258.853 62.1609 259.537C62.2645 260.404 62.3855 261.263 62.5091 262.122C62.6327 262.981 62.7588 263.84 62.8884 264.691C63.4147 268.116 64.0239 271.514 64.716 274.886H160.242C160.233 274.866 160.226 274.844 160.224 274.822C159.666 273.245 159.157 271.663 158.665 270.064Z" fill="#ACD4F3"/>
<path d="M205.569 129.077C232.277 108.14 266.197 96.666 301.245 96.712V11.161C241.596 11.083 184.056 31.51 139.852 68.454L205.569 129.077Z" fill="#FED300"/>
<path d="M110.566 169.306V171.29H95.0308V169.709L104.238 160.874C105.398 159.758 106.178 158.797 106.579 157.991C107.001 157.164 107.212 156.338 107.212 155.511C107.212 154.23 106.759 153.238 105.852 152.535C104.966 151.812 103.689 151.45 102.023 151.45C99.4287 151.45 97.4143 152.256 95.98 153.868L94.3664 152.504C95.2312 151.512 96.328 150.747 97.6569 150.21C99.0068 149.673 100.526 149.404 102.213 149.404C104.47 149.404 106.252 149.931 107.56 150.985C108.889 152.018 109.553 153.444 109.553 155.263C109.553 156.379 109.3 157.454 108.794 158.487C108.288 159.52 107.328 160.709 105.915 162.052L98.3846 169.306H110.566ZM119.246 158.487C122.453 158.487 124.783 159.055 126.238 160.192C127.715 161.308 128.453 162.879 128.453 164.904C128.453 166.165 128.148 167.291 127.536 168.283C126.946 169.275 126.048 170.06 124.846 170.639C123.644 171.197 122.168 171.476 120.417 171.476C118.835 171.476 117.327 171.228 115.893 170.732C114.479 170.215 113.34 169.533 112.476 168.686L113.583 166.919C114.321 167.663 115.292 168.273 116.494 168.748C117.696 169.203 118.993 169.43 120.385 169.43C122.22 169.43 123.634 169.027 124.625 168.221C125.637 167.415 126.143 166.34 126.143 164.997C126.143 163.509 125.574 162.383 124.435 161.618C123.317 160.853 121.419 160.471 118.74 160.471H114.026L115.165 149.59H127.282V151.574H117.158L116.399 158.487H119.246ZM148.241 154.984V169.306C148.241 172.075 147.545 174.121 146.153 175.444C144.782 176.787 142.704 177.459 139.92 177.459C138.38 177.459 136.914 177.232 135.522 176.777C134.151 176.343 133.033 175.733 132.168 174.948L133.307 173.274C134.108 173.977 135.079 174.524 136.218 174.917C137.379 175.31 138.591 175.506 139.857 175.506C141.966 175.506 143.517 175.02 144.508 174.049C145.499 173.098 145.995 171.61 145.995 169.585V167.508C145.299 168.541 144.381 169.327 143.242 169.864C142.124 170.401 140.879 170.67 139.509 170.67C137.948 170.67 136.524 170.339 135.237 169.678C133.972 168.996 132.969 168.056 132.231 166.857C131.514 165.638 131.156 164.263 131.156 162.734C131.156 161.205 131.514 159.841 132.231 158.642C132.969 157.443 133.972 156.513 135.237 155.852C136.503 155.191 137.927 154.86 139.509 154.86C140.922 154.86 142.198 155.139 143.337 155.697C144.476 156.255 145.394 157.061 146.09 158.115V154.984H148.241ZM139.73 168.717C140.932 168.717 142.018 168.469 142.989 167.973C143.96 167.456 144.708 166.743 145.235 165.834C145.783 164.925 146.058 163.891 146.058 162.734C146.058 161.577 145.783 160.554 145.235 159.665C144.708 158.756 143.96 158.053 142.989 157.557C142.04 157.04 140.954 156.782 139.73 156.782C138.528 156.782 137.442 157.03 136.471 157.526C135.522 158.022 134.773 158.725 134.225 159.634C133.697 160.543 133.434 161.577 133.434 162.734C133.434 163.891 133.697 164.925 134.225 165.834C134.773 166.743 135.522 167.456 136.471 167.973C137.442 168.469 138.528 168.717 139.73 168.717ZM161.895 171.538C165.47 171.538 168.286 169.988 169.52 167.322L165.692 165.276C164.774 166.888 163.414 167.57 161.864 167.57C159.364 167.57 157.402 165.865 157.402 162.951C157.402 160.037 159.364 158.332 161.864 158.332C163.414 158.332 164.774 159.045 165.692 160.626L169.52 158.611C168.286 155.883 165.47 154.364 161.895 154.364C156.358 154.364 152.403 157.929 152.403 162.951C152.403 167.973 156.358 171.538 161.895 171.538ZM179.228 154.364C176.507 154.364 173.754 155.077 171.887 156.379L173.659 159.758C174.893 158.797 176.76 158.208 178.563 158.208C181.221 158.208 182.486 159.417 182.486 161.494H178.563C173.374 161.494 171.254 163.54 171.254 166.485C171.254 169.368 173.627 171.538 177.614 171.538C180.113 171.538 181.885 170.732 182.803 169.213V171.29H187.422V161.773C187.422 156.72 184.416 154.364 179.228 154.364ZM178.848 168.283C177.108 168.283 176.064 167.477 176.064 166.268C176.064 165.152 176.791 164.315 179.101 164.315H182.486V166.02C181.917 167.539 180.493 168.283 178.848 168.283ZM100.789 194.813V192.612H96.0749V209.29H101.011V201.416C101.011 198.223 102.814 196.766 105.535 196.766C105.915 196.766 106.231 196.797 106.643 196.828V192.364C104.016 192.364 101.992 193.201 100.789 194.813ZM119.639 192.364C117.519 192.364 115.779 193.015 114.513 194.379V186.288H109.577V209.29H114.292V207.368C115.526 208.825 117.361 209.538 119.639 209.538C124.416 209.538 128.118 206.19 128.118 200.951C128.118 195.712 124.416 192.364 119.639 192.364ZM118.785 205.57C116.317 205.57 114.45 203.834 114.45 200.951C114.45 198.068 116.317 196.332 118.785 196.332C121.253 196.332 123.119 198.068 123.119 200.951C123.119 203.834 121.253 205.57 118.785 205.57ZM137.149 209.538C142.243 209.538 145.185 207.337 145.185 204.237C145.185 197.665 134.902 200.424 134.902 197.572C134.902 196.704 135.852 196.022 138.066 196.022C139.617 196.022 141.294 196.332 142.971 197.262L144.616 193.821C143.002 192.891 140.408 192.364 138.066 192.364C133.099 192.364 130.188 194.596 130.188 197.758C130.188 204.423 140.471 201.633 140.471 204.361C140.471 205.291 139.617 205.88 137.339 205.88C135.251 205.88 132.941 205.229 131.422 204.268L129.777 207.74C131.359 208.763 134.27 209.538 137.149 209.538Z" fill="#4099F1"/>
<path d="M207.688 70.176C206.034 70.176 204.554 69.746 203.248 68.886C201.962 68.026 200.952 66.796 200.217 65.196C199.502 63.576 199.145 61.676 199.145 59.496C199.145 57.316 199.502 55.426 200.217 53.826C200.952 52.206 201.962 50.966 203.248 50.106C204.554 49.246 206.034 48.816 207.688 48.816C209.341 48.816 210.811 49.246 212.097 50.106C213.403 50.966 214.424 52.206 215.159 53.826C215.894 55.426 216.261 57.316 216.261 59.496C216.261 61.676 215.894 63.576 215.159 65.196C214.424 66.796 213.403 68.026 212.097 68.886C210.811 69.746 209.341 70.176 207.688 70.176ZM207.688 68.196C208.933 68.196 210.025 67.856 210.964 67.176C211.923 66.496 212.669 65.506 213.199 64.206C213.73 62.906 213.995 61.336 213.995 59.496C213.995 57.656 213.73 56.086 213.199 54.786C212.669 53.486 211.923 52.496 210.964 51.816C210.025 51.136 208.933 50.796 207.688 50.796C206.443 50.796 205.34 51.136 204.381 51.816C203.442 52.496 202.707 53.486 202.176 54.786C201.646 56.086 201.38 57.656 201.38 59.496C201.38 61.336 201.646 62.906 202.176 64.206C202.707 65.506 203.442 66.496 204.381 67.176C205.34 67.856 206.443 68.196 207.688 68.196ZM220.743 70.146C220.294 70.146 219.906 69.986 219.579 69.666C219.273 69.346 219.12 68.956 219.12 68.496C219.12 68.036 219.273 67.656 219.579 67.356C219.906 67.036 220.294 66.876 220.743 66.876C221.192 66.876 221.58 67.036 221.906 67.356C222.233 67.656 222.396 68.036 222.396 68.496C222.396 68.956 222.233 69.346 221.906 69.666C221.58 69.986 221.192 70.146 220.743 70.146ZM233.164 57.996C235.409 58.116 237.114 58.716 238.277 59.796C239.461 60.856 240.053 62.246 240.053 63.966C240.053 65.166 239.757 66.236 239.165 67.176C238.573 68.096 237.695 68.826 236.532 69.366C235.368 69.906 233.95 70.176 232.276 70.176C230.725 70.176 229.255 69.936 227.867 69.456C226.499 68.956 225.397 68.296 224.56 67.476L225.632 65.766C226.346 66.486 227.295 67.076 228.479 67.536C229.663 67.976 230.929 68.196 232.276 68.196C234.031 68.196 235.389 67.826 236.348 67.086C237.308 66.326 237.787 65.286 237.787 63.966C237.787 62.666 237.308 61.646 236.348 60.906C235.389 60.166 233.94 59.796 232 59.796H230.469V58.206L236.409 50.916H225.448V48.996H239.226V50.526L233.164 57.996ZM259.51 54.216V68.076C259.51 70.756 258.837 72.736 257.49 74.016C256.163 75.316 254.152 75.966 251.458 75.966C249.968 75.966 248.549 75.746 247.202 75.306C245.875 74.886 244.793 74.296 243.956 73.536L245.058 71.916C245.834 72.596 246.773 73.126 247.875 73.506C248.998 73.886 250.172 74.076 251.396 74.076C253.438 74.076 254.938 73.606 255.897 72.666C256.857 71.746 257.337 70.306 257.337 68.346V66.336C256.663 67.336 255.775 68.096 254.673 68.616C253.591 69.136 252.386 69.396 251.06 69.396C249.549 69.396 248.171 69.076 246.926 68.436C245.701 67.776 244.732 66.866 244.017 65.706C243.323 64.526 242.976 63.196 242.976 61.716C242.976 60.236 243.323 58.916 244.017 57.756C244.732 56.596 245.701 55.696 246.926 55.056C248.151 54.416 249.529 54.096 251.06 54.096C252.427 54.096 253.662 54.366 254.765 54.906C255.867 55.446 256.755 56.226 257.428 57.246V54.216H259.51ZM251.274 67.506C252.437 67.506 253.489 67.266 254.428 66.786C255.367 66.286 256.091 65.596 256.602 64.716C257.132 63.836 257.398 62.836 257.398 61.716C257.398 60.596 257.132 59.606 256.602 58.746C256.091 57.866 255.367 57.186 254.428 56.706C253.509 56.206 252.458 55.956 251.274 55.956C250.11 55.956 249.059 56.196 248.12 56.676C247.202 57.156 246.477 57.836 245.946 58.716C245.436 59.596 245.181 60.596 245.181 61.716C245.181 62.836 245.436 63.836 245.946 64.716C246.477 65.596 247.202 66.286 248.12 66.786C249.059 67.266 250.11 67.506 251.274 67.506ZM204.993 90.526C204.993 88.936 205.759 88.186 207.167 88.186C207.902 88.186 208.576 88.396 209.096 88.756L210.352 85.366C209.464 84.766 208.055 84.496 206.708 84.496C202.605 84.496 200.339 86.866 200.339 90.496V91.216H197.798V94.816H200.339V106.996H205.116V94.816H209.219V91.216H204.993V90.526ZM217.943 90.616C215.31 90.616 212.646 91.306 210.84 92.566L212.554 95.836C213.748 94.906 215.555 94.336 217.3 94.336C219.872 94.336 221.097 95.506 221.097 97.516H217.3C212.279 97.516 210.227 99.496 210.227 102.346C210.227 105.136 212.524 107.236 216.382 107.236C218.8 107.236 220.515 106.456 221.403 104.986V106.996H225.873V97.786C225.873 92.896 222.965 90.616 217.943 90.616ZM217.576 104.086C215.892 104.086 214.881 103.306 214.881 102.136C214.881 101.056 215.586 100.246 217.821 100.246H221.097V101.896C220.546 103.366 219.168 104.086 217.576 104.086ZM239.536 102.916C239.015 103.306 238.311 103.516 237.607 103.516C236.321 103.516 235.555 102.766 235.555 101.386V94.816H239.658V91.216H235.555V87.286H230.779V91.216H228.237V94.816H230.779V101.446C230.779 105.286 233.044 107.236 236.933 107.236C238.403 107.236 239.842 106.906 240.822 106.216L239.536 102.916Z" fill="#D19500"/>
<path d="M397.777 63.394C402.128 63.394 405.461 64.805 407.777 67.626C410.093 70.417 411.251 74.373 411.251 79.494C411.251 83.082 410.626 86.118 409.373 88.602C408.121 91.086 406.368 92.972 404.115 94.26C401.861 95.517 399.232 96.146 396.227 96.146C392.973 96.146 390.374 95.563 388.434 94.398L389.795 91.73C391.36 92.742 393.489 93.248 396.181 93.248C399.811 93.248 402.659 92.129 404.725 89.89C406.791 87.621 407.824 84.339 407.824 80.046C407.824 79.249 407.777 78.375 407.683 77.424C406.87 79.172 405.57 80.537 403.786 81.518C402.002 82.469 399.952 82.944 397.636 82.944C395.476 82.944 393.551 82.545 391.861 81.748C390.203 80.951 388.903 79.831 387.964 78.39C387.025 76.918 386.556 75.216 386.556 73.284C386.556 71.321 387.041 69.589 388.011 68.086C388.982 66.583 390.312 65.433 392.002 64.636C393.724 63.808 395.649 63.394 397.777 63.394ZM398.152 80.138C399.811 80.138 401.266 79.831 402.519 79.218C403.802 78.605 404.804 77.761 405.523 76.688C406.243 75.615 406.603 74.419 406.603 73.1C406.603 71.873 406.259 70.739 405.57 69.696C404.913 68.653 403.927 67.81 402.613 67.166C401.298 66.522 399.733 66.2 397.918 66.2C395.539 66.2 393.598 66.844 392.096 68.132C390.625 69.389 389.889 71.076 389.889 73.192C389.889 75.308 390.625 76.995 392.096 78.252C393.598 79.509 395.617 80.138 398.152 80.138ZM424.79 76.872C429.548 76.872 433.006 77.715 435.166 79.402C437.357 81.058 438.452 83.389 438.452 86.394C438.452 88.265 437.999 89.936 437.091 91.408C436.215 92.88 434.884 94.045 433.1 94.904C431.316 95.732 429.125 96.146 426.527 96.146C424.179 96.146 421.942 95.778 419.813 95.042C417.717 94.275 416.027 93.263 414.743 92.006L416.386 89.384C417.482 90.488 418.921 91.393 420.705 92.098C422.489 92.773 424.414 93.11 426.48 93.11C429.203 93.11 431.3 92.512 432.771 91.316C434.274 90.12 435.025 88.525 435.025 86.532C435.025 84.324 434.18 82.653 432.49 81.518C430.831 80.383 428.014 79.816 424.039 79.816H417.043L418.733 63.67H436.715V66.614H421.691L420.564 76.872H424.79ZM455.89 96.238C461.195 96.238 465.373 93.938 467.204 89.982L461.523 86.946C460.162 89.338 458.143 90.35 455.843 90.35C452.134 90.35 449.223 87.82 449.223 83.496C449.223 79.172 452.134 76.642 455.843 76.642C458.143 76.642 460.162 77.7 461.523 80.046L467.204 77.056C465.373 73.008 461.195 70.754 455.89 70.754C447.673 70.754 441.805 76.044 441.805 83.496C441.805 90.948 447.673 96.238 455.89 96.238ZM481.61 70.754C477.572 70.754 473.487 71.812 470.717 73.744L473.346 78.758C475.177 77.332 477.947 76.458 480.624 76.458C484.567 76.458 486.445 78.252 486.445 81.334H480.624C472.924 81.334 469.778 84.37 469.778 88.74C469.778 93.018 473.3 96.238 479.215 96.238C482.924 96.238 485.553 95.042 486.915 92.788V95.87H493.769V81.748C493.769 74.25 489.309 70.754 481.61 70.754ZM481.046 91.408C478.464 91.408 476.915 90.212 476.915 88.418C476.915 86.762 477.994 85.52 481.422 85.52H486.445V88.05C485.6 90.304 483.487 91.408 481.046 91.408ZM500.397 95.87H507.721V61.738H500.397V95.87ZM526.538 96.238C534.566 96.238 540.388 90.948 540.388 83.496C540.388 76.044 534.566 70.754 526.538 70.754C518.509 70.754 512.641 76.044 512.641 83.496C512.641 90.948 518.509 96.238 526.538 96.238ZM526.538 90.35C522.876 90.35 520.059 87.774 520.059 83.496C520.059 79.218 522.876 76.642 526.538 76.642C530.2 76.642 532.97 79.218 532.97 83.496C532.97 87.774 530.2 90.35 526.538 90.35ZM552.279 74.388V71.122H545.284V95.87H552.608V84.186C552.608 79.448 555.284 77.286 559.322 77.286C559.885 77.286 560.354 77.332 560.965 77.378V70.754C557.068 70.754 554.063 71.996 552.279 74.388ZM392.143 123.672C394.866 123.672 396.697 121.924 396.697 119.532C396.697 117.324 394.866 115.668 392.143 115.668C389.42 115.668 387.589 117.416 387.589 119.67C387.589 121.924 389.42 123.672 392.143 123.672ZM388.481 151.87H395.805V127.122H388.481V151.87ZM427.345 139.588C427.345 131.63 421.617 126.754 414.199 126.754C406.499 126.754 400.724 132.09 400.724 139.496C400.724 146.856 406.405 152.238 415.138 152.238C419.692 152.238 423.213 150.858 425.56 148.236L421.664 144.096C419.927 145.706 418.002 146.488 415.326 146.488C411.476 146.488 408.8 144.602 408.095 141.52H427.204C427.251 140.922 427.345 140.14 427.345 139.588ZM414.246 132.182C417.532 132.182 419.927 134.206 420.443 137.334H408.001C408.518 134.16 410.912 132.182 414.246 132.182ZM440.719 152.238C448.278 152.238 452.644 148.972 452.644 144.372C452.644 134.62 437.385 138.714 437.385 134.482C437.385 133.194 438.794 132.182 442.08 132.182C444.381 132.182 446.869 132.642 449.358 134.022L451.799 128.916C449.404 127.536 445.555 126.754 442.08 126.754C434.709 126.754 430.39 130.066 430.39 134.758C430.39 144.648 445.649 140.508 445.649 144.556C445.649 145.936 444.381 146.81 441.001 146.81C437.902 146.81 434.475 145.844 432.221 144.418L429.78 149.57C432.127 151.088 436.447 152.238 440.719 152.238Z" fill="#8F9BC1"/>
<path d="M204.747 250.229C204.747 250.229 163.365 268.123 130.169 256.989C96.9723 245.855 66.5139 233.528 44.4568 265.538C22.3998 297.549 25.7076 355.153 54.4429 400.843C83.1782 446.533 94.192 454.954 115.079 456.278C135.965 457.602 140.544 450.156 152.586 448.508C164.628 446.86 178.587 453.743 191.99 453.783C205.391 453.823 217.579 441.019 217.579 441.019L204.747 250.229Z" fill="url(#paint2_linear_22_2)"/>
<path d="M202.33 256.989C205.32 289.554 174.531 333.935 185.646 351.366C196.762 368.797 182.334 435.218 150.768 441.016C134.369 444.029 126.845 450.655 123.389 456.331C137.487 455.511 142.339 449.909 152.588 448.507C164.627 446.859 178.589 453.742 191.991 453.782C205.393 453.822 217.581 441.018 217.581 441.018L204.815 251.241C202.927 251.36 201.982 253.19 202.33 256.989Z" fill="#6AD419"/>
<path opacity="0.3" d="M90.1531 411.916C64.361 417.726 63.7849 385.425 70.2525 369.13C76.7202 352.834 44.3881 324.991 58.2754 320.089C72.1626 315.188 71.5457 344.078 83.2042 332.148C94.8628 320.219 58.6131 293.974 62.9277 274.008C66.3217 258.301 96.652 252.102 109.439 250.173C84.4165 242.627 61.8373 240.336 44.4647 265.543C22.4033 297.549 25.7076 355.153 54.4429 400.843C83.1781 446.533 94.1919 454.954 115.079 456.278C117.882 456.467 120.697 456.483 123.503 456.325C123.69 436.12 108.552 407.772 90.1531 411.916Z" fill="url(#paint3_linear_22_2)"/>
<path d="M149.768 226.025C149.768 226.025 162.734 194.89 189.393 191.427C216.052 187.964 247.216 191.427 247.216 191.427C247.216 191.427 237.077 216.017 212.297 233.33C187.517 250.643 160.016 247.138 152.552 242.66C145.087 238.182 149.768 226.025 149.768 226.025Z" fill="url(#paint4_linear_22_2)"/>
<path d="M149.845 263.12C161.022 262.63 172.114 261.063 182.939 258.446C199.896 254.208 203.41 263.12 174.876 270.047C146.34 276.974 129.884 274.202 115.239 266.409C100.595 258.616 104.536 255.154 113.737 254.634C122.94 254.114 133.801 264.57 149.845 263.12Z" fill="#6AD419"/>
<path d="M146.716 267.506C146.716 267.506 149.72 270.739 152.098 267.506C153.523 255.589 153.186 243.55 151.097 231.717C149.157 221.494 145.569 214.488 142.751 210.271C142.294 209.593 141.69 209.01 140.976 208.559C140.263 208.108 139.454 207.799 138.605 207.651C137.755 207.503 136.88 207.519 136.037 207.699C135.195 207.879 134.402 208.218 133.708 208.695L133.513 208.829C132.851 209.282 132.293 209.852 131.871 210.506C131.449 211.159 131.172 211.884 131.056 212.637C130.94 213.39 130.987 214.157 131.194 214.893C131.403 215.63 131.766 216.321 132.266 216.926C136.84 222.689 140.347 229.111 142.648 235.93C146.161 246.123 147.542 256.838 146.716 267.506Z" fill="url(#paint5_linear_22_2)"/>
<path d="M52.1254 323.041C52.233 323.041 52.3405 323.036 52.4474 323.025C52.8344 322.987 53.2094 322.879 53.5511 322.707C53.8927 322.535 54.1941 322.302 54.4382 322.023C54.6822 321.743 54.864 321.422 54.9732 321.077C55.0825 320.733 55.1169 320.372 55.0747 320.015C53.3134 304.982 55.0225 291.096 59.7645 281.916C60.1024 281.262 60.1449 280.511 59.8823 279.828C59.6198 279.144 59.0739 278.585 58.3647 278.274C57.6554 277.962 56.841 277.923 56.1004 278.165C55.3598 278.407 54.754 278.911 54.4159 279.565C49.2145 289.634 47.3078 304.591 49.1841 320.602C49.2615 321.271 49.6049 321.891 50.1479 322.341C50.6908 322.792 51.3953 323.041 52.1254 323.041Z" fill="white"/>
<path d="M65.5638 273.866C66.1231 273.866 66.671 273.72 67.1432 273.443C69.0057 272.258 71.2181 271.631 73.4803 271.645C74.266 271.645 75.0194 271.357 75.575 270.845C76.1305 270.332 76.4426 269.637 76.4426 268.912C76.4426 268.188 76.1305 267.493 75.575 266.98C75.0194 266.468 74.266 266.18 73.4803 266.18C70.0981 266.164 66.7886 267.085 63.979 268.822C63.4359 269.138 63.0188 269.609 62.7908 270.163C62.5629 270.717 62.5363 271.324 62.7151 271.894C62.8939 272.463 63.2685 272.963 63.7823 273.319C64.2961 273.675 64.9213 273.867 65.5638 273.866Z" fill="white"/>
<path d="M303.795 56.357C303.795 56.357 296.351 38.484 281.048 36.496C265.745 34.507 247.855 36.496 247.855 36.496C252.227 45.948 259.123 54.224 267.9 60.553C282.126 70.494 297.912 68.48 302.198 65.908C306.482 63.336 303.795 56.357 303.795 56.357Z" fill="url(#paint6_linear_22_2)"/>
<path d="M247.858 167.52C247.858 167.52 226.303 144.854 229.321 108.669C232.339 72.483 256.473 68.307 268.331 70.892C280.189 73.477 296.135 79.642 309.498 75.468C322.862 71.293 338.381 62.147 354.761 71.69C371.142 81.233 375.166 103.766 372.862 123.387C370.558 143.008 355.044 167.526 345.56 173.988L247.858 167.52Z" fill="url(#paint7_linear_22_2)"/>
<path opacity="0.3" d="M354.761 71.687C346.912 67.111 339.262 66.836 331.95 68.243C340.006 74.333 328.742 91.706 332.058 96.076C336.081 101.374 344.992 89.183 342.618 101.112C340.245 113.041 337.805 118.078 345.093 118.344C352.38 118.61 348.726 129.478 339.332 149.625C332.317 164.666 313.146 169.659 303.876 171.225L345.561 173.981C355.047 167.52 370.563 142.995 372.863 123.381C375.164 103.766 371.142 81.23 354.761 71.687Z" fill="url(#paint8_linear_22_2)"/>
<path d="M354.87 123.574C354.792 123.574 354.714 123.57 354.636 123.562C354.354 123.535 354.081 123.456 353.832 123.331C353.583 123.206 353.364 123.037 353.186 122.834C353.009 122.63 352.876 122.396 352.796 122.146C352.717 121.895 352.691 121.632 352.722 121.372C354.003 110.435 352.76 100.333 349.309 93.654C349.182 93.418 349.107 93.16 349.088 92.897C349.07 92.634 349.108 92.369 349.202 92.12C349.295 91.87 349.441 91.641 349.631 91.444C349.822 91.247 350.053 91.087 350.311 90.973C350.569 90.86 350.85 90.795 351.136 90.782C351.422 90.769 351.707 90.809 351.976 90.899C352.245 90.99 352.491 91.128 352.702 91.307C352.912 91.486 353.081 91.702 353.201 91.942C356.985 99.268 358.372 110.15 357.007 121.799C356.949 122.286 356.7 122.736 356.306 123.063C355.912 123.391 355.401 123.573 354.87 123.574Z" fill="white"/>
<path d="M279.732 169.628C276.751 166.759 275.422 161.458 269.985 162.615C262.513 164.205 269.123 157.048 265.099 150.951C261.077 144.854 256.191 152.541 249.005 148.035C241.82 143.528 260.788 124.972 254.753 121.586C248.718 118.2 248.14 133.189 240.673 127.622C235.437 123.722 235.351 99.779 235.769 85.798C232.511 91.405 230.139 98.859 229.321 108.67C226.304 144.856 247.857 167.522 247.857 167.522L279.732 169.628Z" fill="#C7283A"/>
<path d="M345.093 87.797C344.686 87.797 344.287 87.691 343.943 87.49C342.588 86.627 340.978 86.171 339.331 86.181C338.76 86.181 338.212 85.972 337.807 85.599C337.403 85.226 337.176 84.72 337.176 84.193C337.176 83.665 337.403 83.16 337.807 82.787C338.212 82.414 338.76 82.204 339.331 82.204C341.792 82.195 344.2 82.866 346.243 84.131C346.638 84.361 346.941 84.704 347.106 85.107C347.273 85.51 347.292 85.951 347.162 86.365C347.032 86.779 346.759 87.143 346.386 87.402C346.011 87.661 345.557 87.801 345.09 87.8L345.093 87.797Z" fill="white"/>
<path d="M303.751 77.652C297.334 77.37 290.967 76.471 284.753 74.968C275.019 72.534 273.005 77.652 289.382 81.631C305.759 85.61 315.211 84.017 323.616 79.544C332.022 75.071 329.76 73.083 324.479 72.784C319.198 72.485 312.961 78.484 303.751 77.652Z" fill="#C7283A"/>
<path d="M305.547 80.171C305.547 80.171 303.823 82.026 302.458 80.171C301.64 73.33 301.833 66.418 303.032 59.625C303.771 55.279 305.397 51.102 307.823 47.314C308.086 46.925 308.433 46.591 308.842 46.332C309.252 46.073 309.716 45.896 310.203 45.811C310.691 45.726 311.192 45.735 311.676 45.838C312.16 45.942 312.615 46.136 313.013 46.41L313.125 46.491C313.506 46.751 313.827 47.078 314.068 47.453C314.31 47.829 314.47 48.245 314.536 48.677C314.603 49.109 314.576 49.55 314.456 49.972C314.338 50.395 314.129 50.792 313.842 51.139C311.217 54.448 309.203 58.134 307.881 62.049C305.866 67.898 305.074 74.048 305.547 80.171Z" fill="url(#paint9_linear_22_2)"/>
<path d="M366.19 190.134H239.082C217.094 190.134 199.269 206.577 199.269 226.859V344.111C199.269 364.394 217.094 380.836 239.082 380.836H366.19C388.179 380.836 406.003 364.394 406.003 344.111V226.859C406.003 206.577 388.179 190.134 366.19 190.134Z" fill="url(#paint10_linear_22_2)"/>
<path d="M302.636 363.554C349.376 363.554 387.267 328.601 387.267 285.485C387.267 242.369 349.376 207.417 302.636 207.417C255.895 207.417 218.004 242.369 218.004 285.485C218.004 328.601 255.895 363.554 302.636 363.554Z" fill="url(#paint11_linear_22_2)"/>
<path d="M303.498 215.37H301.774V228.359H303.498V215.37Z" fill="#1D164D"/>
<path d="M249.498 235.344L248.279 236.468L258.237 245.654L259.455 244.529L249.498 235.344Z" fill="#1D164D"/>
<path d="M240.708 284.69H226.626V286.28H240.708V284.69Z" fill="#1D164D"/>
<path d="M258.236 325.317L248.279 334.502L249.498 335.627L259.455 326.442L258.236 325.317Z" fill="#1D164D"/>
<path d="M303.498 342.611H301.774V355.6H303.498V342.611Z" fill="#1D164D"/>
<path d="M347.035 325.317L345.816 326.442L355.774 335.626L356.992 334.502L347.035 325.317Z" fill="#1D164D"/>
<path d="M378.646 284.69H364.564V286.28H378.646V284.69Z" fill="#1D164D"/>
<path d="M355.774 235.343L345.816 244.529L347.035 245.653L356.993 236.468L355.774 235.343Z" fill="#1D164D"/>
<path d="M296.711 272.498L288.089 266.187L272.425 285.484L351.403 309.464L311.914 281.047C311.914 281.047 314.385 269.581 296.711 272.498Z" fill="#1D164D"/>
<path d="M342.618 180.443H262.654V189.887H342.618V180.443Z" fill="url(#paint12_linear_22_2)"/>
<path d="M238.656 167.519H366.616C366.616 170.947 365.14 174.234 362.512 176.658C359.885 179.082 356.321 180.443 352.606 180.443H252.667C248.951 180.443 245.387 179.082 242.76 176.658C240.132 174.234 238.656 170.947 238.656 167.519Z" fill="url(#paint13_linear_22_2)"/>
<path d="M665.998 190.333H448.071V455.348H665.998V190.333Z" fill="url(#paint14_linear_22_2)"/>
<path d="M665.998 190.333H597.397V455.348H665.998V190.333Z" fill="url(#paint15_linear_22_2)"/>
<path d="M631.698 190.333H597.397L614.548 162.46L631.699 134.587L648.849 162.46L666 190.333H631.698Z" fill="#4099F1"/>
<path d="M482.464 134.588H631.698L597.397 190.333H448.163L482.464 134.588Z" fill="url(#paint16_linear_22_2)"/>
<path d="M631.698 113.916H482.464V134.588H631.698V113.916Z" fill="#ACD4F3"/>
<path opacity="0.3" d="M566.772 228.73H448.071V387.547H566.772V228.73Z" fill="white"/>
<path d="M152.588 326.896C152.588 326.896 139.081 311.918 137.214 303.7C135.346 295.483 132.041 293.892 123.994 291.108C120.235 289.892 116.363 289.001 112.426 288.444C111.459 288.299 110.47 288.35 109.527 288.593C108.584 288.836 107.71 289.266 106.965 289.852C106.22 290.438 105.622 291.166 105.212 291.987C104.803 292.807 104.592 293.7 104.594 294.603V298.384C104.607 301.283 105.346 304.14 106.754 306.732C108.162 309.324 110.201 311.58 112.71 313.325C119.401 318.028 127.901 326.214 128.592 337.753C129.741 356.985 125.039 378.533 152.587 404.834C180.136 431.136 229.211 449.127 278.191 454.418C327.172 459.709 411.255 442.216 450.687 406.822C490.118 371.428 492.899 359.635 492.807 347.971C492.714 336.306 493.141 328.884 497.452 324.775C497.452 324.775 499.628 312.365 492.072 309.362C488.959 308.088 485.59 307.434 482.184 307.441C478.778 307.448 475.412 308.117 472.305 309.403C467.277 311.524 463.721 313.38 454.883 314.771C446.045 316.162 409.657 339.496 382.068 353.012C354.478 366.528 325.976 377.666 291.373 364.411C256.768 351.156 208.488 329.491 187.509 326.009C166.531 322.527 152.588 326.896 152.588 326.896Z" fill="#FED300"/>
<path opacity="0.3" d="M225.566 350.848C264.815 380.578 284.201 388.564 306.333 388.946C328.464 389.327 310.791 382.32 317.689 377.867C324.585 373.415 330.189 391.916 345.71 391.612C361.231 391.309 342.589 380.658 350.938 374.931C359.286 369.204 409.766 368.645 414.378 353.933C416.646 346.708 418.956 338.004 423.218 330.627C410.09 338.045 395.096 346.618 382.065 353.005C354.478 366.525 325.974 377.659 291.37 364.404C256.766 351.149 208.486 329.484 187.507 326.002C166.528 322.519 152.589 326.893 152.589 326.893C152.589 326.893 186.322 321.119 225.566 350.848Z" fill="white"/>
<path d="M492.803 347.967C492.707 336.303 493.138 328.88 497.449 324.772C497.449 324.772 498.798 317.037 495.649 312.301C494.283 319.847 488.682 325.17 483.471 326.002C478.261 326.833 485.522 333.653 479.487 346.171C473.452 358.689 445.416 360.351 433.706 384.153C421.996 407.955 416.55 402.313 412.782 388.941C409.014 375.57 359.073 415.037 331.68 428.838C304.287 442.639 268.835 413.445 211.097 412.382C153.36 411.319 137.214 371.026 141.236 353.53C145.259 336.034 139.799 320.659 126.292 311.285C116.538 304.516 120.871 295.567 124.03 291.115L123.99 291.1C120.231 289.885 116.358 288.993 112.422 288.437C111.455 288.292 110.466 288.343 109.523 288.586C108.58 288.829 107.706 289.259 106.961 289.845C106.216 290.43 105.618 291.159 105.208 291.979C104.799 292.8 104.587 293.692 104.589 294.596V298.377C104.603 301.276 105.342 304.133 106.75 306.725C108.158 309.316 110.196 311.573 112.706 313.318C119.397 318.021 127.897 326.206 128.587 337.746C129.737 356.977 125.035 378.526 152.583 404.827C180.132 431.129 229.207 449.12 278.187 454.411C327.168 459.702 411.251 442.209 450.682 406.815C490.114 371.421 492.9 359.635 492.803 347.967Z" fill="#EAAD03"/>
<path d="M135.43 298.549C133.331 294.591 129.973 293.176 123.993 291.108C120.235 289.892 116.362 289.001 112.425 288.444C111.081 288.24 109.701 288.418 108.469 288.955C107.236 289.491 106.21 290.36 105.526 291.447C106.513 299.354 119.172 301.293 127.73 300.784C132.373 300.507 134.477 299.475 135.43 298.549Z" fill="#1D164D"/>
<path d="M492.068 309.359C489.864 308.475 487.535 307.885 485.151 307.608C485.306 311.363 486.744 314.976 489.262 317.929L497.449 324.775C497.449 324.775 499.62 312.365 492.068 309.359Z" fill="#1D164D"/>
<path d="M126.972 415.012C147.971 443.775 134.446 459.105 112.707 466.041C90.9686 472.977 66.0162 470.317 54.0531 460.525C42.0899 450.733 49.9856 437.749 49.9856 437.749C55.9249 438.562 62.3857 429.909 63.282 420.169C64.1783 410.428 74.8727 406.571 73.4637 403.552C72.0548 400.532 65.5629 401.56 65.5629 401.56C65.5629 401.56 71.7528 389.568 79.8069 384.782C87.861 379.997 105.972 386.251 126.972 415.012Z" fill="url(#paint17_linear_22_2)"/>
<path d="M106.93 463.483C100.876 466.493 96.365 467.795 97.2875 459.825C98.2099 451.856 96.4337 446.667 93.0538 445.589C89.6737 444.511 92.6647 448.35 84.6124 451.01C78.7148 452.959 89.028 460.773 67.2381 460.374C50.4059 460.065 49.9864 437.751 49.9864 437.751L49.9812 437.755C49.8839 437.916 42.163 450.794 54.053 460.524C66.018 470.317 90.9617 472.971 112.707 466.039C113.511 465.783 114.302 465.516 115.082 465.237C112.1 463.848 109.987 461.961 106.93 463.483Z" fill="#C7283A"/>
<path opacity="0.3" d="M126.973 415.012C140.867 434.051 139.643 447.198 130.927 455.928C131.564 453.17 131.544 450.317 130.867 447.567C130.191 444.817 128.876 442.235 127.011 440C116.066 426.07 99.9469 438.679 100.007 422.264C100.067 405.85 98.9374 405.198 91.3758 405.934C83.8144 406.67 91.2637 400.957 88.6529 394.118C88.6138 394 88.5646 393.886 88.5058 393.776C87.5033 391.453 86.399 392.221 85.145 393.96C83.1869 396.703 80.8713 401.873 78.049 401.224C73.3602 400.149 77.1214 407.829 67.6541 410.995C70.7869 407.485 74.3114 405.368 73.4611 403.555C72.0522 400.536 65.5602 401.563 65.5602 401.563C65.5602 401.563 71.7502 389.571 79.8043 384.786C87.8583 380 105.977 386.251 126.973 415.012Z" fill="url(#paint18_linear_22_2)"/>
<path d="M55.3062 414.186C55.3062 414.186 52.0263 413.275 49.0127 409.305C45.999 405.334 44.9826 405.376 44.0279 406.934C43.0733 408.493 45.3212 414.993 54.0218 418.236C54.0218 418.236 46.0695 428.249 49.9857 437.752C55.925 438.564 62.3865 429.906 63.2812 420.172C64.1757 410.438 74.8692 406.573 73.4629 403.555C72.0567 400.536 65.5577 401.565 65.5577 401.565C65.5577 401.565 59.3294 403.379 55.3062 414.186Z" fill="url(#paint19_linear_22_2)"/>
<path d="M70.4162 457.407C70.6098 457.492 70.7823 457.613 70.9229 457.763C71.0636 457.913 71.1695 458.087 71.2339 458.276C71.2984 458.465 71.3201 458.664 71.2976 458.861C71.2752 459.058 71.2091 459.248 71.1036 459.421C70.998 459.593 70.8551 459.744 70.6837 459.863C70.5124 459.982 70.3164 460.068 70.1078 460.114C69.8991 460.161 69.6823 460.167 69.4709 460.133C69.2594 460.099 69.0577 460.026 68.8784 459.917C68.1274 459.526 65.0738 456.278 65.0738 456.278C65.0738 456.278 69.6643 457.015 70.4162 457.407Z" fill="#FBDA91"/>
<path d="M79.7347 444.624C79.9283 444.709 80.1008 444.83 80.2415 444.98C80.3822 445.13 80.488 445.304 80.5525 445.493C80.6169 445.682 80.6386 445.881 80.6162 446.078C80.5937 446.275 80.5277 446.465 80.4221 446.638C80.3164 446.81 80.1736 446.961 80.0023 447.08C79.831 447.199 79.635 447.285 79.4263 447.331C79.2176 447.378 79.0008 447.384 78.7894 447.35C78.578 447.316 78.3763 447.243 78.197 447.134C77.446 446.742 74.3923 443.494 74.3923 443.494C74.3923 443.494 78.9845 444.232 79.7347 444.624Z" fill="#FBDA91"/>
<path d="M100.278 442.143C100.469 442.23 100.639 442.352 100.777 442.502C100.915 442.652 101.019 442.826 101.082 443.013C101.144 443.201 101.165 443.399 101.142 443.594C101.119 443.79 101.053 443.979 100.948 444.15C100.843 444.321 100.702 444.47 100.532 444.589C100.362 444.708 100.168 444.794 99.9615 444.841C99.7547 444.888 99.5397 444.896 99.3294 444.864C99.1193 444.832 98.9183 444.761 98.739 444.655C97.988 444.264 94.9344 441.016 94.9344 441.016C94.9344 441.016 99.5274 441.754 100.278 442.143Z" fill="#FBDA91"/>
<path d="M107.79 402.946C108.008 402.999 108.21 403.095 108.384 403.226C108.558 403.357 108.7 403.521 108.8 403.707C108.9 403.893 108.955 404.097 108.963 404.304C108.971 404.511 108.931 404.718 108.846 404.91C108.761 405.102 108.632 405.274 108.468 405.417C108.305 405.559 108.11 405.668 107.897 405.735C107.685 405.803 107.459 405.828 107.235 405.809C107.011 405.789 106.794 405.726 106.599 405.624C105.687 405.278 101.639 402.182 101.639 402.182C101.639 402.182 106.877 402.6 107.79 402.946Z" fill="#F9E2B2"/>
<path d="M105.668 423.588C105.862 423.673 106.035 423.794 106.177 423.943C106.318 424.093 106.425 424.268 106.49 424.457C106.554 424.646 106.577 424.845 106.554 425.043C106.532 425.24 106.466 425.431 106.36 425.604C106.254 425.777 106.111 425.927 105.939 426.047C105.767 426.166 105.57 426.252 105.361 426.298C105.152 426.344 104.935 426.35 104.723 426.316C104.511 426.281 104.309 426.207 104.13 426.097C103.379 425.706 100.325 422.458 100.325 422.458C100.325 422.458 104.916 423.195 105.668 423.588Z" fill="#F9E2B2"/>
<path d="M92.428 411.132C92.6216 411.217 92.7941 411.339 92.9348 411.488C93.0755 411.638 93.1813 411.813 93.2457 412.001C93.3102 412.19 93.3318 412.389 93.3095 412.586C93.287 412.783 93.221 412.974 93.1154 413.146C93.0097 413.319 92.8668 413.469 92.6956 413.588C92.5242 413.708 92.3283 413.793 92.1195 413.84C91.9109 413.886 91.6941 413.893 91.4827 413.859C91.2712 413.825 91.0695 413.751 90.8903 413.642C90.1392 413.25 87.0856 410.003 87.0856 410.003C87.0856 410.003 91.677 410.739 92.428 411.132Z" fill="#FBDA91"/>
<path d="M88.5067 393.776C87.7766 393.87 86.3398 393.937 85.1459 393.96C86.3998 392.221 87.5041 391.453 88.5067 393.776Z" fill="#FBDA91"/>
<path d="M90.1315 392.238C90.3055 392.824 89.7425 393.488 88.8618 393.714C88.7448 393.74 88.6263 393.761 88.5067 393.776C87.5043 391.453 86.4 392.22 85.1459 393.96C84.1521 393.998 83.3254 394.005 83.2053 394.007C84.8251 393.109 86.4977 392.295 88.2152 391.567C88.5667 391.429 88.9626 391.422 89.3198 391.547C89.677 391.672 89.9679 391.92 90.1315 392.238Z" fill="#F9E2B2"/>
<path d="M108.557 454.913C108.751 454.998 108.925 455.119 109.066 455.268C109.207 455.418 109.314 455.593 109.379 455.782C109.444 455.971 109.466 456.17 109.443 456.368C109.421 456.565 109.355 456.756 109.249 456.929C109.143 457.102 109 457.252 108.828 457.372C108.656 457.491 108.46 457.577 108.25 457.623C108.041 457.669 107.824 457.675 107.612 457.641C107.4 457.606 107.199 457.532 107.019 457.422C106.268 457.031 103.215 453.782 103.215 453.782C103.215 453.782 107.806 454.52 108.557 454.913Z" fill="#FBDA91"/>
<path d="M67.6489 410.996C67.5854 410.991 65.0017 410.823 61.0864 417.353C57.1216 423.963 57.0721 429.42 54.3665 430.598C52.8548 431.256 51.1143 428.677 49.8725 426.274C48.5471 430.009 48.5869 434.042 49.9857 437.754C55.9251 438.567 62.3865 429.908 63.2811 420.173C63.6617 416.768 65.1892 413.559 67.6489 410.996Z" fill="#6BBC61"/>
<path d="M235.251 315.937L254.425 324.391V312.859L238.662 297.939C237.646 296.98 236.499 296.148 235.248 295.466L235.251 315.937Z" fill="url(#paint20_linear_22_2)"/>
<path d="M245.485 318.525C241.928 316.736 243.545 313.455 239.126 311.566C235.994 310.225 235.357 307.239 235.251 305.614V315.937L254.426 324.391L249.204 307.913C246.202 310.871 245.485 318.525 245.485 318.525Z" fill="#C9E2F4"/>
<path d="M273.573 337.378C272.306 337.441 269.703 337.441 266.438 337.418L265.946 337.41C256.117 337.322 240.745 336.948 236.619 336.848C236.378 336.848 236.171 336.84 236.009 336.832L235.575 336.824V344.076H189.453L197.962 301.441L198.101 300.765C198.42 299.173 199.172 297.682 200.286 296.432C201.401 295.181 202.841 294.212 204.472 293.615L208.016 292.319H208.025L217.102 289.003L227.526 292.813L231.716 294.017C232.953 294.37 234.14 294.859 235.251 295.472V323.398L266.435 329.521C267.728 329.784 269.051 329.896 270.374 329.855C272.857 329.267 272.573 328.033 273.289 328.63C274.005 329.226 272.574 331.215 272.574 331.215C278.531 332.408 280.687 329.625 281.91 330.69C283.134 331.755 279.255 337.115 273.573 337.378Z" fill="url(#paint21_linear_22_2)"/>
<path d="M235.571 336.82V344.073H225.457C226.69 342.968 226.836 341.846 224.147 341.091C217.034 339.103 213.801 339.699 212.939 333.934C212.077 328.168 199.825 328.843 200.437 319.618C200.649 315.699 200.365 311.771 199.592 307.912C200.007 308.773 200.493 309.603 201.05 310.393L216.206 331.898C217.066 333.115 218.222 334.13 219.581 334.863C220.941 335.596 222.467 336.027 224.038 336.121L235.571 336.82Z" fill="#4099F1"/>
<path d="M217.896 282.836C217.896 282.836 217.537 281.643 214.017 278.793C210.497 275.944 209.275 268.123 215.454 267.46C215.454 267.46 215.669 263.086 220.267 262.357C224.864 261.628 234.493 262.689 238.228 261.496C241.963 260.303 239.952 271.105 231.834 274.949C226.976 277.245 222.317 279.881 217.896 282.836Z" fill="url(#paint22_linear_22_2)"/>
<path d="M233.634 270.311C233.634 270.311 233.778 281.246 233.2 284.493C232.621 287.74 230.254 288.337 227.524 287.741V292.811L224.938 296.29L217.105 289V279.192C217.105 279.192 214.016 278.214 214.77 275.679C215.525 273.144 218.649 273.393 219.62 276.226C220.242 275.474 220.668 274.601 220.867 273.673C221.066 272.746 221.034 271.788 220.77 270.874C220.77 270.874 227.451 273.69 233.634 270.311Z" fill="url(#paint23_linear_22_2)"/>
<path d="M220.77 284.493C220.77 284.493 222.404 289.619 227.524 289.81V287.741C227.524 287.741 223.033 287.111 220.77 284.493Z" fill="#1D164D"/>
<path d="M235.571 344.074V446.024H223.909L210.783 376.545L181.117 446.024H169.09L189.453 344.074H235.571Z" fill="url(#paint24_linear_22_2)"/>
<path d="M328.036 344.074C311.223 375.09 290.101 371.774 272.858 357.729C255.615 343.684 245.847 322.339 249.2 307.914C252.554 293.489 268.694 293.44 268.694 293.44C270.85 298.609 282.195 299.541 291.826 295.467C301.456 291.394 310.361 298.084 312.517 295.467C314.673 292.851 310.506 288.141 310.506 288.141C310.506 288.141 324.87 287.211 333.353 291.323C341.838 295.434 344.848 313.058 328.036 344.074Z" fill="url(#paint25_linear_22_2)"/>
<path d="M272.427 351.829C266.607 348.448 263.158 345.466 271.133 342.286C279.108 339.105 283.132 335.126 282.486 331.881C281.839 328.636 279.688 332.925 273.218 327.772C268.476 323.994 266.176 336.12 255.831 318.427C247.84 304.758 268.691 293.441 268.691 293.441H268.684C268.484 293.441 252.533 293.579 249.2 307.916C245.846 322.342 255.615 343.68 272.858 357.733C273.496 358.252 274.139 358.756 274.787 359.244C274.627 356.164 275.37 353.54 272.427 351.829Z" fill="#C7283A"/>
<path d="M273.574 337.377C279.256 337.115 283.135 331.747 281.91 330.689C280.686 329.631 278.531 332.407 272.574 331.214C272.574 331.214 274.006 329.226 273.289 328.629C272.573 328.033 272.853 329.266 270.374 329.854C269.05 329.892 267.727 329.778 266.433 329.515V337.415C269.705 337.443 272.309 337.438 273.574 337.377Z" fill="url(#paint26_linear_22_2)"/>
<path d="M169.09 446.022H181.117L177.16 455.279H167.245L169.09 446.022Z" fill="url(#paint27_linear_22_2)"/>
<path d="M235.571 446.022V455.279H225.655L223.906 446.022H235.571Z" fill="url(#paint28_linear_22_2)"/>
<path d="M266.436 329.512V337.415L265.944 337.407L236.617 336.845L236.007 336.829L235.573 336.821L224.038 336.124C222.467 336.03 220.94 335.599 219.58 334.865C218.221 334.131 217.065 333.114 216.206 331.896L201.048 310.393C199.165 307.719 198.098 304.625 197.961 301.438L198.099 300.762C198.418 299.171 199.17 297.68 200.284 296.429C201.399 295.179 202.839 294.21 204.471 293.613L208.014 292.317H208.221C210.123 292.317 211.982 292.839 213.561 293.816C215.141 294.793 216.369 296.181 217.092 297.804L226.671 321.713L235.25 323.398L266.436 329.512Z" fill="url(#paint29_linear_22_2)"/>
<path d="M220.013 354.931L210.783 376.545L213.502 390.944L220.013 354.931Z" fill="#1D164D"/>
<path d="M168.372 449.621C167.612 449.621 166.875 449.866 166.291 450.315C165.707 450.764 165.311 451.387 165.173 452.077L163.648 459.723C163.561 460.16 163.578 460.609 163.701 461.039C163.822 461.469 164.046 461.868 164.354 462.21C164.662 462.551 165.048 462.826 165.484 463.015C165.92 463.203 166.396 463.301 166.878 463.301H199.359C199.702 463.301 200.031 463.175 200.274 462.952C200.516 462.728 200.653 462.425 200.653 462.108C200.653 461.654 200.511 461.209 200.244 460.826C199.978 460.444 199.597 460.141 199.149 459.952L178.811 451.412C178.811 451.412 170.722 455.358 168.372 449.621Z" fill="url(#paint30_linear_22_2)"/>
<path d="M182.096 455.284C183.467 454.826 184.935 454.663 186.386 454.807C186.882 454.912 187.028 455.036 187.043 455.075C187.096 455.219 186.665 455.71 186.434 455.974C185.954 456.52 185.41 457.139 185.529 457.793C185.571 457.981 185.658 458.159 185.783 458.313C185.909 458.467 186.069 458.594 186.253 458.685C186.617 458.908 187.043 459.03 187.48 459.035C188.394 458.929 189.25 458.566 189.934 457.997C190.547 457.537 191.243 457.182 191.992 456.947L190.898 456.488C190.385 456.739 189.894 457.027 189.431 457.35C188.282 458.111 187.591 458.516 186.71 458.01C186.631 457.976 186.562 457.927 186.505 457.867C186.449 457.807 186.406 457.737 186.379 457.661C186.325 457.361 186.757 456.869 187.103 456.475C187.475 456.126 187.748 455.697 187.895 455.226L184.849 453.948C183.838 454.053 182.84 454.244 181.866 454.518C181.315 454.687 180.744 454.797 180.167 454.845C180.183 454.749 180.212 454.656 180.253 454.567C180.637 453.669 181.763 453.27 182.82 453.095L181.586 452.577C181.118 452.7 180.684 452.915 180.316 453.208C179.947 453.501 179.652 453.865 179.451 454.274C179.371 454.457 179.133 455.015 179.494 455.385C179.931 455.832 180.794 455.617 182.096 455.284Z" fill="white"/>
<path opacity="0.3" d="M328.031 344.074C316.901 364.6 303.891 370.088 291.363 367.384C294.28 366.539 296.964 365.118 299.227 363.222C301.491 361.325 303.28 358.998 304.473 356.4C312.232 340.757 292.402 334.021 307.922 325.988C323.441 317.955 323.499 316.731 319.087 311.021C314.675 305.311 323.726 308.484 328.898 303.021C328.989 302.931 329.073 302.835 329.147 302.734C330.847 300.786 329.583 300.277 327.32 300.125C323.768 299.903 317.748 300.587 316.974 298.002C315.681 293.707 310.284 300.507 302.636 294.462C307.491 295.25 311.223 297.039 312.517 295.464C314.673 292.848 310.509 288.14 310.509 288.14C310.509 288.14 324.872 287.21 333.356 291.321C341.84 295.433 344.847 313.058 328.031 344.074Z" fill="url(#paint31_linear_22_2)"/>
<path d="M224.587 449.621C223.826 449.621 223.09 449.866 222.505 450.315C221.922 450.764 221.527 451.387 221.389 452.077L219.862 459.723C219.775 460.16 219.794 460.61 219.915 461.04C220.038 461.469 220.26 461.869 220.568 462.211C220.877 462.552 221.262 462.827 221.699 463.016C222.135 463.204 222.611 463.302 223.092 463.302H255.574C255.917 463.302 256.246 463.176 256.488 462.952C256.731 462.729 256.867 462.425 256.867 462.109C256.867 461.654 256.725 461.209 256.459 460.827C256.191 460.445 255.812 460.141 255.363 459.953L235.571 451.506C235.571 451.506 226.936 455.358 224.587 449.621Z" fill="url(#paint32_linear_22_2)"/>
<path d="M235.716 455.27C236.166 455.73 237.054 455.511 238.399 455.165C239.763 454.819 241.464 454.387 242.825 454.673C243.337 454.781 243.489 454.909 243.503 454.95C243.559 455.098 243.114 455.604 242.876 455.877C242.38 456.439 241.819 457.081 241.942 457.753C241.986 457.948 242.076 458.131 242.206 458.29C242.334 458.448 242.5 458.579 242.689 458.673C243.065 458.903 243.504 459.028 243.955 459.035C244.898 458.925 245.781 458.551 246.487 457.964C247.058 457.551 247.689 457.215 248.361 456.964L247.292 456.508C246.834 456.746 246.391 457.009 245.968 457.297C244.782 458.083 244.068 458.501 243.159 457.978C243.078 457.943 243.007 457.893 242.949 457.831C242.889 457.769 242.846 457.696 242.819 457.618C242.763 457.309 243.209 456.801 243.566 456.394C243.901 456.06 244.162 455.671 244.338 455.246L240.983 453.815C240.028 453.935 239.085 454.123 238.162 454.377C237.593 454.552 237.006 454.665 236.408 454.715C236.425 454.616 236.454 454.519 236.496 454.427C236.741 454.015 237.092 453.664 237.519 453.407C237.946 453.149 238.433 452.991 238.942 452.948L237.73 452.431C237.276 452.563 236.859 452.783 236.502 453.075C236.147 453.367 235.863 453.725 235.669 454.125C235.591 454.312 235.344 454.888 235.716 455.27Z" fill="white"/>
<path d="M293.55 286.117C293.55 286.117 292.795 283.035 295.059 278.661C297.322 274.287 296.783 273.491 294.843 273.491C292.904 273.491 287.874 278.496 289.095 287.077C289.095 287.077 275.731 285.619 268.691 293.44C270.847 298.609 282.197 299.541 291.826 295.465C301.454 291.389 310.362 298.079 312.517 295.465C314.673 292.851 310.505 288.142 310.505 288.142C310.505 288.142 305.728 284.03 293.55 286.117Z" fill="url(#paint33_linear_22_2)"/>
<path d="M260.194 319.519C260.21 319.717 260.18 319.915 260.109 320.102C260.037 320.289 259.925 320.461 259.778 320.606C259.631 320.751 259.454 320.867 259.256 320.946C259.059 321.025 258.847 321.066 258.632 321.066C258.416 321.066 258.204 321.025 258.007 320.946C257.81 320.867 257.633 320.751 257.486 320.606C257.34 320.461 257.226 320.289 257.155 320.102C257.083 319.915 257.054 319.717 257.069 319.519C257.069 318.722 258.636 314.672 258.636 314.672C258.636 314.672 260.194 318.723 260.194 319.519Z" fill="#FBDA91"/>
<path d="M276.846 320.712C276.86 320.909 276.832 321.108 276.76 321.295C276.689 321.482 276.576 321.654 276.43 321.799C276.283 321.944 276.105 322.06 275.908 322.139C275.711 322.218 275.498 322.259 275.283 322.259C275.068 322.259 274.856 322.218 274.658 322.139C274.461 322.06 274.283 321.944 274.137 321.799C273.99 321.654 273.878 321.482 273.807 321.295C273.734 321.108 273.705 320.909 273.721 320.712C273.721 319.915 275.286 315.865 275.286 315.865C275.286 315.865 276.846 319.916 276.846 320.712Z" fill="#FBDA91"/>
<path d="M289.292 335.99C289.264 336.355 289.086 336.696 288.797 336.945C288.507 337.195 288.125 337.333 287.729 337.333C287.333 337.333 286.951 337.195 286.661 336.945C286.372 336.696 286.195 336.355 286.166 335.99C286.166 335.194 287.733 331.144 287.733 331.144C287.733 331.144 289.292 335.195 289.292 335.99Z" fill="#FBDA91"/>
<path d="M329.982 322.73C330.039 322.931 330.049 323.14 330.011 323.345C329.973 323.55 329.888 323.745 329.762 323.917C329.635 324.089 329.471 324.234 329.279 324.342C329.087 324.451 328.873 324.52 328.649 324.546C328.426 324.572 328.199 324.554 327.984 324.493C327.768 324.431 327.57 324.328 327.402 324.19C327.234 324.053 327.099 323.883 327.007 323.694C326.915 323.504 326.868 323.299 326.869 323.091C326.746 322.189 327.677 317.415 327.677 317.415C327.677 317.415 329.861 321.828 329.982 322.73Z" fill="#F9E2B2"/>
<path d="M309.458 331.185C309.431 331.55 309.254 331.891 308.964 332.14C308.674 332.389 308.293 332.528 307.896 332.528C307.5 332.528 307.118 332.389 306.828 332.14C306.538 331.891 306.362 331.55 306.333 331.185C306.333 330.389 307.9 326.339 307.9 326.339C307.9 326.339 309.458 330.39 309.458 331.185Z" fill="#F9E2B2"/>
<path d="M314.701 314.424C314.673 314.789 314.496 315.13 314.206 315.38C313.916 315.629 313.535 315.767 313.139 315.767C312.742 315.767 312.361 315.629 312.07 315.38C311.78 315.13 311.604 314.789 311.576 314.424C311.576 313.628 313.143 309.578 313.143 309.578C313.143 309.578 314.701 313.629 314.701 314.424Z" fill="#FBDA91"/>
<path d="M329.147 302.735C328.699 302.194 327.93 301.072 327.32 300.126C329.579 300.277 330.847 300.786 329.147 302.735Z" fill="#FBDA91"/>
<path d="M331.397 303.283C331.084 303.481 330.701 303.562 330.325 303.507C329.949 303.452 329.612 303.266 329.38 302.988C329.297 302.907 329.22 302.822 329.147 302.734C330.846 300.786 329.582 300.277 327.319 300.125C326.797 299.346 326.379 298.686 326.319 298.59C327.964 299.449 329.556 300.392 331.087 301.413C331.391 301.628 331.593 301.942 331.651 302.291C331.708 302.639 331.617 302.995 331.397 303.283Z" fill="#F9E2B2"/>
<path d="M281.316 348.919C281.289 349.284 281.112 349.625 280.822 349.875C280.533 350.124 280.151 350.262 279.754 350.262C279.358 350.262 278.976 350.124 278.686 349.875C278.396 349.625 278.22 349.284 278.192 348.919C278.192 348.123 279.758 344.073 279.758 344.073C279.758 344.073 281.316 348.124 281.316 348.919Z" fill="#FBDA91"/>
<path d="M302.634 294.459C302.607 294.405 301.494 292.248 293.41 292.317C285.219 292.386 280.047 295.031 277.603 293.44C276.239 292.55 277.816 289.884 279.473 287.703C275.296 288.477 271.51 290.493 268.695 293.443C270.851 298.613 282.201 299.544 291.829 295.468C295.229 294.099 299.007 293.746 302.634 294.459Z" fill="#6BBC61"/>
<path d="M419.292 454.819H405.868L382.894 412.509C381.41 409.771 380.212 406.908 379.316 403.96L373.28 384.15L369.341 398.171L365.946 454.819H352.935L348.789 395.133C348.711 393.97 348.763 392.803 348.943 391.65L353.651 362.566V351.632L360.108 351.369L397.034 351.632L398.043 390.602L399.621 402.133L419.292 454.819Z" fill="url(#paint34_linear_22_2)"/>
<path d="M369.341 398.17L373.282 384.145L369.614 365.553L369.341 398.17Z" fill="#1D164D"/>
<path d="M349.19 309.18C349.19 309.18 353.177 306.496 353.07 294.268C352.962 282.041 351.13 271.9 357.38 268.024C363.63 264.147 370.528 267.03 371.336 270.906C371.336 270.906 373.977 268.918 375.7 271.006C377.424 273.094 377.209 287.873 387.554 295.958C397.9 304.043 397.756 313.458 392.297 317.961C386.836 322.465 349.19 309.18 349.19 309.18Z" fill="url(#paint35_linear_22_2)"/>
<path d="M412.557 385.031C398.764 396.961 375.7 392.189 375.7 392.189C370.097 376.482 367.868 351.629 367.868 351.629L360.109 351.364C360.426 365.525 362.4 379.612 365.999 393.382C352.636 393.119 346.17 385.429 346.17 385.429C353.068 368.33 354.258 344.376 354.258 344.376L325.789 345.179L322.565 345.266C319.214 345.606 315.824 345.289 312.616 344.336C306.872 342.746 304.856 338.705 306.872 339.038C308.888 339.37 315.89 338.656 315.89 338.656C314.804 337.558 314.865 335.228 315.347 335.228C315.83 335.228 316.158 336.564 318.097 336.914C319.435 337.175 320.749 337.528 322.029 337.972L331.634 335.896L353.928 331.084L353.066 324.586L334.082 331.163C336.598 326.19 338.735 321.061 340.479 315.814L351.44 305.341C353.019 303.839 354.888 302.62 356.949 301.747L361.259 299.933L371.338 296.998L380.572 298.883C381.743 299.126 382.873 299.511 383.935 300.029C385.917 300.997 387.601 302.414 388.829 304.145C390.058 305.876 390.791 307.866 390.961 309.93C391.038 310.884 391.134 311.902 391.228 312.967V312.975C392.038 322.066 393.375 334.631 395.318 344.732C398.763 362.763 412.557 385.031 412.557 385.031Z" fill="url(#paint36_linear_22_2)"/>
<path d="M393.522 333.663C393.471 333.337 392.884 330.673 389.065 329.48C384.995 328.196 380.227 333.333 378.071 341.688C375.916 350.042 367.872 351.629 360.113 351.366C355.398 351.199 353.871 352.726 353.396 353.943C354.069 348.233 354.259 344.376 354.259 344.376H364.902C366.513 344.376 368.097 343.996 369.503 343.272C370.91 342.549 372.092 341.505 372.938 340.24L391.232 312.978C391.499 315.96 391.818 319.32 392.207 322.84C392.595 326.36 393.023 330.029 393.522 333.663Z" fill="#C9E2F4"/>
<path d="M377.202 301.462C373.981 302.911 371.408 305.349 369.925 308.357L364.553 319.3L359.336 329.918L358.803 330.037L353.929 331.087C359.679 329.234 356.231 322.739 358.889 321.798C360.717 321.161 362.7 318.767 364.546 315.181C365.46 313.563 366.252 311.891 366.92 310.174C369.203 303.836 376.572 301.597 377.202 301.462Z" fill="#C9E2F4"/>
<path d="M364.642 313.256C365.506 301.657 371.337 297.003 371.337 297.003L361.261 299.936C361.261 299.936 356.555 319.402 360.11 351.365L367.87 351.63C367.87 351.63 363.777 324.856 364.642 313.256Z" fill="url(#paint37_linear_22_2)"/>
<path d="M364.553 319.3L359.337 329.917L358.803 330.036C358.759 327.093 358.803 324.35 358.89 321.797C360.718 321.16 362.701 318.767 364.546 315.18C364.51 316.446 364.51 317.83 364.553 319.3Z" fill="#B122E5"/>
<path d="M367.942 278.065C367.942 278.065 360.326 281.047 355.368 278.065C355.368 278.065 354.672 292.889 356.949 294.832C357.532 295.296 358.244 295.604 359.004 295.721C359.763 295.838 360.544 295.76 361.259 295.495V299.935L363.738 303.065L371.336 297.001V287.261C371.336 287.261 375.305 284.792 373.582 282.538C371.857 280.285 369.844 284.328 369.844 285.52C369.587 284.801 369.157 284.144 368.587 283.598C367.51 282.439 367.942 278.065 367.942 278.065Z" fill="url(#paint38_linear_22_2)"/>
<path d="M366.917 292.032C365.371 293.6 363.427 294.79 361.26 295.496V298.099C365.486 296.944 366.917 292.032 366.917 292.032Z" fill="#1D164D"/>
<path d="M391.228 312.971V312.979L372.938 340.245C372.089 341.508 370.906 342.551 369.5 343.274C368.093 343.997 366.51 344.377 364.899 344.377H354.259L325.791 345.179L322.567 345.267C319.217 345.607 315.826 345.29 312.617 344.337C306.874 342.746 304.858 338.706 306.874 339.038C308.89 339.371 315.892 338.656 315.892 338.656C314.806 337.559 314.867 335.229 315.349 335.229C315.832 335.229 316.16 336.564 318.099 336.914C319.437 337.175 320.751 337.529 322.03 337.972L331.635 335.896L353.93 331.085L359.337 329.916L369.927 308.36C371.146 305.876 373.117 303.769 375.601 302.291C378.087 300.814 380.98 300.028 383.937 300.029C385.919 300.997 387.603 302.414 388.832 304.145C390.061 305.876 390.794 307.866 390.963 309.93C391.04 310.887 391.133 311.905 391.228 312.971Z" fill="url(#paint39_linear_22_2)"/>
<path d="M318.101 336.916C316.161 336.566 315.833 335.23 315.35 335.23C314.869 335.23 314.807 337.558 315.893 338.658C315.893 338.658 308.885 339.366 306.875 339.04C304.866 338.714 306.875 342.746 312.619 344.338C315.828 345.291 319.217 345.608 322.568 345.269L322.034 337.976C320.754 337.532 319.439 337.177 318.101 336.916Z" fill="url(#paint40_linear_22_2)"/>
<path d="M353.074 324.59L352.068 309.612C352.068 309.612 348.875 317.167 348.674 320.746C348.473 324.325 345.169 321.79 342.009 324.316C339.05 326.682 341.127 321.144 338.927 320.209C337.622 323.632 336.026 327.279 334.088 331.167L353.074 324.59Z" fill="#C9E2F4"/>
<path d="M352.94 454.818H365.941L365.32 465.156H353.66L352.94 454.818Z" fill="url(#paint41_linear_22_2)"/>
<path d="M423.146 465.156H411.484L405.871 454.818H419.296L423.146 465.156Z" fill="url(#paint42_linear_22_2)"/>
<path d="M365.822 456.803C366.582 456.803 367.319 457.049 367.903 457.498C368.487 457.946 368.883 458.57 369.02 459.259L370.545 466.905C370.633 467.342 370.615 467.791 370.493 468.221C370.371 468.651 370.148 469.051 369.84 469.392C369.532 469.734 369.146 470.009 368.709 470.197C368.273 470.386 367.797 470.484 367.315 470.483H334.834C334.491 470.483 334.163 470.358 333.92 470.134C333.678 469.91 333.541 469.607 333.541 469.291C333.541 468.836 333.683 468.391 333.949 468.009C334.217 467.626 334.596 467.323 335.046 467.134L353.187 458.595C353.187 458.595 363.472 462.541 365.822 456.803Z" fill="url(#paint43_linear_22_2)"/>
<path d="M343.054 464.907C343.785 465.515 344.701 465.903 345.678 466.017C346.144 466.01 346.599 465.88 346.988 465.642C347.184 465.545 347.355 465.409 347.489 465.245C347.623 465.08 347.717 464.891 347.762 464.689C347.889 463.991 347.307 463.325 346.794 462.746C346.548 462.49 346.339 462.205 346.173 461.9L345.345 462.289C345.543 462.647 345.79 462.98 346.079 463.28C346.45 463.702 346.911 464.228 346.853 464.548C346.826 464.629 346.78 464.704 346.72 464.769C346.659 464.833 346.585 464.885 346.501 464.921C345.56 465.462 344.821 465.03 343.592 464.216C343.273 464.004 342.931 463.792 342.577 463.591L341.595 464.054C342.105 464.302 342.593 464.587 343.054 464.907Z" fill="white"/>
<path d="M351.677 461.188C350.76 460.939 349.825 460.751 348.879 460.626L347.098 461.464C348.567 461.377 350.041 461.563 351.431 462.01C352.823 462.364 353.744 462.595 354.21 462.118C354.595 461.723 354.34 461.127 354.255 460.931C354.046 460.503 353.739 460.121 353.356 459.813C352.973 459.504 352.522 459.275 352.034 459.141L350.836 459.703C351.366 459.746 351.878 459.909 352.325 460.177C352.772 460.445 353.14 460.81 353.399 461.241C353.442 461.336 353.474 461.436 353.491 461.538C352.874 461.487 352.265 461.369 351.677 461.188Z" fill="white"/>
<path d="M420.031 456.803C420.791 456.803 421.527 457.049 422.111 457.497C422.695 457.946 423.09 458.57 423.228 459.259L424.755 466.905C424.842 467.342 424.823 467.791 424.702 468.221C424.58 468.651 424.357 469.051 424.049 469.392C423.741 469.734 423.354 470.008 422.918 470.197C422.482 470.386 422.007 470.483 421.525 470.483H389.043C388.7 470.483 388.371 470.358 388.129 470.134C387.886 469.91 387.75 469.607 387.75 469.291C387.749 468.836 387.891 468.391 388.158 468.008C388.425 467.626 388.805 467.323 389.254 467.134L407.877 458.595C407.877 458.595 417.68 462.541 420.031 456.803Z" fill="url(#paint44_linear_22_2)"/>
<path d="M420.031 456.803C420.791 456.803 421.527 457.049 422.111 457.497C422.695 457.946 423.09 458.57 423.228 459.259L424.755 466.905C424.842 467.342 424.823 467.791 424.702 468.221C424.58 468.651 424.357 469.051 424.049 469.392C423.741 469.734 423.354 470.008 422.918 470.197C422.482 470.386 422.007 470.483 421.525 470.483H389.043C388.7 470.483 388.371 470.358 388.129 470.134C387.886 469.91 387.75 469.607 387.75 469.291C387.749 468.836 387.891 468.391 388.158 468.008C388.425 467.626 388.805 467.323 389.254 467.134L407.877 458.595C407.877 458.595 417.68 462.541 420.031 456.803Z" fill="url(#paint45_linear_22_2)"/>
<path d="M397.454 465.046C398.166 465.637 399.056 466.014 400.005 466.125C400.459 466.118 400.902 465.992 401.281 465.76C401.471 465.666 401.638 465.534 401.768 465.374C401.898 465.214 401.989 465.03 402.033 464.834C402.157 464.155 401.592 463.51 401.092 462.942C400.852 462.669 400.404 462.158 400.46 462.009C400.466 462 400.474 461.992 400.482 461.985L399.639 462.371C399.824 462.771 400.079 463.14 400.397 463.463C400.757 463.873 401.206 464.384 401.15 464.696C401.122 464.775 401.078 464.849 401.019 464.911C400.96 464.973 400.888 465.024 400.807 465.059C399.893 465.586 399.173 465.164 397.979 464.373C397.613 464.132 397.223 463.891 396.81 463.669L395.823 464.122C396.401 464.376 396.947 464.686 397.454 465.046Z" fill="white"/>
<path d="M405.604 462.226C406.959 462.572 407.854 462.796 408.308 462.332C408.681 461.947 408.433 461.368 408.35 461.176C408.137 460.751 407.827 460.372 407.442 460.066C407.056 459.76 406.605 459.533 406.117 459.401L404.899 459.963C405.984 460.15 407.125 460.565 407.518 461.482C407.56 461.575 407.591 461.673 407.609 461.773C407.008 461.722 406.415 461.608 405.843 461.432C404.893 461.17 403.922 460.98 402.939 460.863L401.669 461.444L400.899 461.798C400.972 461.776 401.045 461.755 401.144 461.734C402.516 461.444 404.226 461.88 405.604 462.226Z" fill="white"/>
<path opacity="0.5" d="M405.183 249.865C404.812 253.916 405.376 258.738 408.111 262.516C408.243 262.699 408.378 262.876 408.522 263.046C408.539 263.071 408.557 263.095 408.577 263.117C408.694 263.256 408.812 263.396 408.93 263.529C408.97 263.574 409.011 263.613 409.052 263.658C409.155 263.766 409.253 263.872 409.353 263.972C409.412 264.028 409.467 264.083 409.526 264.133L409.773 264.374C409.85 264.434 409.919 264.499 409.996 264.559C410.073 264.619 410.139 264.678 410.204 264.736C410.292 264.799 410.378 264.868 410.465 264.932C410.522 264.977 410.582 265.021 410.64 265.061C410.736 265.133 410.836 265.2 410.93 265.261C410.984 265.298 411.035 265.329 411.09 265.362C411.189 265.428 411.295 265.492 411.397 265.549C411.407 265.558 411.418 265.561 411.422 265.567C411.973 265.58 412.523 265.541 413.065 265.451C414.151 265.268 415.176 264.856 416.061 264.247C416.946 263.638 417.667 262.849 418.166 261.94C420.719 257.357 422.074 249.578 417.255 243.366C416.258 242.048 415.015 240.904 413.584 239.987C412.788 239.481 411.905 239.104 410.973 238.869L410.93 238.891C410.697 239.026 410.468 239.168 410.247 239.324C410.236 239.328 410.224 239.335 410.215 239.343C409.038 240.192 408.053 241.245 407.315 242.443C407.315 242.448 407.305 242.452 407.302 242.462C407.16 242.69 407.029 242.921 406.91 243.15C406.902 243.158 406.897 243.168 406.895 243.179C406.774 243.413 406.66 243.644 406.565 243.874C405.81 245.803 405.346 247.819 405.183 249.865Z" fill="url(#paint46_linear_22_2)"/>
<path d="M418.817 273.808L417.505 265.967L415.114 266.257L416.426 274.097L418.817 273.808Z" fill="#B7C0E2"/>
<path d="M481.153 247.778C483.853 239.655 477.881 230.762 467.814 227.915C457.747 225.068 447.398 229.346 444.698 237.469C441.999 245.592 447.97 254.485 458.038 257.332C468.104 260.179 478.455 255.901 481.153 247.778Z" fill="url(#paint47_linear_22_2)"/>
<path d="M470.008 261.578L468.066 252.698C468.066 252.698 471.14 252.404 471.001 248.875C470.862 245.346 465.472 245.775 464.799 249.169C464.027 248.736 463.39 248.126 462.95 247.398C462.511 246.671 462.285 245.85 462.293 245.017C462.45 242.269 461.964 241.759 461.191 241.96C460.417 242.161 457.143 246.399 454.036 246.032C450.928 245.665 450.358 244.806 449.999 245.729C449.642 246.652 451.544 256.264 453.175 259.1C453.574 259.888 454.191 260.565 454.966 261.062C455.739 261.559 456.643 261.858 457.583 261.928L458.341 266.214L465.779 270.133C465.779 270.133 473.16 265.493 470.008 261.578Z" fill="url(#paint48_linear_22_2)"/>
<path d="M456.494 392.109L455.884 393.939L440.798 396.374L460.491 401.943L463.134 393.988L456.494 392.109Z" fill="#1D164D"/>
<path d="M438.233 386.947L437.624 388.777L422.537 391.212L442.229 396.781L444.873 388.826L438.233 386.947Z" fill="#1D164D"/>
<path d="M453.632 316.469C453.632 316.469 436.391 339.657 432.659 347.255C428.926 354.854 438.237 386.947 438.237 386.947L444.876 388.825C444.876 388.825 445.752 366.455 446.846 361.04C447.94 355.626 464.12 339.119 464.12 339.119L473.987 324.457L471.333 318.49L453.632 316.469Z" fill="url(#paint49_linear_22_2)"/>
<path d="M492.596 316.876C492.596 316.876 494.044 324.359 489.261 335.106C484.479 345.854 467.808 354.729 465.939 359.134C464.071 363.538 463.133 393.989 463.133 393.989L456.493 392.111C456.493 392.111 449.585 362.825 447.908 353.601C446.231 344.377 467.858 328.31 473.523 313.997L492.596 316.876Z" fill="url(#paint50_linear_22_2)"/>
<path d="M493.223 314.075C493.781 314.73 494.114 315.524 494.179 316.355C494.245 317.186 494.04 318.016 493.591 318.739C492.075 321.476 463.103 322.124 456.633 320.947C451.458 320.004 450.425 318.446 450.728 317.575C451.061 316.426 451.189 315.234 451.108 314.047L450.687 289.804C450.687 289.804 442.342 300.802 437.104 303.508C431.866 306.214 416.443 284.914 416.443 284.914L420.38 278.837C420.38 278.837 431.641 289.583 433.826 290.294C436.011 291.006 440.948 279.185 443.007 273.904C445.066 268.623 445.85 267.169 447.688 266.197C449.525 265.226 457.919 263.824 457.919 263.824C458.43 264.858 459.263 265.73 460.312 266.326C461.361 266.923 462.579 267.218 463.811 267.174C468.186 267.061 470.01 261.574 470.01 261.574C470.01 261.574 485.129 265.872 490.116 267.259C495.105 268.647 510.426 289.335 513.518 295.516C516.61 301.698 519.958 318.652 519.958 318.652L514.123 320.724C514.123 320.724 504.841 303.114 500.871 298.361C496.9 293.608 487.426 288.416 487.426 288.416L493.223 314.075Z" fill="url(#paint51_linear_22_2)"/>
<path d="M421.743 287.067L419.68 274.721L415.914 275.177L417.978 287.523L421.743 287.067Z" fill="#414E6E"/>
<path d="M417.562 289.443L422.186 288.881C422.333 288.863 422.474 288.817 422.6 288.746C422.726 288.675 422.834 288.58 422.918 288.467C423.002 288.355 423.06 288.228 423.086 288.094C423.114 287.96 423.11 287.822 423.076 287.69C423.016 287.455 422.864 287.249 422.649 287.112C422.433 286.975 422.17 286.917 421.911 286.949L417.286 287.511C417.14 287.528 416.999 287.574 416.873 287.645C416.746 287.717 416.638 287.811 416.554 287.924C416.471 288.036 416.412 288.163 416.386 288.297C416.358 288.431 416.361 288.569 416.396 288.702C416.456 288.936 416.609 289.142 416.824 289.279C417.039 289.416 417.302 289.474 417.562 289.443Z" fill="#2C3449"/>
<path d="M415.572 275.422L420.196 274.86C420.343 274.842 420.484 274.797 420.61 274.726C420.737 274.655 420.845 274.56 420.929 274.448C421.013 274.335 421.071 274.208 421.098 274.074C421.126 273.94 421.122 273.802 421.088 273.669C421.027 273.435 420.875 273.229 420.659 273.092C420.444 272.955 420.182 272.897 419.922 272.928L415.297 273.49C415.15 273.507 415.009 273.553 414.883 273.625C414.757 273.696 414.649 273.791 414.565 273.903C414.481 274.015 414.424 274.142 414.397 274.276C414.369 274.411 414.373 274.548 414.408 274.681C414.468 274.915 414.62 275.121 414.835 275.258C415.051 275.395 415.313 275.453 415.572 275.422Z" fill="#2C3449"/>
<path d="M410.225 239.341C409.047 240.189 408.063 241.242 407.326 242.44C408.062 241.241 409.047 240.188 410.225 239.341Z" fill="#B7C0E2"/>
<path d="M411.091 265.359C411.194 265.424 411.296 265.489 411.398 265.549C411.296 265.489 411.194 265.424 411.091 265.359Z" fill="#B7C0E2"/>
<path d="M410.646 265.06C410.742 265.128 410.838 265.196 410.935 265.261C410.838 265.196 410.742 265.128 410.646 265.06Z" fill="#B7C0E2"/>
<path d="M410.936 238.89C410.704 239.023 410.476 239.166 410.252 239.319C410.473 239.165 410.701 239.022 410.936 238.89Z" fill="#B7C0E2"/>
<path d="M410.21 264.732C410.297 264.8 410.385 264.867 410.471 264.932C410.381 264.864 410.296 264.8 410.21 264.732Z" fill="#B7C0E2"/>
<path d="M408.519 263.047C408.537 263.072 408.558 263.093 408.576 263.116C408.56 263.093 408.537 263.072 408.519 263.047Z" fill="#B7C0E2"/>
<path d="M409.353 263.971C409.409 264.027 409.467 264.081 409.526 264.136C409.467 264.081 409.409 264.027 409.353 263.971Z" fill="#B7C0E2"/>
<path d="M409.778 264.37C409.851 264.434 409.923 264.497 409.996 264.558C409.923 264.496 409.853 264.434 409.778 264.37Z" fill="#B7C0E2"/>
<path d="M408.932 263.531C408.972 263.575 409.011 263.616 409.052 263.659C409.011 263.616 408.972 263.574 408.932 263.531Z" fill="#B7C0E2"/>
<path d="M407.312 242.457C407.17 242.686 407.039 242.916 406.917 243.148C407.036 242.916 407.168 242.686 407.312 242.457Z" fill="#B7C0E2"/>
<path d="M405.184 249.867C405.349 247.819 405.817 245.802 406.577 243.872C406.674 243.642 406.786 243.409 406.905 243.177C406.785 243.408 406.676 243.641 406.579 243.871C405.818 245.801 405.35 247.819 405.184 249.867Z" fill="#B7C0E2"/>
<path d="M409.997 264.558C410.067 264.617 410.138 264.675 410.209 264.732C410.138 264.675 410.067 264.617 409.997 264.558Z" fill="#B7C0E2"/>
<path d="M409.525 264.136C409.612 264.216 409.694 264.297 409.778 264.37C409.694 264.294 409.61 264.215 409.525 264.136Z" fill="#B7C0E2"/>
<path d="M409.053 263.659C409.152 263.766 409.252 263.871 409.352 263.971C409.251 263.871 409.152 263.766 409.053 263.659Z" fill="#B7C0E2"/>
<path d="M408.109 262.515C408.242 262.7 408.379 262.878 408.519 263.048C408.38 262.877 408.243 262.701 408.111 262.517C405.373 258.744 404.811 253.915 405.184 249.868C404.811 253.914 405.372 258.742 408.109 262.515Z" fill="#B7C0E2"/>
<path d="M408.576 263.113C408.693 263.255 408.812 263.394 408.931 263.528C408.811 263.397 408.693 263.259 408.576 263.113Z" fill="#B7C0E2"/>
<path d="M410.252 239.319L410.221 239.341L410.252 239.319Z" fill="#B7C0E2"/>
<path d="M410.468 264.932C410.525 264.976 410.586 265.018 410.641 265.061C410.586 265.018 410.525 264.976 410.468 264.932Z" fill="#B7C0E2"/>
<path d="M410.975 238.866L410.931 238.889C410.949 238.884 410.962 238.874 410.975 238.866Z" fill="#B7C0E2"/>
<path d="M407.323 242.44L407.312 242.457L407.323 242.44Z" fill="#B7C0E2"/>
<path d="M411.426 265.565L411.4 265.549L411.429 265.565H411.426Z" fill="#B7C0E2"/>
<path d="M406.916 243.151L406.902 243.181L406.916 243.151Z" fill="#B7C0E2"/>
<path d="M410.936 265.261C410.986 265.295 411.039 265.326 411.09 265.359C411.039 265.326 410.986 265.295 410.936 265.261Z" fill="#B7C0E2"/>
<path d="M417.533 266.136L418.695 273.08L415.191 266.718L416.523 266.088L417.214 266.008L417.533 266.136Z" fill="#8F9BC1"/>
<path d="M410.981 238.865C411.912 239.1 412.795 239.478 413.591 239.983C415.022 240.9 416.265 242.043 417.263 243.361C422.081 249.576 420.727 257.351 418.173 261.936C417.674 262.844 416.953 263.634 416.068 264.243C415.184 264.852 414.158 265.263 413.072 265.446C412.53 265.537 411.98 265.576 411.429 265.562C412.337 266.122 413.366 266.494 414.445 266.652C415.523 266.811 416.626 266.753 417.678 266.482C418.73 266.21 419.706 265.733 420.539 265.082C421.373 264.43 422.043 263.621 422.506 262.708C425.186 257.741 426.74 249.382 422.033 242.816C420.396 240.533 417.701 238.073 414.55 237.958C413.759 237.929 412.969 238.047 412.23 238.307C411.795 238.457 411.377 238.644 410.981 238.865Z" fill="#EAF5FF"/>
<path d="M405.183 249.865C404.812 253.916 405.376 258.738 408.111 262.516C408.243 262.699 408.378 262.876 408.522 263.046C408.538 263.071 408.557 263.095 408.577 263.117C408.694 263.256 408.812 263.396 408.93 263.529C408.97 263.574 409.011 263.613 409.052 263.658C409.155 263.766 409.253 263.872 409.353 263.972C409.412 264.028 409.467 264.083 409.526 264.133L409.773 264.374C409.85 264.434 409.919 264.499 409.996 264.559C410.072 264.619 410.139 264.678 410.204 264.736C410.292 264.799 410.378 264.868 410.465 264.932C410.522 264.977 410.582 265.021 410.64 265.061C410.736 265.133 410.836 265.2 410.93 265.261C410.984 265.298 411.035 265.329 411.09 265.362C411.189 265.428 411.295 265.492 411.397 265.549C411.407 265.558 411.418 265.561 411.422 265.567C411.973 265.58 412.523 265.541 413.065 265.451C412.336 264.833 411.692 264.137 411.144 263.377C406.786 257.365 407.946 248.687 409.61 244.733C410.413 242.831 411.793 241.184 413.584 239.987C412.788 239.481 411.905 239.104 410.973 238.869L410.93 238.891C410.697 239.026 410.468 239.168 410.247 239.324C410.236 239.328 410.224 239.335 410.215 239.343C409.038 240.192 408.053 241.245 407.315 242.443C407.315 242.448 407.305 242.452 407.302 242.462C407.16 242.69 407.029 242.921 406.91 243.15C406.902 243.158 406.897 243.168 406.895 243.179C406.774 243.413 406.66 243.644 406.565 243.874C405.81 245.803 405.346 247.819 405.183 249.865Z" fill="#C9E2F4"/>
<path d="M416.173 276.73C416.173 276.73 414.764 276.299 413.798 278.643C413.347 279.736 413.323 280.939 413.728 282.046C414.132 283.154 414.942 284.098 416.016 284.716C418.143 285.946 419.883 285.949 419.916 282.887C419.954 281.877 419.723 280.874 419.244 279.966C418.764 279.057 418.051 278.271 417.166 277.676C416.752 277.444 416.41 277.119 416.173 276.73Z" fill="#F9BF9D"/>
<path d="M519.954 318.656C519.954 318.656 526.475 331.065 524.885 333.267C523.295 335.469 517.741 327.895 517.027 327.461C516.315 327.027 515.498 329.03 514.422 327.562C513.346 326.095 515.757 322.634 514.119 320.728L519.954 318.656Z" fill="#F9BF9D"/>
<path d="M477.485 281.889L487.421 288.422L493.223 314.076C493.781 314.731 494.114 315.525 494.179 316.356C494.245 317.187 494.04 318.017 493.591 318.74C492.801 320.166 484.551 321.025 475.916 321.354C488.877 320.114 488.227 314.383 485.43 305.495C482.632 296.607 477.485 281.889 477.485 281.889Z" fill="#FF8A5F"/>
<path d="M428.63 299.162C428.852 299.322 434.491 303.28 438.161 298.505C441.903 293.634 450.483 274.253 450.483 274.253L450.687 289.807C450.687 289.807 442.342 300.805 437.104 303.511C435.207 304.491 431.978 302.321 428.63 299.162Z" fill="#FF8A5F"/>
<path d="M457.582 261.927L457.917 263.828C463.291 263.828 465.692 259.177 465.692 259.177C464.655 260.173 463.386 260.938 461.981 261.415C460.575 261.891 459.071 262.066 457.582 261.927Z" fill="#1D164D"/>
</g>
<defs>
<linearGradient id="paint0_linear_22_2" x1="793.952" y1="-400.555" x2="524.213" y2="669.002" gradientUnits="userSpaceOnUse">
<stop stop-color="#6BBC61"/>
<stop offset="1" stop-color="#A7DF63"/>
</linearGradient>
<linearGradient id="paint1_linear_22_2" x1="398.294" y1="359.265" x2="398.294" y2="527.246" gradientUnits="userSpaceOnUse">
<stop stop-color="#369E5F"/>
<stop offset="1" stop-color="#369E5F" stop-opacity="0"/>
</linearGradient>
<linearGradient id="paint2_linear_22_2" x1="95.8898" y1="318.403" x2="291.117" y2="409.611" gradientUnits="userSpaceOnUse">
<stop stop-color="#DBE42C"/>
<stop offset="1" stop-color="#6AD419"/>
</linearGradient>
<linearGradient id="paint3_linear_22_2" x1="64.2731" y1="327.919" x2="205.254" y2="344.248" gradientUnits="userSpaceOnUse">
<stop stop-color="white"/>
<stop offset="1" stop-color="white" stop-opacity="0"/>
</linearGradient>
<linearGradient id="paint4_linear_22_2" x1="169.385" y1="205.406" x2="211.225" y2="254.852" gradientUnits="userSpaceOnUse">
<stop stop-color="#DBE42C"/>
<stop offset="1" stop-color="#6AD419"/>
</linearGradient>
<linearGradient id="paint5_linear_22_2" x1="-406.73" y1="261.453" x2="-426.142" y2="254.129" gradientUnits="userSpaceOnUse">
<stop stop-color="#8F5138"/>
<stop offset="1" stop-color="#BA6D4D"/>
</linearGradient>
<linearGradient id="paint6_linear_22_2" x1="274.197" y1="43.193" x2="282.889" y2="96.2947" gradientUnits="userSpaceOnUse">
<stop stop-color="#6BBC61"/>
<stop offset="1" stop-color="#A7DF63"/>
</linearGradient>
<linearGradient id="paint7_linear_22_2" x1="280.448" y1="211.793" x2="296.089" y2="76.6606" gradientUnits="userSpaceOnUse">
<stop stop-color="#C7283A"/>
<stop offset="1" stop-color="#EF4B4B"/>
</linearGradient>
<linearGradient id="paint8_linear_22_2" x1="309.443" y1="106.894" x2="446.287" y2="149.392" gradientUnits="userSpaceOnUse">
<stop stop-color="white"/>
<stop offset="1" stop-color="white" stop-opacity="0"/>
</linearGradient>
<linearGradient id="paint9_linear_22_2" x1="312.693" y1="76.696" x2="301.55" y2="72.492" gradientUnits="userSpaceOnUse">
<stop stop-color="#8F5138"/>
<stop offset="1" stop-color="#BA6D4D"/>
</linearGradient>
<linearGradient id="paint10_linear_22_2" x1="302.636" y1="201.386" x2="302.636" y2="372.064" gradientUnits="userSpaceOnUse">
<stop stop-color="#FFB965"/>
<stop offset="1" stop-color="#FF8A5F"/>
</linearGradient>
<linearGradient id="paint11_linear_22_2" x1="315.331" y1="247.544" x2="285.561" y2="351.798" gradientUnits="userSpaceOnUse">
<stop stop-color="white"/>
<stop offset="1" stop-color="#EAF5FF"/>
</linearGradient>
<linearGradient id="paint12_linear_22_2" x1="302.635" y1="201.919" x2="302.635" y2="176.665" gradientUnits="userSpaceOnUse">
<stop stop-color="#1D164D"/>
<stop offset="1" stop-color="#4A4975"/>
</linearGradient>
<linearGradient id="paint13_linear_22_2" x1="302.636" y1="163.409" x2="302.636" y2="192.579" gradientUnits="userSpaceOnUse">
<stop stop-color="#FFB965"/>
<stop offset="1" stop-color="#FF8A5F"/>
</linearGradient>
<linearGradient id="paint14_linear_22_2" x1="491.874" y1="194.574" x2="656.105" y2="413.182" gradientUnits="userSpaceOnUse">
<stop stop-color="#ACD4F3"/>
<stop offset="1" stop-color="#4099F1"/>
</linearGradient>
<linearGradient id="paint15_linear_22_2" x1="752.366" y1="322.84" x2="605.081" y2="322.84" gradientUnits="userSpaceOnUse">
<stop stop-color="#ACD4F3"/>
<stop offset="1" stop-color="#4099F1"/>
</linearGradient>
<linearGradient id="paint16_linear_22_2" x1="557.366" y1="102.59" x2="554.348" y2="215.26" gradientUnits="userSpaceOnUse">
<stop stop-color="#ACD4F3"/>
<stop offset="1" stop-color="#4099F1"/>
</linearGradient>
<linearGradient id="paint17_linear_22_2" x1="-15.9529" y1="499.89" x2="71.6172" y2="371.454" gradientUnits="userSpaceOnUse">
<stop stop-color="#C7283A"/>
<stop offset="1" stop-color="#EF4B4B"/>
</linearGradient>
<linearGradient id="paint18_linear_22_2" x1="30.2573" y1="412.514" x2="212.756" y2="400.051" gradientUnits="userSpaceOnUse">
<stop stop-color="white"/>
<stop offset="1" stop-color="white" stop-opacity="0"/>
</linearGradient>
<linearGradient id="paint19_linear_22_2" x1="52.9327" y1="388.361" x2="56.9336" y2="368.34" gradientUnits="userSpaceOnUse">
<stop stop-color="#6BBC61"/>
<stop offset="1" stop-color="#A7DF63"/>
</linearGradient>
<linearGradient id="paint20_linear_22_2" x1="219.619" y1="309.928" x2="252.085" y2="309.928" gradientUnits="userSpaceOnUse">
<stop stop-color="#C9E2F4"/>
<stop offset="1" stop-color="#EAF5FF"/>
</linearGradient>
<linearGradient id="paint21_linear_22_2" x1="268.327" y1="290.214" x2="238.738" y2="365.456" gradientUnits="userSpaceOnUse">
<stop stop-color="#ACD4F3"/>
<stop offset="1" stop-color="#4099F1"/>
</linearGradient>
<linearGradient id="paint22_linear_22_2" x1="222.963" y1="281.679" x2="225.044" y2="261.616" gradientUnits="userSpaceOnUse">
<stop stop-color="#1D164D"/>
<stop offset="1" stop-color="#4A4975"/>
</linearGradient>
<linearGradient id="paint23_linear_22_2" x1="230.059" y1="293.199" x2="223.592" y2="283.203" gradientUnits="userSpaceOnUse">
<stop stop-color="#FFC0AC"/>
<stop offset="1" stop-color="#FFD6C7"/>
</linearGradient>
<linearGradient id="paint24_linear_22_2" x1="165.766" y1="445.514" x2="247.738" y2="407.861" gradientUnits="userSpaceOnUse">
<stop stop-color="#1D164D"/>
<stop offset="1" stop-color="#4A4975"/>
</linearGradient>
<linearGradient id="paint25_linear_22_2" x1="220.316" y1="418.091" x2="295.779" y2="283.465" gradientUnits="userSpaceOnUse">
<stop stop-color="#C7283A"/>
<stop offset="1" stop-color="#EF4B4B"/>
</linearGradient>
<linearGradient id="paint26_linear_22_2" x1="265.162" y1="341.894" x2="268.837" y2="328.272" gradientUnits="userSpaceOnUse">
<stop stop-color="#FFC0AC"/>
<stop offset="1" stop-color="#FFD6C7"/>
</linearGradient>
<linearGradient id="paint27_linear_22_2" x1="165.511" y1="459.852" x2="170.97" y2="445.045" gradientUnits="userSpaceOnUse">
<stop stop-color="#FFC0AC"/>
<stop offset="1" stop-color="#FFD6C7"/>
</linearGradient>
<linearGradient id="paint28_linear_22_2" x1="223.229" y1="458.519" x2="229.678" y2="446.133" gradientUnits="userSpaceOnUse">
<stop stop-color="#FFC0AC"/>
<stop offset="1" stop-color="#FFD6C7"/>
</linearGradient>
<linearGradient id="paint29_linear_22_2" x1="209.67" y1="330.245" x2="233.56" y2="298.556" gradientUnits="userSpaceOnUse">
<stop stop-color="#C9E2F4"/>
<stop offset="1" stop-color="#EAF5FF"/>
</linearGradient>
<linearGradient id="paint30_linear_22_2" x1="163.593" y1="456.461" x2="200.653" y2="456.461" gradientUnits="userSpaceOnUse">
<stop stop-color="#1D164D"/>
<stop offset="1" stop-color="#4A4975"/>
</linearGradient>
<linearGradient id="paint31_linear_22_2" x1="266.457" y1="330.757" x2="449.172" y2="325.98" gradientUnits="userSpaceOnUse">
<stop stop-color="white"/>
<stop offset="1" stop-color="white" stop-opacity="0"/>
</linearGradient>
<linearGradient id="paint32_linear_22_2" x1="219.808" y1="456.461" x2="256.867" y2="456.461" gradientUnits="userSpaceOnUse">
<stop stop-color="#1D164D"/>
<stop offset="1" stop-color="#4A4975"/>
</linearGradient>
<linearGradient id="paint33_linear_22_2" x1="289.18" y1="306.539" x2="290.008" y2="286.188" gradientUnits="userSpaceOnUse">
<stop stop-color="#6BBC61"/>
<stop offset="1" stop-color="#A7DF63"/>
</linearGradient>
<linearGradient id="paint34_linear_22_2" x1="411.532" y1="466.613" x2="343.109" y2="411.355" gradientUnits="userSpaceOnUse">
<stop stop-color="#1D164D"/>
<stop offset="1" stop-color="#4A4975"/>
</linearGradient>
<linearGradient id="paint35_linear_22_2" x1="374.831" y1="312.199" x2="351.572" y2="278.081" gradientUnits="userSpaceOnUse">
<stop stop-color="#1D164D"/>
<stop offset="1" stop-color="#4A4975"/>
</linearGradient>
<linearGradient id="paint36_linear_22_2" x1="422.244" y1="411.791" x2="356.789" y2="315.99" gradientUnits="userSpaceOnUse">
<stop stop-color="#C9E2F4"/>
<stop offset="1" stop-color="#EAF5FF"/>
</linearGradient>
<linearGradient id="paint37_linear_22_2" x1="347.006" y1="298.478" x2="401.942" y2="302.465" gradientUnits="userSpaceOnUse">
<stop stop-color="#FF63DE"/>
<stop offset="1" stop-color="#B122E5"/>
</linearGradient>
<linearGradient id="paint38_linear_22_2" x1="369.066" y1="299.865" x2="362.586" y2="289.356" gradientUnits="userSpaceOnUse">
<stop stop-color="#FFC0AC"/>
<stop offset="1" stop-color="#FFD6C7"/>
</linearGradient>
<linearGradient id="paint39_linear_22_2" x1="341.265" y1="378.429" x2="344.398" y2="300.937" gradientUnits="userSpaceOnUse">
<stop stop-color="#C9E2F4"/>
<stop offset="1" stop-color="#EAF5FF"/>
</linearGradient>
<linearGradient id="paint40_linear_22_2" x1="317.271" y1="344.841" x2="315.623" y2="336.822" gradientUnits="userSpaceOnUse">
<stop stop-color="#FFC0AC"/>
<stop offset="1" stop-color="#FFD6C7"/>
</linearGradient>
<linearGradient id="paint41_linear_22_2" x1="352.94" y1="459.987" x2="365.941" y2="459.987" gradientUnits="userSpaceOnUse">
<stop stop-color="#FFC0AC"/>
<stop offset="1" stop-color="#FFD6C7"/>
</linearGradient>
<linearGradient id="paint42_linear_22_2" x1="405.871" y1="459.987" x2="423.146" y2="459.987" gradientUnits="userSpaceOnUse">
<stop stop-color="#FFC0AC"/>
<stop offset="1" stop-color="#FFD6C7"/>
</linearGradient>
<linearGradient id="paint43_linear_22_2" x1="363.225" y1="463.643" x2="400.284" y2="463.643" gradientUnits="userSpaceOnUse">
<stop stop-color="#1D164D"/>
<stop offset="1" stop-color="#4A4975"/>
</linearGradient>
<linearGradient id="paint44_linear_22_2" x1="458.533" y1="463.643" x2="495.592" y2="463.643" gradientUnits="userSpaceOnUse">
<stop stop-color="#1D164D"/>
<stop offset="1" stop-color="#4A4975"/>
</linearGradient>
<linearGradient id="paint45_linear_22_2" x1="458.533" y1="463.643" x2="495.592" y2="463.643" gradientUnits="userSpaceOnUse">
<stop stop-color="#1D164D"/>
<stop offset="1" stop-color="#4A4975"/>
</linearGradient>
<linearGradient id="paint46_linear_22_2" x1="563.611" y1="272.432" x2="531.007" y2="256.827" gradientUnits="userSpaceOnUse">
<stop stop-color="#B7C0E2"/>
<stop offset="1" stop-color="#B7C0E2" stop-opacity="0"/>
</linearGradient>
<linearGradient id="paint47_linear_22_2" x1="489.978" y1="246.669" x2="450.362" y2="241.53" gradientUnits="userSpaceOnUse">
<stop stop-color="#1D164D"/>
<stop offset="1" stop-color="#4A4975"/>
</linearGradient>
<linearGradient id="paint48_linear_22_2" x1="481.573" y1="275.521" x2="455.898" y2="259.913" gradientUnits="userSpaceOnUse">
<stop stop-color="#FFC0AC"/>
<stop offset="1" stop-color="#FFD6C7"/>
</linearGradient>
<linearGradient id="paint49_linear_22_2" x1="474.958" y1="323.56" x2="535.22" y2="363.413" gradientUnits="userSpaceOnUse">
<stop stop-color="#1D164D"/>
<stop offset="1" stop-color="#4A4975"/>
</linearGradient>
<linearGradient id="paint50_linear_22_2" x1="440.259" y1="327.595" x2="517.088" y2="334.227" gradientUnits="userSpaceOnUse">
<stop stop-color="#1D164D"/>
<stop offset="1" stop-color="#4A4975"/>
</linearGradient>
<linearGradient id="paint51_linear_22_2" x1="456.4" y1="277.516" x2="470.415" y2="337.239" gradientUnits="userSpaceOnUse">
<stop stop-color="#FFB965"/>
<stop offset="1" stop-color="#FF8A5F"/>
</linearGradient>
<clipPath id="clip0_22_2">
<rect width="666" height="478" fill="white"/>
</clipPath>
</defs>
</svg>
